<?xml version="1.0" standalone="no"?><!DOCTYPE svg PUBLIC "-//W3C//DTD SVG 1.1//EN" "http://www.w3.org/Graphics/SVG/1.1/DTD/svg11.dtd" ><svg version="1.1" xmlns="http://www.w3.org/2000/svg"><defs><font horiz-adv-x="0" id="font"><font-face ascent="677" bbox="-160 -235 1370 897" cap-height="657" descent="-187" font-family="Web use ONLY | Copyright (C) Emtype Foundry" font-stretch="normal" font-weight="600" units-per-em="1000" x-height="490" /><missing-glyph d="M534 132Q529 132 523.5 135Q518 138 513 144L421 236L329 144Q323 138 318 135Q313 132 308 132Q303 132 297.5 135Q292 138 287 144L236 196Q230 202 227.5 206.5Q225 211 225 215Q225 220 228 225.5Q231 231 237 236L329 328L237 420Q230 426 227 431.5Q224 437 224 442Q224 446 226.5 450.5Q229 455 235 461L286 513Q292 519 297.5 521.5Q303 524 307 524Q312 524 317.5 521Q323 518 329 512L421 420L513 512Q520 519 525 522Q530 525 535 525Q539 525 543.5 522.5Q548 520 554 514L606 463Q612 456 614.5 451Q617 446 617 441Q617 436 614 430.5Q611 425 605 420L513 328L605 236Q611 229 614 224Q617 219 617 215Q617 210 614 204.5Q611 199 605 194L553 143Q547 137 542.5 134.5Q538 132 534 132ZM419 -10Q278 -10 179 88.5Q80 187 80 328Q80 469 179.5 568Q279 667 420 667Q561 667 660.5 568Q760 469 760 328Q760 187 660 88.5Q560 -10 419 -10ZM420 622Q299 622 213.5 536Q128 450 128 328Q128 206 213 120.5Q298 35 419 35Q540 35 625.5 120.5Q711 206 711 328Q711 450 626 536Q541 622 420 622Z" horiz-adv-x="841" /><glyph d="M170 118 138 0H16L212 657H344L540 0H412L379 118ZM351 224 274 503 198 224Z" glyph-name="A" horiz-adv-x="556" unicode="A" /><glyph d="M185 117 132 0H-1L317 657H785V545H502V389H757V279H502V112H794V0H378V117ZM378 544 232 223H378Z" glyph-name="AE" horiz-adv-x="837" unicode="&#198;" /><glyph d="M170 118 138 0H16L212 657H344L540 0H412L379 118ZM351 224 274 503 198 224ZM331 875 407 804 275 694 219 742Z" glyph-name="Aacute" horiz-adv-x="556" unicode="&#193;" /><glyph d="M170 118 138 0H16L212 657H344L540 0H412L379 118ZM351 224 274 503 198 224ZM324 804V825H396V804Q396 757 362.5 725.5Q329 694 277 694Q225 694 192 725.5Q159 757 159 804V825H231V804Q231 782 243.5 769.5Q256 757 277 757Q299 757 311.5 770Q324 783 324 804Z" glyph-name="Abreve" horiz-adv-x="556" unicode="&#258;" /><glyph d="M170 118 138 0H16L212 657H344L540 0H412L379 118ZM351 224 274 503 198 224ZM143 734 251 868H304L412 734L365 694L276 772L189 695Z" glyph-name="Acircumflex" horiz-adv-x="556" unicode="&#194;" /><glyph d="M170 118 138 0H16L212 657H344L540 0H412L379 118ZM351 224 274 503 198 224ZM209 705Q184 705 166.5 722.5Q149 740 149 765Q149 790 166.5 807Q184 824 209 824Q234 824 250.5 807Q267 790 267 765Q267 740 250 722.5Q233 705 209 705ZM348 705Q323 705 306 722.5Q289 740 289 765Q289 790 306 807Q323 824 348 824Q373 824 390 807Q407 790 407 765Q407 740 390 722.5Q373 705 348 705Z" glyph-name="Adieresis" horiz-adv-x="556" unicode="&#196;" /><glyph d="M170 118 138 0H16L212 657H344L540 0H412L379 118ZM351 224 274 503 198 224ZM334 742 278 694 146 804 222 875Z" glyph-name="Agrave" horiz-adv-x="556" unicode="&#192;" /><glyph d="M170 118 138 0H16L212 657H344L540 0H412L379 118ZM351 224 274 503 198 224ZM398 721H158V806H398Z" glyph-name="Amacron" horiz-adv-x="556" unicode="&#256;" /><glyph d="M170 118 138 0H16L212 657H344L540 0H412L379 118ZM351 224 274 503 198 224ZM411 -92Q411 -108 422 -116.5Q433 -125 453 -125H501V-193H438Q392 -193 366 -171.5Q340 -150 340 -113Q340 -75 363.5 -42Q387 -9 425 9L477 0Q445 -21 428 -45Q411 -69 411 -92Z" glyph-name="Aogonek" horiz-adv-x="556" unicode="&#260;" /><glyph d="M170 118 138 0H16L212 657H344L540 0H412L379 118ZM351 224 274 503 198 224ZM235 705Q235 684 246.5 671Q258 658 277 658Q297 658 308.5 671Q320 684 320 705Q320 725 308.5 737.5Q297 750 277 750Q258 750 246.5 737.5Q235 725 235 705ZM386 705Q386 660 355.5 631Q325 602 277 602Q230 602 200 631Q170 660 170 705Q170 749 200 778.5Q230 808 277 808Q324 808 355 778.5Q386 749 386 705Z" glyph-name="Aring" horiz-adv-x="556" unicode="&#197;" /><glyph d="M170 118 138 0H16L212 657H344L540 0H412L379 118ZM351 224 274 503 198 224ZM344 776Q358 776 366.5 789.5Q375 803 375 818H437Q438 813 438 808Q438 803 438 793Q438 746 416 721Q394 696 354 696Q340 696 325.5 700Q311 704 296 711L253 732Q242 738 234.5 740Q227 742 221 742Q204 742 193.5 727.5Q183 713 183 699H121Q118 713 117.5 718Q117 723 117 727Q117 769 143.5 796Q170 823 211 823Q224 823 237 819.5Q250 816 264 810L305 790Q323 781 330.5 778.5Q338 776 344 776Z" glyph-name="Atilde" horiz-adv-x="556" unicode="&#195;" /><glyph d="M329 0H73V657H312Q404 657 461 609.5Q518 562 518 484Q518 432 494 395Q470 358 423 339V338Q477 320 505.5 280Q534 240 534 182Q534 100 477.5 50Q421 0 329 0ZM406 192Q406 233 379.5 258Q353 283 309 283H197V101H308Q354 101 380 125Q406 149 406 192ZM391 473Q391 512 365.5 534Q340 556 296 556H197V386H297Q341 386 366 409Q391 432 391 473Z" glyph-name="B" horiz-adv-x="573" unicode="B" /><glyph d="M389 207V225H509V206Q509 108 448 49Q387 -10 285 -10Q181 -10 118 50Q55 110 55 209V448Q55 551 116 609Q177 667 285 667Q387 667 448 608Q509 549 509 451V435H389V450Q389 498 360.5 526.5Q332 555 283 555Q236 555 208 525.5Q180 496 180 446V211Q180 161 208 131.5Q236 102 283 102Q332 102 360.5 130.5Q389 159 389 207Z" glyph-name="C" horiz-adv-x="554" unicode="C" /><glyph glyph-name="CR" horiz-adv-x="0" unicode="" /><glyph d="M389 207V225H509V206Q509 108 448 49Q387 -10 285 -10Q181 -10 118 50Q55 110 55 209V448Q55 551 116 609Q177 667 285 667Q387 667 448 608Q509 549 509 451V435H389V450Q389 498 360.5 526.5Q332 555 283 555Q236 555 208 525.5Q180 496 180 446V211Q180 161 208 131.5Q236 102 283 102Q332 102 360.5 130.5Q389 159 389 207ZM337 875 413 804 281 694 225 742Z" glyph-name="Cacute" horiz-adv-x="554" unicode="&#262;" /><glyph d="M389 207V225H509V206Q509 108 448 49Q387 -10 285 -10Q181 -10 118 50Q55 110 55 209V448Q55 551 116 609Q177 667 285 667Q387 667 448 608Q509 549 509 451V435H389V450Q389 498 360.5 526.5Q332 555 283 555Q236 555 208 525.5Q180 496 180 446V211Q180 161 208 131.5Q236 102 283 102Q332 102 360.5 130.5Q389 159 389 207ZM416 827 308 693H255L147 827L195 867L283 789L371 866Z" glyph-name="Ccaron" horiz-adv-x="554" unicode="&#268;" /><glyph d="M390 207V225H510V206Q510 108 449 49Q388 -10 286 -10Q182 -10 119 50Q56 110 56 209V448Q56 551 117 609Q178 667 286 667Q388 667 449 608Q510 549 510 451V435H390V450Q390 498 361.5 526.5Q333 555 284 555Q237 555 209 525.5Q181 496 181 446V211Q181 161 209 131.5Q237 102 284 102Q333 102 361.5 130.5Q390 159 390 207ZM286 -97H228L207 -81L235 15H302L285 -40H297Q336 -40 357 -59Q378 -78 378 -112Q378 -147 356 -167Q334 -187 297 -187H185V-130H286Q295 -130 300 -125.5Q305 -121 305 -113Q305 -105 300 -101Q295 -97 286 -97Z" glyph-name="Ccedilla" horiz-adv-x="554" unicode="&#199;" /><glyph d="M389 207V225H509V206Q509 108 448 49Q387 -10 285 -10Q181 -10 118 50Q55 110 55 209V448Q55 551 116 609Q177 667 285 667Q387 667 448 608Q509 549 509 451V435H389V450Q389 498 360.5 526.5Q332 555 283 555Q236 555 208 525.5Q180 496 180 446V211Q180 161 208 131.5Q236 102 283 102Q332 102 360.5 130.5Q389 159 389 207ZM147 734 255 868H308L416 734L369 694L280 772L193 695Z" glyph-name="Ccircumflex" horiz-adv-x="554" unicode="&#264;" /><glyph d="M280 706Q252 706 232 726Q212 746 212 775Q212 804 232 823.5Q252 843 280 843Q309 843 329 823.5Q349 804 349 775Q349 746 329 726Q309 706 280 706ZM389 207V225H509V206Q509 108 448 49Q387 -10 285 -10Q181 -10 118 50Q55 110 55 209V448Q55 551 116 609Q177 667 285 667Q387 667 448 608Q509 549 509 451V435H389V450Q389 498 360.5 526.5Q332 555 283 555Q236 555 208 525.5Q180 496 180 446V211Q180 161 208 131.5Q236 102 283 102Q332 102 360.5 130.5Q389 159 389 207Z" glyph-name="Cdotaccent" horiz-adv-x="554" unicode="&#266;" /><glyph d="M73 657H300Q411 657 474 597Q537 537 537 433V224Q537 120 474 60Q411 0 300 0H73ZM300 545H198V112H300Q353 112 382.5 142Q412 172 412 226V431Q412 485 382.5 515Q353 545 300 545Z" glyph-name="D" horiz-adv-x="591" unicode="D" /><glyph d="M73 657H300Q411 657 474 597Q537 537 537 433V224Q537 120 474 60Q411 0 300 0H73ZM300 545H198V112H300Q353 112 382.5 142Q412 172 412 226V431Q412 485 382.5 515Q353 545 300 545ZM395 827 287 693H234L126 827L174 867L262 789L350 866Z" glyph-name="Dcaron" horiz-adv-x="591" unicode="&#270;" /><glyph d="M94 657H321Q432 657 494.5 597.5Q557 538 557 433V224Q557 119 494.5 59.5Q432 0 321 0H94V282H26V384H94ZM321 545H218V384H321V282H218V112H321Q374 112 403.5 142Q433 172 433 226V431Q433 485 403.5 515Q374 545 321 545Z" glyph-name="Dcroat" horiz-adv-x="612" unicode="&#272;" /><glyph d="M482 0H84V109H482ZM280 480 156 0H30L217 657H350L537 0H404Z" glyph-name="Delta" horiz-adv-x="566" unicode="&#8710;" /><glyph d="M444 389V279H198V112H482V0H73V657H473V545H198V389Z" glyph-name="E" horiz-adv-x="525" unicode="E" /><glyph d="M444 389V279H198V112H482V0H73V657H473V545H198V389ZM332 875 408 804 276 694 220 742Z" glyph-name="Eacute" horiz-adv-x="525" unicode="&#201;" /><glyph d="M444 389V279H198V112H482V0H73V657H473V545H198V389ZM324 804V825H396V804Q396 757 362.5 725.5Q329 694 277 694Q225 694 192 725.5Q159 757 159 804V825H231V804Q231 782 243.5 769.5Q256 757 277 757Q299 757 311.5 770Q324 783 324 804Z" glyph-name="Ebreve" horiz-adv-x="525" unicode="&#276;" /><glyph d="M444 389V279H198V112H482V0H73V657H473V545H198V389ZM412 827 304 693H251L143 827L191 867L279 789L367 866Z" glyph-name="Ecaron" horiz-adv-x="525" unicode="&#282;" /><glyph d="M143 734 251 868H304L412 734L365 694L276 772L189 695ZM444 389V279H198V112H482V0H73V657H473V545H198V389Z" glyph-name="Ecircumflex" horiz-adv-x="525" unicode="&#202;" /><glyph d="M444 389V279H198V112H482V0H73V657H473V545H198V389ZM209 705Q184 705 166.5 722.5Q149 740 149 765Q149 790 166.5 807Q184 824 209 824Q234 824 250.5 807Q267 790 267 765Q267 740 250 722.5Q233 705 209 705ZM348 705Q323 705 306 722.5Q289 740 289 765Q289 790 306 807Q323 824 348 824Q373 824 390 807Q407 790 407 765Q407 740 390 722.5Q373 705 348 705Z" glyph-name="Edieresis" horiz-adv-x="525" unicode="&#203;" /><glyph d="M277 706Q249 706 229 726Q209 746 209 775Q209 804 229 823.5Q249 843 277 843Q306 843 326 823.5Q346 804 346 775Q346 746 326 726Q306 706 277 706ZM444 389V279H198V112H482V0H73V657H473V545H198V389Z" glyph-name="Edotaccent" horiz-adv-x="525" unicode="&#278;" /><glyph d="M334 742 278 694 146 804 222 875ZM444 389V279H198V112H482V0H73V657H473V545H198V389Z" glyph-name="Egrave" horiz-adv-x="525" unicode="&#200;" /><glyph d="M444 389V279H198V112H482V0H73V657H473V545H198V389ZM395 721H155V806H395Z" glyph-name="Emacron" horiz-adv-x="525" unicode="&#274;" /><glyph d="M380 -92Q380 -108 391 -116.5Q402 -125 422 -125H470V-193H407Q361 -193 335 -171.5Q309 -150 309 -113Q309 -75 332.5 -42Q356 -9 394 9L446 0Q414 -21 397 -45Q380 -69 380 -92ZM444 389V279H198V112H482V0H73V657H473V545H198V389Z" glyph-name="Eogonek" horiz-adv-x="525" unicode="&#280;" /><glyph d="M78 657H305Q416 657 479 597Q542 537 542 433V224Q542 120 479 60Q416 0 305 0H78V282H11V384H78ZM305 545H203V384H305V282H203V112H305Q358 112 387.5 142Q417 172 417 226V431Q417 485 387.5 515Q358 545 305 545Z" glyph-name="Eth" horiz-adv-x="596" unicode="&#208;" /><glyph d="M424 200V221H540V202Q540 106 481 48Q422 -10 324 -10Q224 -10 163.5 51.5Q103 113 103 216V442Q103 548 162 607.5Q221 667 326 667Q423 667 481.5 609Q540 551 540 455V439H424V457Q424 505 397 532.5Q370 560 323 560Q277 560 250 530Q223 500 223 450V207Q223 157 250 127Q277 97 323 97Q370 97 397 124.5Q424 152 424 200ZM340 359H41V433H340ZM340 228H41V302H340Z" glyph-name="Euro" horiz-adv-x="589" unicode="&#8364;" /><glyph d="M444 372V261H198V0H73V657H473V545H198V372Z" glyph-name="F" horiz-adv-x="508" unicode="F" /><glyph d="M393 236H297V334H509V206Q509 108 448 49Q387 -10 285 -10Q181 -10 118 50Q55 110 55 209V448Q55 550 117 608.5Q179 667 287 667Q388 667 448.5 611Q509 555 509 461V445H389V460Q389 504 361.5 529.5Q334 555 286 555Q237 555 208.5 525.5Q180 496 180 446V211Q180 161 208 131.5Q236 102 284 102Q335 102 364 130Q393 158 393 207Z" glyph-name="G" horiz-adv-x="558" unicode="G" /><glyph d="M393 236H297V334H509V206Q509 108 448 49Q387 -10 285 -10Q181 -10 118 50Q55 110 55 209V448Q55 550 117 608.5Q179 667 287 667Q388 667 448.5 611Q509 555 509 461V445H389V460Q389 504 361.5 529.5Q334 555 286 555Q237 555 208.5 525.5Q180 496 180 446V211Q180 161 208 131.5Q236 102 284 102Q335 102 364 130Q393 158 393 207ZM328 804V825H400V804Q400 757 366.5 725.5Q333 694 281 694Q229 694 196 725.5Q163 757 163 804V825H235V804Q235 782 247.5 769.5Q260 757 281 757Q303 757 315.5 770Q328 783 328 804Z" glyph-name="Gbreve" horiz-adv-x="558" unicode="&#286;" /><glyph d="M147 734 255 868H308L416 734L369 694L280 772L193 695ZM393 236H297V334H509V206Q509 108 448 49Q387 -10 285 -10Q181 -10 118 50Q55 110 55 209V448Q55 550 117 608.5Q179 667 287 667Q388 667 448.5 611Q509 555 509 461V445H389V460Q389 504 361.5 529.5Q334 555 286 555Q237 555 208.5 525.5Q180 496 180 446V211Q180 161 208 131.5Q236 102 284 102Q335 102 364 130Q393 158 393 207Z" glyph-name="Gcircumflex" horiz-adv-x="558" unicode="&#284;" /><glyph d="M281 706Q253 706 233 726Q213 746 213 775Q213 804 233 823.5Q253 843 281 843Q310 843 330 823.5Q350 804 350 775Q350 746 330 726Q310 706 281 706ZM393 236H297V334H509V206Q509 108 448 49Q387 -10 285 -10Q181 -10 118 50Q55 110 55 209V448Q55 550 117 608.5Q179 667 287 667Q388 667 448.5 611Q509 555 509 461V445H389V460Q389 504 361.5 529.5Q334 555 286 555Q237 555 208.5 525.5Q180 496 180 446V211Q180 161 208 131.5Q236 102 284 102Q335 102 364 130Q393 158 393 207Z" glyph-name="Gdotaccent" horiz-adv-x="558" unicode="&#288;" /><glyph d="M401 657H526V0H401V278H198V0H73V657H198V390H401Z" glyph-name="H" horiz-adv-x="599" unicode="H" /><glyph d="M591 553V482H14V553ZM403 657H528V0H403V278H200V0H75V657H200V390H403Z" glyph-name="Hbar" horiz-adv-x="604" unicode="&#294;" /><glyph d="M401 657H526V0H401V278H198V0H73V657H198V390H401ZM165 734 273 868H326L434 734L387 694L298 772L211 695Z" glyph-name="Hcircumflex" horiz-adv-x="599" unicode="&#292;" /><glyph d="M73 657H198V0H73Z" glyph-name="I" horiz-adv-x="271" unicode="I" /><glyph d="M73 657H198V0H73ZM291 189V215H415V191Q415 150 437 126Q459 102 497 102Q536 102 557.5 125.5Q579 149 579 191V657H704V189Q704 98 647.5 44Q591 -10 497 -10Q403 -10 347 44Q291 98 291 189Z" glyph-name="IJ" horiz-adv-x="773" unicode="&#306;" /><glyph d="M73 657H198V0H73ZM191 875 267 804 135 694 79 742Z" glyph-name="Iacute" horiz-adv-x="271" unicode="&#205;" /><glyph d="M73 657H198V0H73ZM1 734 109 868H162L270 734L223 694L134 772L47 695Z" glyph-name="Icircumflex" horiz-adv-x="271" unicode="&#206;" /><glyph d="M73 657H198V0H73ZM67 705Q42 705 24.5 722.5Q7 740 7 765Q7 790 24.5 807Q42 824 67 824Q92 824 108.5 807Q125 790 125 765Q125 740 108 722.5Q91 705 67 705ZM206 705Q181 705 164 722.5Q147 740 147 765Q147 790 164 807Q181 824 206 824Q231 824 248 807Q265 790 265 765Q265 740 248 722.5Q231 705 206 705Z" glyph-name="Idieresis" horiz-adv-x="271" unicode="&#207;" /><glyph d="M73 657H198V0H73ZM134 706Q106 706 86 726Q66 746 66 775Q66 804 86 823.5Q106 843 134 843Q163 843 183 823.5Q203 804 203 775Q203 746 183 726Q163 706 134 706Z" glyph-name="Idotaccent" horiz-adv-x="271" unicode="&#304;" /><glyph d="M73 657H198V0H73ZM193 742 137 694 5 804 81 875Z" glyph-name="Igrave" horiz-adv-x="271" unicode="&#204;" /><glyph d="M73 657H198V0H73ZM255 721H15V806H255Z" glyph-name="Imacron" horiz-adv-x="271" unicode="&#298;" /><glyph d="M73 657H198V0H73ZM75 -92Q75 -108 86 -116.5Q97 -125 117 -125H165V-193H102Q56 -193 30 -171.5Q4 -150 4 -113Q4 -75 27.5 -42Q51 -9 89 9L141 0Q109 -21 92 -45Q75 -69 75 -92Z" glyph-name="Iogonek" horiz-adv-x="271" unicode="&#302;" /><glyph d="M73 657H198V0H73ZM202 776Q216 776 224.5 789.5Q233 803 233 818H295Q296 813 296 808Q296 803 296 793Q296 746 274 721Q252 696 212 696Q198 696 183.5 700Q169 704 154 711L111 732Q100 738 92.5 740Q85 742 79 742Q62 742 51.5 727.5Q41 713 41 699H-21Q-24 713 -24.5 718Q-25 723 -25 727Q-25 769 1.5 796Q28 823 69 823Q82 823 95 819.5Q108 816 122 810L163 790Q181 781 188.5 778.5Q196 776 202 776Z" glyph-name="Itilde" horiz-adv-x="271" unicode="&#296;" /><glyph d="M17 189V215H141V191Q141 150 163 126Q185 102 223 102Q262 102 283.5 125.5Q305 149 305 191V657H430V189Q430 98 373.5 44Q317 -10 223 -10Q129 -10 73 44Q17 98 17 189Z" glyph-name="J" horiz-adv-x="499" unicode="J" /><glyph d="M17 189V215H141V191Q141 150 163 126Q185 102 223 102Q262 102 283.5 125.5Q305 149 305 191V657H430V189Q430 98 373.5 44Q317 -10 223 -10Q129 -10 73 44Q17 98 17 189ZM233 734 341 868H394L502 734L455 694L366 772L279 695Z" glyph-name="Jcircumflex" horiz-adv-x="499" unicode="&#308;" /><glyph d="M73 657H198V343L399 657H538L366 384L544 0H404L278 280L198 155V0H73Z" glyph-name="K" horiz-adv-x="556" unicode="K" /><glyph d="M73 657H198V112H455V0H73Z" glyph-name="L" horiz-adv-x="469" unicode="L" /><glyph d="M187 875 263 804 131 694 75 742ZM73 657H198V112H455V0H73Z" glyph-name="Lacute" horiz-adv-x="469" unicode="&#313;" /><glyph d="M252 503 275 657H381L316 503ZM73 657H198V112H455V0H73Z" glyph-name="Lcaron" horiz-adv-x="469" unicode="&#317;" /><glyph d="M73 657H198V112H455V0H73ZM326 271Q297 271 276.5 291.5Q256 312 256 341Q256 371 276.5 391.5Q297 412 326 412Q356 412 376.5 391.5Q397 371 397 341Q397 312 376 291.5Q355 271 326 271Z" glyph-name="Ldot" horiz-adv-x="470" unicode="&#319;" /><glyph d="M11 301 299 467V358L11 193ZM80 657H205V112H462V0H80Z" glyph-name="Lslash" horiz-adv-x="476" unicode="&#321;" /><glyph d="M371 215H299L189 412V0H73V657H180L337 371L492 657H599V0H478V409Z" glyph-name="M" horiz-adv-x="672" unicode="M" /><glyph d="M408 657H522V0H420L187 415V0H73V657H180L408 252Z" glyph-name="N" horiz-adv-x="595" unicode="N" /><glyph glyph-name="NULL" horiz-adv-x="0" /><glyph d="M352 875 428 804 296 694 240 742ZM408 657H522V0H420L187 415V0H73V657H180L408 252Z" glyph-name="Nacute" horiz-adv-x="595" unicode="&#323;" /><glyph d="M408 657H522V0H420L187 415V0H73V657H180L408 252ZM432 827 324 693H271L163 827L211 867L299 789L387 866Z" glyph-name="Ncaron" horiz-adv-x="595" unicode="&#327;" /><glyph d="M363 776Q377 776 385.5 789.5Q394 803 394 818H456Q457 813 457 808Q457 803 457 793Q457 746 435 721Q413 696 373 696Q359 696 344.5 700Q330 704 315 711L272 732Q261 738 253.5 740Q246 742 240 742Q223 742 212.5 727.5Q202 713 202 699H140Q137 713 136.5 718Q136 723 136 727Q136 769 162.5 796Q189 823 230 823Q243 823 256 819.5Q269 816 283 810L324 790Q342 781 349.5 778.5Q357 776 363 776ZM408 657H522V0H420L187 415V0H73V657H180L408 252Z" glyph-name="Ntilde" horiz-adv-x="595" unicode="&#209;" /><glyph d="M287 555Q237 555 208.5 526Q180 497 180 446V211Q180 160 208.5 131Q237 102 287 102Q336 102 364.5 131.5Q393 161 393 211V446Q393 496 364.5 525.5Q336 555 287 555ZM287 667Q391 667 454.5 607.5Q518 548 518 448V209Q518 109 454.5 49.5Q391 -10 287 -10Q182 -10 118.5 49.5Q55 109 55 209V448Q55 551 116 609Q177 667 287 667Z" glyph-name="O" horiz-adv-x="573" unicode="O" /><glyph d="M401 657H801V545H518V389H772V279H518V112H810V0H401V32Q375 11 343 0.5Q311 -10 275 -10Q174 -10 114.5 49.5Q55 109 55 209V448Q55 552 112.5 609.5Q170 667 275 667Q311 667 343 656Q375 645 401 624ZM287 555Q237 555 208.5 526Q180 497 180 446V211Q180 160 208.5 131Q237 102 287 102Q336 102 364.5 131Q393 160 393 209V446Q393 496 364.5 525.5Q336 555 287 555Z" glyph-name="OE" horiz-adv-x="853" unicode="&#338;" /><glyph d="M343 875 419 804 287 694 231 742ZM287 555Q237 555 208.5 526Q180 497 180 446V211Q180 160 208.5 131Q237 102 287 102Q336 102 364.5 131.5Q393 161 393 211V446Q393 496 364.5 525.5Q336 555 287 555ZM287 667Q391 667 454.5 607.5Q518 548 518 448V209Q518 109 454.5 49.5Q391 -10 287 -10Q182 -10 118.5 49.5Q55 109 55 209V448Q55 551 116 609Q177 667 287 667Z" glyph-name="Oacute" horiz-adv-x="573" unicode="&#211;" /><glyph d="M287 555Q237 555 208.5 526Q180 497 180 446V211Q180 160 208.5 131Q237 102 287 102Q336 102 364.5 131.5Q393 161 393 211V446Q393 496 364.5 525.5Q336 555 287 555ZM287 667Q391 667 454.5 607.5Q518 548 518 448V209Q518 109 454.5 49.5Q391 -10 287 -10Q182 -10 118.5 49.5Q55 109 55 209V448Q55 551 116 609Q177 667 287 667ZM333 804V825H405V804Q405 757 371.5 725.5Q338 694 286 694Q234 694 201 725.5Q168 757 168 804V825H240V804Q240 782 252.5 769.5Q265 757 286 757Q308 757 320.5 770Q333 783 333 804Z" glyph-name="Obreve" horiz-adv-x="573" unicode="&#334;" /><glyph d="M152 734 260 868H313L421 734L374 694L285 772L198 695ZM287 555Q237 555 208.5 526Q180 497 180 446V211Q180 160 208.5 131Q237 102 287 102Q336 102 364.5 131.5Q393 161 393 211V446Q393 496 364.5 525.5Q336 555 287 555ZM287 667Q391 667 454.5 607.5Q518 548 518 448V209Q518 109 454.5 49.5Q391 -10 287 -10Q182 -10 118.5 49.5Q55 109 55 209V448Q55 551 116 609Q177 667 287 667Z" glyph-name="Ocircumflex" horiz-adv-x="573" unicode="&#212;" /><glyph d="M287 555Q237 555 208.5 526Q180 497 180 446V211Q180 160 208.5 131Q237 102 287 102Q336 102 364.5 131.5Q393 161 393 211V446Q393 496 364.5 525.5Q336 555 287 555ZM287 667Q391 667 454.5 607.5Q518 548 518 448V209Q518 109 454.5 49.5Q391 -10 287 -10Q182 -10 118.5 49.5Q55 109 55 209V448Q55 551 116 609Q177 667 287 667ZM218 705Q193 705 175.5 722.5Q158 740 158 765Q158 790 175.5 807Q193 824 218 824Q243 824 259.5 807Q276 790 276 765Q276 740 259 722.5Q242 705 218 705ZM357 705Q332 705 315 722.5Q298 740 298 765Q298 790 315 807Q332 824 357 824Q382 824 399 807Q416 790 416 765Q416 740 399 722.5Q382 705 357 705Z" glyph-name="Odieresis" horiz-adv-x="573" unicode="&#214;" /><glyph d="M342 742 286 694 154 804 230 875ZM287 555Q237 555 208.5 526Q180 497 180 446V211Q180 160 208.5 131Q237 102 287 102Q336 102 364.5 131.5Q393 161 393 211V446Q393 496 364.5 525.5Q336 555 287 555ZM287 667Q391 667 454.5 607.5Q518 548 518 448V209Q518 109 454.5 49.5Q391 -10 287 -10Q182 -10 118.5 49.5Q55 109 55 209V448Q55 551 116 609Q177 667 287 667Z" glyph-name="Ograve" horiz-adv-x="573" unicode="&#210;" /><glyph d="M266 870 332 814 209 694 163 734ZM416 864 473 801 338 695 298 740ZM287 555Q237 555 208.5 526Q180 497 180 446V211Q180 160 208.5 131Q237 102 287 102Q336 102 364.5 131.5Q393 161 393 211V446Q393 496 364.5 525.5Q336 555 287 555ZM287 667Q391 667 454.5 607.5Q518 548 518 448V209Q518 109 454.5 49.5Q391 -10 287 -10Q182 -10 118.5 49.5Q55 109 55 209V448Q55 551 116 609Q177 667 287 667Z" glyph-name="Ohungarumlaut" horiz-adv-x="573" unicode="&#336;" /><glyph d="M287 555Q237 555 208.5 526Q180 497 180 446V211Q180 160 208.5 131Q237 102 287 102Q336 102 364.5 131.5Q393 161 393 211V446Q393 496 364.5 525.5Q336 555 287 555ZM287 667Q391 667 454.5 607.5Q518 548 518 448V209Q518 109 454.5 49.5Q391 -10 287 -10Q182 -10 118.5 49.5Q55 109 55 209V448Q55 551 116 609Q177 667 287 667ZM407 721H167V806H407Z" glyph-name="Omacron" horiz-adv-x="573" unicode="&#332;" /><glyph d="M559 0H349V107Q377 113 393 137Q409 161 409 197V446Q409 497 380.5 526Q352 555 302 555Q253 555 224.5 525.5Q196 496 196 446V197Q196 160 211.5 136.5Q227 113 256 107V0H46V82H140Q106 104 88.5 142.5Q71 181 71 235V448Q71 551 132 609Q193 667 302 667Q412 667 473 609Q534 551 534 448V235Q534 182 516.5 143Q499 104 464 82H559Z" glyph-name="Omega" horiz-adv-x="605" unicode="&#8486;" /><glyph d="M374 581 436 706H510L428 542L418 525L191 66L184 47L136 -49H63L129 85L140 103L367 561ZM287 558Q236 558 206.5 528.5Q177 499 177 449V208Q177 158 206.5 128.5Q236 99 287 99Q337 99 366.5 128.5Q396 158 396 208V449Q396 499 366.5 528.5Q337 558 287 558ZM287 667Q391 667 454.5 607.5Q518 548 518 448V209Q518 109 454.5 49.5Q391 -10 287 -10Q182 -10 118.5 49.5Q55 109 55 209V448Q55 551 116 609Q177 667 287 667Z" glyph-name="Oslash" horiz-adv-x="573" unicode="&#216;" /><glyph d="M287 555Q237 555 208.5 526Q180 497 180 446V211Q180 160 208.5 131Q237 102 287 102Q336 102 364.5 131.5Q393 161 393 211V446Q393 496 364.5 525.5Q336 555 287 555ZM287 667Q391 667 454.5 607.5Q518 548 518 448V209Q518 109 454.5 49.5Q391 -10 287 -10Q182 -10 118.5 49.5Q55 109 55 209V448Q55 551 116 609Q177 667 287 667ZM353 776Q367 776 375.5 789.5Q384 803 384 818H446Q447 813 447 808Q447 803 447 793Q447 746 425 721Q403 696 363 696Q349 696 334.5 700Q320 704 305 711L262 732Q251 738 243.5 740Q236 742 230 742Q213 742 202.5 727.5Q192 713 192 699H130Q127 713 126.5 718Q126 723 126 727Q126 769 152.5 796Q179 823 220 823Q233 823 246 819.5Q259 816 273 810L314 790Q332 781 339.5 778.5Q347 776 353 776Z" glyph-name="Otilde" horiz-adv-x="573" unicode="&#213;" /><glyph d="M198 0H73V657H302Q402 657 465.5 597.5Q529 538 529 444Q529 345 466 284.5Q403 224 302 224H198ZM402 441Q402 490 372 519Q342 548 291 548H198V333H291Q342 333 372 362Q402 391 402 441Z" glyph-name="P" horiz-adv-x="558" unicode="P" /><glyph d="M287 667Q391 667 454.5 607.5Q518 548 518 448V209Q518 148 492.5 100Q467 52 420 23L517 -133H373L297 -9Q295 -10 293 -10Q291 -10 287 -10Q182 -10 118.5 49.5Q55 109 55 209V448Q55 551 116 609Q177 667 287 667ZM287 555Q237 555 208.5 526Q180 497 180 446V211Q180 160 208.5 131Q237 102 287 102Q336 102 364.5 131.5Q393 161 393 211V446Q393 496 364.5 525.5Q336 555 287 555Z" glyph-name="Q" horiz-adv-x="574" unicode="Q" /><glyph d="M425 270 533 0H397L302 241Q300 241 298 241Q296 241 294 241H198V0H73V657H304Q403 657 466 600.5Q529 544 529 453Q529 392 502 344Q475 296 425 270ZM402 450Q402 495 372 521.5Q342 548 291 548H198V350H291Q342 350 372 377Q402 404 402 450Z" glyph-name="R" horiz-adv-x="574" unicode="R" /><glyph d="M425 270 533 0H397L302 241Q300 241 298 241Q296 241 294 241H198V0H73V657H304Q403 657 466 600.5Q529 544 529 453Q529 392 502 344Q475 296 425 270ZM402 450Q402 495 372 521.5Q342 548 291 548H198V350H291Q342 350 372 377Q402 404 402 450ZM319 875 395 804 263 694 207 742Z" glyph-name="Racute" horiz-adv-x="574" unicode="&#340;" /><glyph d="M425 270 533 0H397L302 241Q300 241 298 241Q296 241 294 241H198V0H73V657H304Q403 657 466 600.5Q529 544 529 453Q529 392 502 344Q475 296 425 270ZM402 450Q402 495 372 521.5Q342 548 291 548H198V350H291Q342 350 372 377Q402 404 402 450ZM391 827 283 693H230L122 827L170 867L258 789L346 866Z" glyph-name="Rcaron" horiz-adv-x="574" unicode="&#344;" /><glyph d="M479 473V459H357V478Q357 517 331 540.5Q305 564 262 564Q221 564 197 544Q173 524 173 491Q173 466 189 447Q205 428 235 417L328 383Q421 349 457 304Q493 259 493 191Q493 101 431 45.5Q369 -10 268 -10Q164 -10 101 43Q38 96 38 184V206H161V179Q161 139 188.5 116.5Q216 94 265 94Q314 94 342.5 116.5Q371 139 371 177Q371 208 353 229Q335 250 299 263L199 301Q124 329 88 373Q52 417 52 482Q52 562 110.5 614.5Q169 667 262 667Q361 667 420 614.5Q479 562 479 473Z" glyph-name="S" horiz-adv-x="533" unicode="S" /><glyph d="M479 473V459H357V478Q357 517 331 540.5Q305 564 262 564Q221 564 197 544Q173 524 173 491Q173 466 189 447Q205 428 235 417L328 383Q421 349 457 304Q493 259 493 191Q493 101 431 45.5Q369 -10 268 -10Q164 -10 101 43Q38 96 38 184V206H161V179Q161 139 188.5 116.5Q216 94 265 94Q314 94 342.5 116.5Q371 139 371 177Q371 208 353 229Q335 250 299 263L199 301Q124 329 88 373Q52 417 52 482Q52 562 110.5 614.5Q169 667 262 667Q361 667 420 614.5Q479 562 479 473ZM319 875 395 804 263 694 207 742Z" glyph-name="Sacute" horiz-adv-x="533" unicode="&#346;" /><glyph d="M479 473V459H357V478Q357 517 331 540.5Q305 564 262 564Q221 564 197 544Q173 524 173 491Q173 466 189 447Q205 428 235 417L328 383Q421 349 457 304Q493 259 493 191Q493 101 431 45.5Q369 -10 268 -10Q164 -10 101 43Q38 96 38 184V206H161V179Q161 139 188.5 116.5Q216 94 265 94Q314 94 342.5 116.5Q371 139 371 177Q371 208 353 229Q335 250 299 263L199 301Q124 329 88 373Q52 417 52 482Q52 562 110.5 614.5Q169 667 262 667Q361 667 420 614.5Q479 562 479 473ZM400 827 292 693H239L131 827L179 867L267 789L355 866Z" glyph-name="Scaron" horiz-adv-x="533" unicode="&#352;" /><glyph d="M480 473V459H358V478Q358 517 332 540.5Q306 564 263 564Q222 564 198 544Q174 524 174 491Q174 466 190 447Q206 428 236 417L329 383Q422 349 458 304Q494 259 494 191Q494 101 432 45.5Q370 -10 269 -10Q165 -10 102 43Q39 96 39 184V206H162V179Q162 139 189.5 116.5Q217 94 266 94Q315 94 343.5 116.5Q372 139 372 177Q372 208 354 229Q336 250 300 263L200 301Q125 329 89 373Q53 417 53 482Q53 562 111.5 614.5Q170 667 263 667Q362 667 421 614.5Q480 562 480 473ZM272 -97H214L193 -81L221 15H288L271 -40H283Q322 -40 343 -59Q364 -78 364 -112Q364 -147 342 -167Q320 -187 283 -187H171V-130H272Q281 -130 286 -125.5Q291 -121 291 -113Q291 -105 286 -101Q281 -97 272 -97Z" glyph-name="Scedilla" horiz-adv-x="534" unicode="&#350;" /><glyph d="M479 473V459H357V478Q357 517 331 540.5Q305 564 262 564Q221 564 197 544Q173 524 173 491Q173 466 189 447Q205 428 235 417L328 383Q421 349 457 304Q493 259 493 191Q493 101 431 45.5Q369 -10 268 -10Q164 -10 101 43Q38 96 38 184V206H161V179Q161 139 188.5 116.5Q216 94 265 94Q314 94 342.5 116.5Q371 139 371 177Q371 208 353 229Q335 250 299 263L199 301Q124 329 88 373Q52 417 52 482Q52 562 110.5 614.5Q169 667 262 667Q361 667 420 614.5Q479 562 479 473ZM130 734 238 868H291L399 734L352 694L263 772L176 695Z" glyph-name="Scircumflex" horiz-adv-x="533" unicode="&#348;" /><glyph d="M176 545H18V657H457V545H300V0H176Z" glyph-name="T" horiz-adv-x="476" unicode="T" /><glyph d="M422 427V332H55V427ZM176 545H18V657H457V545H300V0H176Z" glyph-name="Tbar" horiz-adv-x="476" unicode="&#358;" /><glyph d="M176 545H18V657H457V545H300V0H176ZM372 827 264 693H211L103 827L151 867L239 789L327 866Z" glyph-name="Tcaron" horiz-adv-x="476" unicode="&#356;" /><glyph d="M73 657H198V545H302Q402 545 465.5 485.5Q529 426 529 331Q529 233 466 172Q403 111 302 111H198V0H73ZM402 329Q402 378 372 406.5Q342 435 291 435H198V221H291Q342 221 372 250Q402 279 402 329Z" glyph-name="Thorn" horiz-adv-x="561" unicode="&#222;" /><glyph d="M395 211V657H519V209Q519 109 457.5 49.5Q396 -10 294 -10Q192 -10 130.5 49.5Q69 109 69 209V657H193V211Q193 160 220 131Q247 102 294 102Q341 102 368 131.5Q395 161 395 211Z" glyph-name="U" horiz-adv-x="588" unicode="U" /><glyph d="M395 211V657H519V209Q519 109 457.5 49.5Q396 -10 294 -10Q192 -10 130.5 49.5Q69 109 69 209V657H193V211Q193 160 220 131Q247 102 294 102Q341 102 368 131.5Q395 161 395 211ZM348 875 424 804 292 694 236 742Z" glyph-name="Uacute" horiz-adv-x="588" unicode="&#218;" /><glyph d="M395 211V657H519V209Q519 109 457.5 49.5Q396 -10 294 -10Q192 -10 130.5 49.5Q69 109 69 209V657H193V211Q193 160 220 131Q247 102 294 102Q341 102 368 131.5Q395 161 395 211ZM340 804V825H412V804Q412 757 378.5 725.5Q345 694 293 694Q241 694 208 725.5Q175 757 175 804V825H247V804Q247 782 259.5 769.5Q272 757 293 757Q315 757 327.5 770Q340 783 340 804Z" glyph-name="Ubreve" horiz-adv-x="588" unicode="&#364;" /><glyph d="M160 734 268 868H321L429 734L382 694L293 772L206 695ZM395 211V657H519V209Q519 109 457.5 49.5Q396 -10 294 -10Q192 -10 130.5 49.5Q69 109 69 209V657H193V211Q193 160 220 131Q247 102 294 102Q341 102 368 131.5Q395 161 395 211Z" glyph-name="Ucircumflex" horiz-adv-x="588" unicode="&#219;" /><glyph d="M395 211V657H519V209Q519 109 457.5 49.5Q396 -10 294 -10Q192 -10 130.5 49.5Q69 109 69 209V657H193V211Q193 160 220 131Q247 102 294 102Q341 102 368 131.5Q395 161 395 211ZM225 705Q200 705 182.5 722.5Q165 740 165 765Q165 790 182.5 807Q200 824 225 824Q250 824 266.5 807Q283 790 283 765Q283 740 266 722.5Q249 705 225 705ZM364 705Q339 705 322 722.5Q305 740 305 765Q305 790 322 807Q339 824 364 824Q389 824 406 807Q423 790 423 765Q423 740 406 722.5Q389 705 364 705Z" glyph-name="Udieresis" horiz-adv-x="588" unicode="&#220;" /><glyph d="M350 742 294 694 162 804 238 875ZM395 211V657H519V209Q519 109 457.5 49.5Q396 -10 294 -10Q192 -10 130.5 49.5Q69 109 69 209V657H193V211Q193 160 220 131Q247 102 294 102Q341 102 368 131.5Q395 161 395 211Z" glyph-name="Ugrave" horiz-adv-x="588" unicode="&#217;" /><glyph d="M284 870 350 814 227 694 181 734ZM434 864 491 801 356 695 316 740ZM395 211V657H519V209Q519 109 457.5 49.5Q396 -10 294 -10Q192 -10 130.5 49.5Q69 109 69 209V657H193V211Q193 160 220 131Q247 102 294 102Q341 102 368 131.5Q395 161 395 211Z" glyph-name="Uhungarumlaut" horiz-adv-x="588" unicode="&#368;" /><glyph d="M395 211V657H519V209Q519 109 457.5 49.5Q396 -10 294 -10Q192 -10 130.5 49.5Q69 109 69 209V657H193V211Q193 160 220 131Q247 102 294 102Q341 102 368 131.5Q395 161 395 211ZM414 721H174V806H414Z" glyph-name="Umacron" horiz-adv-x="588" unicode="&#362;" /><glyph d="M395 211V657H519V209Q519 159 502 117.5Q485 76 453 45Q417 10 401 -20Q385 -50 385 -81Q385 -102 396 -113.5Q407 -125 427 -125H475V-193H412Q366 -193 340 -168.5Q314 -144 314 -102Q314 -76 322.5 -51.5Q331 -27 347 -5Q333 -8 319.5 -9Q306 -10 294 -10Q192 -10 130.5 49.5Q69 109 69 209V657H193V211Q193 160 220 131Q247 102 294 102Q341 102 368 131.5Q395 161 395 211Z" glyph-name="Uogonek" horiz-adv-x="588" unicode="&#370;" /><glyph d="M251 781Q251 760 262.5 747Q274 734 293 734Q313 734 324.5 747Q336 760 336 781Q336 801 324.5 813.5Q313 826 293 826Q274 826 262.5 813.5Q251 801 251 781ZM402 781Q402 736 371.5 707Q341 678 293 678Q246 678 216 707Q186 736 186 781Q186 825 216 854.5Q246 884 293 884Q340 884 371 854.5Q402 825 402 781ZM395 211V657H519V209Q519 109 457.5 49.5Q396 -10 294 -10Q192 -10 130.5 49.5Q69 109 69 209V657H193V211Q193 160 220 131Q247 102 294 102Q341 102 368 131.5Q395 161 395 211Z" glyph-name="Uring" horiz-adv-x="588" unicode="&#366;" /><glyph d="M395 211V657H519V209Q519 109 457.5 49.5Q396 -10 294 -10Q192 -10 130.5 49.5Q69 109 69 209V657H193V211Q193 160 220 131Q247 102 294 102Q341 102 368 131.5Q395 161 395 211ZM360 776Q374 776 382.5 789.5Q391 803 391 818H453Q454 813 454 808Q454 803 454 793Q454 746 432 721Q410 696 370 696Q356 696 341.5 700Q327 704 312 711L269 732Q258 738 250.5 740Q243 742 237 742Q220 742 209.5 727.5Q199 713 199 699H137Q134 713 133.5 718Q133 723 133 727Q133 769 159.5 796Q186 823 227 823Q240 823 253 819.5Q266 816 280 810L321 790Q339 781 346.5 778.5Q354 776 360 776Z" glyph-name="Utilde" horiz-adv-x="588" unicode="&#360;" /><glyph d="M267 184 383 657H509L330 0H197L18 657H150Z" glyph-name="V" horiz-adv-x="527" unicode="V" /><glyph d="M506 216 584 657H703L564 0H449L363 445L278 0H164L25 657H150L227 217L309 657H424Z" glyph-name="W" horiz-adv-x="727" unicode="W" /><glyph d="M420 875 496 804 364 694 308 742ZM506 216 584 657H703L564 0H449L363 445L278 0H164L25 657H150L227 217L309 657H424Z" glyph-name="Wacute" horiz-adv-x="727" unicode="&#7810;" /><glyph d="M229 734 337 868H390L498 734L451 694L362 772L275 695ZM506 216 584 657H703L564 0H449L363 445L278 0H164L25 657H150L227 217L309 657H424Z" glyph-name="Wcircumflex" horiz-adv-x="727" unicode="&#372;" /><glyph d="M506 216 584 657H703L564 0H449L363 445L278 0H164L25 657H150L227 217L309 657H424ZM294 705Q269 705 251.5 722.5Q234 740 234 765Q234 790 251.5 807Q269 824 294 824Q319 824 335.5 807Q352 790 352 765Q352 740 335 722.5Q318 705 294 705ZM433 705Q408 705 391 722.5Q374 740 374 765Q374 790 391 807Q408 824 433 824Q458 824 475 807Q492 790 492 765Q492 740 475 722.5Q458 705 433 705Z" glyph-name="Wdieresis" horiz-adv-x="727" unicode="&#7812;" /><glyph d="M420 742 364 694 232 804 308 875ZM506 216 584 657H703L564 0H449L363 445L278 0H164L25 657H150L227 217L309 657H424Z" glyph-name="Wgrave" horiz-adv-x="727" unicode="&#7808;" /><glyph d="M190 344 22 657H157L265 451L371 657H497L325 346L511 0H377L253 236L136 0H9Z" glyph-name="X" horiz-adv-x="519" unicode="X" /><glyph d="M192 264 7 657H139L257 386L375 657H501L316 266V0H192Z" glyph-name="Y" horiz-adv-x="508" unicode="Y" /><glyph d="M192 264 7 657H139L257 386L375 657H501L316 266V0H192ZM310 875 386 804 254 694 198 742Z" glyph-name="Yacute" horiz-adv-x="508" unicode="&#221;" /><glyph d="M192 264 7 657H139L257 386L375 657H501L316 266V0H192ZM120 734 228 868H281L389 734L342 694L253 772L166 695Z" glyph-name="Ycircumflex" horiz-adv-x="508" unicode="&#374;" /><glyph d="M192 264 7 657H139L257 386L375 657H501L316 266V0H192ZM185 705Q160 705 142.5 722.5Q125 740 125 765Q125 790 142.5 807Q160 824 185 824Q210 824 226.5 807Q243 790 243 765Q243 740 226 722.5Q209 705 185 705ZM324 705Q299 705 282 722.5Q265 740 265 765Q265 790 282 807Q299 824 324 824Q349 824 366 807Q383 790 383 765Q383 740 366 722.5Q349 705 324 705Z" glyph-name="Ydieresis" horiz-adv-x="508" unicode="&#376;" /><glyph d="M284 547H45V657H435V578L187 110H441V0H36V79Z" glyph-name="Z" horiz-adv-x="479" unicode="Z" /><glyph d="M284 547H45V657H435V578L187 110H441V0H36V79ZM294 875 370 804 238 694 182 742Z" glyph-name="Zacute" horiz-adv-x="479" unicode="&#377;" /><glyph d="M284 547H45V657H435V578L187 110H441V0H36V79ZM374 827 266 693H213L105 827L153 867L241 789L329 866Z" glyph-name="Zcaron" horiz-adv-x="479" unicode="&#381;" /><glyph d="M238 706Q210 706 190 726Q170 746 170 775Q170 804 190 823.5Q210 843 238 843Q267 843 287 823.5Q307 804 307 775Q307 746 287 726Q267 706 238 706ZM284 547H45V657H435V578L187 110H441V0H36V79Z" glyph-name="Zdotaccent" horiz-adv-x="479" unicode="&#379;" /><glyph d="M213 -10Q135 -10 90.5 41Q46 92 46 180V310Q46 398 90.5 449Q135 500 213 500Q250 500 281 485.5Q312 471 332 444L341 490H444V0H341L332 46Q312 19 281.5 4.5Q251 -10 213 -10ZM243 95Q279 95 301.5 119Q324 143 324 181V308Q324 347 301.5 371Q279 395 243 395Q208 395 187.5 372Q167 349 167 310V179Q167 141 187.5 118Q208 95 243 95Z" glyph-name="a" horiz-adv-x="506" unicode="a" /><glyph d="M425 0H322L313 43Q294 17 263.5 3.5Q233 -10 196 -10Q121 -10 78.5 26Q36 62 36 127Q36 199 81 237.5Q126 276 209 276H305V332Q305 364 286 383Q267 402 233 402Q200 402 180.5 383.5Q161 365 161 335V323H46V328Q46 406 98.5 453Q151 500 237 500Q323 500 374 451.5Q425 403 425 321ZM158 138Q158 111 175 98Q192 85 227 85Q260 85 280.5 105Q301 125 305 160V192H232Q194 192 176 178.5Q158 165 158 138Z" glyph-name="a.alt" horiz-adv-x="482" /><glyph d="M213 -10Q135 -10 90.5 41Q46 92 46 180V310Q46 398 90.5 449Q135 500 213 500Q250 500 281 485.5Q312 471 332 444L341 490H444V0H341L332 46Q312 19 281.5 4.5Q251 -10 213 -10ZM243 95Q279 95 301.5 119Q324 143 324 181V308Q324 347 301.5 371Q279 395 243 395Q208 395 187.5 372Q167 349 167 310V179Q167 141 187.5 118Q208 95 243 95ZM301 723 377 652 245 542 189 591Z" glyph-name="aacute" horiz-adv-x="506" unicode="&#225;" /><glyph d="M287 723 363 652 231 542 175 591ZM425 0H322L313 43Q294 17 263.5 3.5Q233 -10 196 -10Q121 -10 78.5 26Q36 62 36 127Q36 199 81 237.5Q126 276 209 276H305V332Q305 364 286 383Q267 402 233 402Q200 402 180.5 383.5Q161 365 161 335V323H46V328Q46 406 98.5 453Q151 500 237 500Q323 500 374 451.5Q425 403 425 321ZM158 138Q158 111 175 98Q192 85 227 85Q260 85 280.5 105Q301 125 305 160V192H232Q194 192 176 178.5Q158 165 158 138Z" glyph-name="aacute.alt" horiz-adv-x="482" /><glyph d="M213 -10Q135 -10 90.5 41Q46 92 46 180V310Q46 398 90.5 449Q135 500 213 500Q250 500 281 485.5Q312 471 332 444L341 490H444V0H341L332 46Q312 19 281.5 4.5Q251 -10 213 -10ZM243 95Q279 95 301.5 119Q324 143 324 181V308Q324 347 301.5 371Q279 395 243 395Q208 395 187.5 372Q167 349 167 310V179Q167 141 187.5 118Q208 95 243 95ZM291 652V673H363V652Q363 605 329.5 573.5Q296 542 244 542Q192 542 159 573.5Q126 605 126 652V673H198V652Q198 631 210.5 618Q223 605 244 605Q265 605 278 618Q291 631 291 652Z" glyph-name="abreve" horiz-adv-x="506" unicode="&#259;" /><glyph d="M425 0H322L313 43Q294 17 263.5 3.5Q233 -10 196 -10Q121 -10 78.5 26Q36 62 36 127Q36 199 81 237.5Q126 276 209 276H305V332Q305 364 286 383Q267 402 233 402Q200 402 180.5 383.5Q161 365 161 335V323H46V328Q46 406 98.5 453Q151 500 237 500Q323 500 374 451.5Q425 403 425 321ZM158 138Q158 111 175 98Q192 85 227 85Q260 85 280.5 105Q301 125 305 160V192H232Q194 192 176 178.5Q158 165 158 138ZM278 652V673H350V652Q350 605 316.5 573.5Q283 542 231 542Q179 542 146 573.5Q113 605 113 652V673H185V652Q185 631 197.5 618Q210 605 231 605Q252 605 265 618Q278 631 278 652Z" glyph-name="abreve.alt" horiz-adv-x="482" /><glyph d="M213 -10Q135 -10 90.5 41Q46 92 46 180V310Q46 398 90.5 449Q135 500 213 500Q250 500 281 485.5Q312 471 332 444L341 490H444V0H341L332 46Q312 19 281.5 4.5Q251 -10 213 -10ZM243 95Q279 95 301.5 119Q324 143 324 181V308Q324 347 301.5 371Q279 395 243 395Q208 395 187.5 372Q167 349 167 310V179Q167 141 187.5 118Q208 95 243 95ZM111 582 219 715H272L380 582L333 542L244 619L157 543Z" glyph-name="acircumflex" horiz-adv-x="506" unicode="&#226;" /><glyph d="M100 582 208 715H261L369 582L322 542L233 619L146 543ZM425 0H322L313 43Q294 17 263.5 3.5Q233 -10 196 -10Q121 -10 78.5 26Q36 62 36 127Q36 199 81 237.5Q126 276 209 276H305V332Q305 364 286 383Q267 402 233 402Q200 402 180.5 383.5Q161 365 161 335V323H46V328Q46 406 98.5 453Q151 500 237 500Q323 500 374 451.5Q425 403 425 321ZM158 138Q158 111 175 98Q192 85 227 85Q260 85 280.5 105Q301 125 305 160V192H232Q194 192 176 178.5Q158 165 158 138Z" glyph-name="acircumflex.alt" horiz-adv-x="482" /><glyph d="M132 723 208 652 76 542 20 591Z" glyph-name="acute" horiz-adv-x="228" unicode="&#180;" /><glyph d="M132 875 208 804 76 694 20 742Z" glyph-name="acute.case" horiz-adv-x="228" /><glyph d="M213 -10Q135 -10 90.5 41Q46 92 46 180V310Q46 398 90.5 449Q135 500 213 500Q250 500 281 485.5Q312 471 332 444L341 490H444V0H341L332 46Q312 19 281.5 4.5Q251 -10 213 -10ZM243 95Q279 95 301.5 119Q324 143 324 181V308Q324 347 301.5 371Q279 395 243 395Q208 395 187.5 372Q167 349 167 310V179Q167 141 187.5 118Q208 95 243 95ZM176 551Q151 551 133.5 569Q116 587 116 612Q116 636 133.5 653Q151 670 176 670Q201 670 217.5 653.5Q234 637 234 612Q234 587 217 569Q200 551 176 551ZM315 551Q291 551 273.5 569Q256 587 256 612Q256 637 273 653.5Q290 670 315 670Q340 670 357 653.5Q374 637 374 612Q374 587 356.5 569Q339 551 315 551Z" glyph-name="adieresis" horiz-adv-x="506" unicode="&#228;" /><glyph d="M164 551Q139 551 121.5 569Q104 587 104 612Q104 636 121.5 653Q139 670 164 670Q189 670 205.5 653.5Q222 637 222 612Q222 587 205 569Q188 551 164 551ZM303 551Q279 551 261.5 569Q244 587 244 612Q244 637 261 653.5Q278 670 303 670Q328 670 345 653.5Q362 637 362 612Q362 587 344.5 569Q327 551 303 551ZM425 0H322L313 43Q294 17 263.5 3.5Q233 -10 196 -10Q121 -10 78.5 26Q36 62 36 127Q36 199 81 237.5Q126 276 209 276H305V332Q305 364 286 383Q267 402 233 402Q200 402 180.5 383.5Q161 365 161 335V323H46V328Q46 406 98.5 453Q151 500 237 500Q323 500 374 451.5Q425 403 425 321ZM158 138Q158 111 175 98Q192 85 227 85Q260 85 280.5 105Q301 125 305 160V192H232Q194 192 176 178.5Q158 165 158 138Z" glyph-name="adieresis.alt" horiz-adv-x="482" /><glyph d="M197 -10Q122 -10 79.5 28Q37 66 37 135Q37 204 81.5 240Q126 276 210 276H306V326Q306 361 287 381.5Q268 402 234 402Q202 402 182 381.5Q162 361 162 329V317H45V322Q45 403 96 451.5Q147 500 230 500Q274 500 309.5 484.5Q345 469 368 439Q392 469 427 484.5Q462 500 503 500Q589 500 642 446Q695 392 695 303V222H424V172Q424 134 446.5 110Q469 86 505 86Q540 86 560.5 107Q581 128 581 163V170H695V166Q695 86 642.5 38Q590 -10 503 -10Q452 -10 412.5 11.5Q373 33 350 74Q331 34 291 12Q251 -10 197 -10ZM159 138Q159 111 176 98Q193 85 227 85Q264 85 285 108.5Q306 132 306 172V192H233Q194 192 176.5 178.5Q159 165 159 138ZM503 404Q467 404 445.5 380Q424 356 424 317V305H581V317Q581 356 559.5 380Q538 404 503 404Z" glyph-name="ae" horiz-adv-x="737" unicode="&#230;" /><glyph d="M213 -10Q135 -10 90.5 41Q46 92 46 180V310Q46 398 90.5 449Q135 500 213 500Q250 500 281 485.5Q312 471 332 444L341 490H444V0H341L332 46Q312 19 281.5 4.5Q251 -10 213 -10ZM243 95Q279 95 301.5 119Q324 143 324 181V308Q324 347 301.5 371Q279 395 243 395Q208 395 187.5 372Q167 349 167 310V179Q167 141 187.5 118Q208 95 243 95ZM302 591 246 542 114 652 190 723Z" glyph-name="agrave" horiz-adv-x="506" unicode="&#224;" /><glyph d="M425 0H322L313 43Q294 17 263.5 3.5Q233 -10 196 -10Q121 -10 78.5 26Q36 62 36 127Q36 199 81 237.5Q126 276 209 276H305V332Q305 364 286 383Q267 402 233 402Q200 402 180.5 383.5Q161 365 161 335V323H46V328Q46 406 98.5 453Q151 500 237 500Q323 500 374 451.5Q425 403 425 321ZM158 138Q158 111 175 98Q192 85 227 85Q260 85 280.5 105Q301 125 305 160V192H232Q194 192 176 178.5Q158 165 158 138ZM291 591 235 542 103 652 179 723Z" glyph-name="agrave.alt" horiz-adv-x="482" /><glyph d="M213 -10Q135 -10 90.5 41Q46 92 46 180V310Q46 398 90.5 449Q135 500 213 500Q250 500 281 485.5Q312 471 332 444L341 490H444V0H341L332 46Q312 19 281.5 4.5Q251 -10 213 -10ZM243 95Q279 95 301.5 119Q324 143 324 181V308Q324 347 301.5 371Q279 395 243 395Q208 395 187.5 372Q167 349 167 310V179Q167 141 187.5 118Q208 95 243 95ZM365 563H125V648H365Z" glyph-name="amacron" horiz-adv-x="506" unicode="&#257;" /><glyph d="M425 0H322L313 43Q294 17 263.5 3.5Q233 -10 196 -10Q121 -10 78.5 26Q36 62 36 127Q36 199 81 237.5Q126 276 209 276H305V332Q305 364 286 383Q267 402 233 402Q200 402 180.5 383.5Q161 365 161 335V323H46V328Q46 406 98.5 453Q151 500 237 500Q323 500 374 451.5Q425 403 425 321ZM158 138Q158 111 175 98Q192 85 227 85Q260 85 280.5 105Q301 125 305 160V192H232Q194 192 176 178.5Q158 165 158 138ZM352 563H112V648H352Z" glyph-name="amacron.alt" horiz-adv-x="482" /><glyph d="M289 386H560V290H491V191Q491 101 430.5 45.5Q370 -10 271 -10Q168 -10 106.5 42Q45 94 45 181Q45 238 72 279.5Q99 321 150 343Q109 364 87 400.5Q65 437 65 485Q65 567 120.5 617Q176 667 268 667Q359 667 415 613Q471 559 471 473V458H353V473Q353 513 331.5 536.5Q310 560 272 560Q233 560 211 538Q189 516 189 476Q189 431 214 408.5Q239 386 289 386ZM171 192Q171 144 197.5 119Q224 94 275 94Q321 94 347.5 120Q374 146 374 191V290H288Q231 290 201 264.5Q171 239 171 192Z" glyph-name="ampersand" horiz-adv-x="589" unicode="&amp;" /><glyph d="M248 92Q282 92 307.5 110.5Q333 129 359 172L439 121Q402 59 347 24.5Q292 -10 231 -10Q138 -10 86.5 36Q35 82 35 167Q35 249 98.5 300.5Q162 352 272 361L274 287Q221 280 190.5 251.5Q160 223 160 180Q160 137 182.5 114.5Q205 92 248 92ZM453 133 371 179 463 360H577ZM297 667Q378 667 425 621.5Q472 576 472 497V470H359V498Q359 530 342 548.5Q325 567 295 567Q268 567 252 550Q236 533 236 505Q236 479 247 450Q258 421 280 392L568 0H434L182 339Q148 385 133 425Q118 465 118 504Q118 578 167 622.5Q216 667 297 667Z" glyph-name="ampersand.alt" horiz-adv-x="600" /><glyph d="M213 -10Q135 -10 90.5 41Q46 92 46 180V310Q46 398 90.5 449Q135 500 213 500Q250 500 281 485.5Q312 471 332 444L341 490H444V0H341L332 46Q312 19 281.5 4.5Q251 -10 213 -10ZM243 95Q279 95 301.5 119Q324 143 324 181V308Q324 347 301.5 371Q279 395 243 395Q208 395 187.5 372Q167 349 167 310V179Q167 141 187.5 118Q208 95 243 95ZM340 -92Q340 -108 351 -116.5Q362 -125 382 -125H430V-193H367Q321 -193 295 -171.5Q269 -150 269 -113Q269 -75 292.5 -42Q316 -9 354 9L406 0Q374 -21 357 -45Q340 -69 340 -92Z" glyph-name="aogonek" horiz-adv-x="506" unicode="&#261;" /><glyph d="M425 0H322L313 43Q294 17 263.5 3.5Q233 -10 196 -10Q121 -10 78.5 26Q36 62 36 127Q36 199 81 237.5Q126 276 209 276H305V332Q305 364 286 383Q267 402 233 402Q200 402 180.5 383.5Q161 365 161 335V323H46V328Q46 406 98.5 453Q151 500 237 500Q323 500 374 451.5Q425 403 425 321ZM158 138Q158 111 175 98Q192 85 227 85Q260 85 280.5 105Q301 125 305 160V192H232Q194 192 176 178.5Q158 165 158 138ZM321 -92Q321 -108 332 -116.5Q343 -125 363 -125H411V-193H348Q302 -193 276 -171.5Q250 -150 250 -113Q250 -75 273.5 -42Q297 -9 335 9L387 0Q355 -21 338 -45Q321 -69 321 -92Z" glyph-name="aogonek.alt" horiz-adv-x="482" /><glyph d="M365 435Q383 435 400 450Q417 465 438 500L505 450Q477 397 441 368.5Q405 340 366 340Q342 340 321.5 347Q301 354 261 380Q228 400 217 404Q206 408 195 408Q176 408 158 393Q140 378 111 335L49 386Q75 439 115 470Q155 501 198 501Q221 501 242.5 494Q264 487 300 465Q329 444 341 439.5Q353 435 365 435ZM365 216Q383 216 400 231Q417 246 438 281L505 232Q477 179 441 150.5Q405 122 366 122Q341 122 320 129.5Q299 137 261 161Q234 179 221 184Q208 189 195 189Q176 189 158 174.5Q140 160 111 117L49 168Q75 220 115 251Q155 282 198 282Q221 282 242.5 275Q264 268 300 246Q329 225 341 220.5Q353 216 365 216Z" glyph-name="approxequal" horiz-adv-x="553" unicode="&#8776;" /><glyph d="M213 -10Q135 -10 90.5 41Q46 92 46 180V310Q46 398 90.5 449Q135 500 213 500Q250 500 281 485.5Q312 471 332 444L341 490H444V0H341L332 46Q312 19 281.5 4.5Q251 -10 213 -10ZM243 95Q279 95 301.5 119Q324 143 324 181V308Q324 347 301.5 371Q279 395 243 395Q208 395 187.5 372Q167 349 167 310V179Q167 141 187.5 118Q208 95 243 95ZM202 630Q202 610 213.5 597Q225 584 244 584Q263 584 275 597Q287 610 287 630Q287 650 275.5 662.5Q264 675 244 675Q225 675 213.5 662.5Q202 650 202 630ZM353 630Q353 586 322 556.5Q291 527 244 527Q197 527 167 556.5Q137 586 137 630Q137 674 167 703.5Q197 733 244 733Q291 733 322 703.5Q353 674 353 630Z" glyph-name="aring" horiz-adv-x="506" unicode="&#229;" /><glyph d="M189 630Q189 610 200.5 597Q212 584 231 584Q250 584 262 597Q274 610 274 630Q274 650 262.5 662.5Q251 675 231 675Q212 675 200.5 662.5Q189 650 189 630ZM340 630Q340 586 309 556.5Q278 527 231 527Q184 527 154 556.5Q124 586 124 630Q124 674 154 703.5Q184 733 231 733Q278 733 309 703.5Q340 674 340 630ZM425 0H322L313 43Q294 17 263.5 3.5Q233 -10 196 -10Q121 -10 78.5 26Q36 62 36 127Q36 199 81 237.5Q126 276 209 276H305V332Q305 364 286 383Q267 402 233 402Q200 402 180.5 383.5Q161 365 161 335V323H46V328Q46 406 98.5 453Q151 500 237 500Q323 500 374 451.5Q425 403 425 321ZM158 138Q158 111 175 98Q192 85 227 85Q260 85 280.5 105Q301 125 305 160V192H232Q194 192 176 178.5Q158 165 158 138Z" glyph-name="aring.alt" horiz-adv-x="482" /><glyph d="M42 327 183 657H280L420 327H305L227 529L151 327Z" glyph-name="asciicircum" horiz-adv-x="463" unicode="^" /><glyph d="M352 326Q370 326 386.5 340Q403 354 426 390L493 341Q465 288 429 259.5Q393 231 353 231Q328 231 306 239Q284 247 249 271Q216 291 204.5 295Q193 299 182 299Q164 299 146.5 284.5Q129 270 99 226L37 277Q63 330 102.5 361Q142 392 186 392Q210 392 233 384Q256 376 287 355Q317 335 328.5 330.5Q340 326 352 326Z" glyph-name="asciitilde" horiz-adv-x="529" unicode="~" /><glyph d="M155 350V386L183 480L116 408L85 390L43 462L74 480L169 504L74 528L43 547L84 617L116 599L183 525L155 621V657H238V621L211 528L276 599L308 617L349 547L318 528L221 504L318 480L349 462L307 390L276 408L210 478L238 386V350Z" glyph-name="asterisk" horiz-adv-x="392" unicode="*" /><glyph d="M336 39Q275 39 246.5 81.5Q218 124 230 194L246 278Q259 351 292.5 387Q326 423 382 423Q415 423 439.5 409.5Q464 396 476 372L493 415H578L532 156Q524 114 537.5 94.5Q551 75 589 75Q623 75 640.5 100Q658 125 658 175V320Q658 418 589 476.5Q520 535 404 535Q287 535 218.5 476.5Q150 418 150 320V143Q150 45 218.5 -13.5Q287 -72 404 -72H495V-164H404Q242 -164 146 -77.5Q50 9 50 155V308Q50 459 142.5 543Q235 627 404 627Q565 627 661 540.5Q757 454 757 308V187Q757 93 710 41.5Q663 -10 584 -10Q520 -10 480.5 16.5Q441 43 434 92Q415 67 389 53Q363 39 336 39ZM375 119Q399 119 415.5 136.5Q432 154 438 183L455 276Q460 304 446 322Q432 340 403 340Q381 340 366 323Q351 306 345 275L329 184Q323 153 335 136Q347 119 375 119Z" glyph-name="at" horiz-adv-x="800" unicode="@" /><glyph d="M213 -10Q135 -10 90.5 41Q46 92 46 180V310Q46 398 90.5 449Q135 500 213 500Q250 500 281 485.5Q312 471 332 444L341 490H444V0H341L332 46Q312 19 281.5 4.5Q251 -10 213 -10ZM243 95Q279 95 301.5 119Q324 143 324 181V308Q324 347 301.5 371Q279 395 243 395Q208 395 187.5 372Q167 349 167 310V179Q167 141 187.5 118Q208 95 243 95ZM311 627Q325 627 333.5 640.5Q342 654 342 669H404Q405 664 405 658.5Q405 653 405 644Q405 597 383 572Q361 547 321 547Q307 547 292.5 551Q278 555 263 562L220 583Q209 589 201.5 591Q194 593 188 593Q171 593 160.5 578.5Q150 564 150 550H88Q86 556 85 564Q84 572 84 578Q84 620 110.5 647Q137 674 178 674Q191 674 204 670.5Q217 667 231 661L272 641Q290 632 297.5 629.5Q305 627 311 627Z" glyph-name="atilde" horiz-adv-x="506" unicode="&#227;" /><glyph d="M425 0H322L313 43Q294 17 263.5 3.5Q233 -10 196 -10Q121 -10 78.5 26Q36 62 36 127Q36 199 81 237.5Q126 276 209 276H305V332Q305 364 286 383Q267 402 233 402Q200 402 180.5 383.5Q161 365 161 335V323H46V328Q46 406 98.5 453Q151 500 237 500Q323 500 374 451.5Q425 403 425 321ZM158 138Q158 111 175 98Q192 85 227 85Q260 85 280.5 105Q301 125 305 160V192H232Q194 192 176 178.5Q158 165 158 138ZM299 627Q313 627 321.5 640.5Q330 654 330 669H392Q393 664 393 658.5Q393 653 393 644Q393 597 371 572Q349 547 309 547Q295 547 280.5 551Q266 555 251 562L208 583Q197 589 189.5 591Q182 593 176 593Q159 593 148.5 578.5Q138 564 138 550H76Q74 556 73 564Q72 572 72 578Q72 620 98.5 647Q125 674 166 674Q179 674 192 670.5Q205 667 219 661L260 641Q278 632 285.5 629.5Q293 627 299 627Z" glyph-name="atilde.alt" horiz-adv-x="482" /><glyph d="M61 0H165L173 46Q194 19 224.5 4.5Q255 -10 293 -10Q371 -10 415 41Q459 92 459 180V310Q459 398 415 449Q371 500 293 500Q259 500 230.5 488Q202 476 182 453V677H61ZM263 95Q227 95 204.5 119Q182 143 182 181V308Q182 347 204.5 371Q227 395 263 395Q298 395 318.5 372Q339 349 339 310V179Q339 141 318.5 118Q298 95 263 95Z" glyph-name="b" horiz-adv-x="506" unicode="b" /><glyph d="M441 -111 146 765H26L321 -111Z" glyph-name="backslash" horiz-adv-x="467" unicode="\" /><glyph d="M70 765H185V-111H70Z" glyph-name="bar" horiz-adv-x="255" unicode="|" /><glyph d="M98 83V209Q98 243 81.5 261.5Q65 280 33 280H23V375H33Q64 375 81 393.5Q98 412 98 447V571Q98 663 151.5 714Q205 765 303 765H320V654H303Q264 654 243.5 632Q223 610 223 570V445Q223 406 207.5 376Q192 346 162 328Q192 308 207.5 278Q223 248 223 210V84Q223 44 243.5 22Q264 0 303 0H320V-111H303Q205 -111 151.5 -60Q98 -9 98 83Z" glyph-name="braceleft" horiz-adv-x="358" unicode="{" /><glyph d="M260 83V209Q260 243 276.5 261.5Q293 280 325 280H335V375H325Q294 375 277 393.5Q260 412 260 447V571Q260 663 206.5 714Q153 765 55 765H38V654H55Q94 654 114.5 632Q135 610 135 570V445Q135 406 150.5 376Q166 346 196 328Q166 308 150.5 278Q135 248 135 210V84Q135 44 114.5 22Q94 0 55 0H38V-111H55Q153 -111 206.5 -60Q260 -9 260 83Z" glyph-name="braceright" horiz-adv-x="358" unicode="}" /><glyph d="M292 653H194V1H292V-111H70V765H292Z" glyph-name="bracketleft" horiz-adv-x="329" unicode="[" /><glyph d="M37 653H135V1H37V-111H259V765H37Z" glyph-name="bracketright" horiz-adv-x="329" unicode="]" /><glyph d="M185 652V673H257V652Q257 605 223.5 573.5Q190 542 138 542Q86 542 53 573.5Q20 605 20 652V673H92V652Q92 631 104.5 618Q117 605 138 605Q159 605 172 618Q185 631 185 652Z" glyph-name="breve" horiz-adv-x="277" unicode="&#728;" /><glyph d="M185 804V825H257V804Q257 757 223.5 725.5Q190 694 138 694Q86 694 53 725.5Q20 757 20 804V825H92V804Q92 782 104.5 769.5Q117 757 138 757Q160 757 172.5 770Q185 783 185 804Z" glyph-name="breve.case" horiz-adv-x="277" /><glyph d="M195 405H71V765H195ZM195 -111H71V249H195Z" glyph-name="brokenbar" horiz-adv-x="266" unicode="&#166;" /><glyph d="M176 164Q131 164 98.5 196.5Q66 229 66 274Q66 320 98.5 353Q131 386 176 386Q223 386 255.5 353.5Q288 321 288 274Q288 229 255 196.5Q222 164 176 164Z" glyph-name="bullet" horiz-adv-x="354" unicode="&#8226;" /><glyph d="M320 168V184H436V178Q436 91 383.5 40.5Q331 -10 242 -10Q152 -10 98 43.5Q44 97 44 187V303Q44 392 98.5 446Q153 500 242 500Q330 500 383 450Q436 400 436 317V313H320V325Q320 358 298.5 378Q277 398 242 398Q207 398 186 374Q165 350 165 311V178Q165 139 186 115.5Q207 92 242 92Q279 92 299.5 112Q320 132 320 168Z" glyph-name="c" horiz-adv-x="474" unicode="c" /><glyph d="M296 723 372 652 240 542 184 591ZM320 168V184H436V178Q436 91 383.5 40.5Q331 -10 242 -10Q152 -10 98 43.5Q44 97 44 187V303Q44 392 98.5 446Q153 500 242 500Q330 500 383 450Q436 400 436 317V313H320V325Q320 358 298.5 378Q277 398 242 398Q207 398 186 374Q165 350 165 311V178Q165 139 186 115.5Q207 92 242 92Q279 92 299.5 112Q320 132 320 168Z" glyph-name="cacute" horiz-adv-x="474" unicode="&#263;" /><glyph d="M289 676 181 542H128L20 676L68 716L156 639L244 715Z" glyph-name="caron" horiz-adv-x="309" unicode="&#711;" /><glyph d="M289 827 181 693H128L20 827L68 867L156 789L244 866Z" glyph-name="caron.case" horiz-adv-x="309" /><glyph d="M36 523 59 677H165L100 523Z" glyph-name="caron.salt" horiz-adv-x="206" /><glyph d="M374 676 266 542H213L105 676L153 716L241 639L329 715ZM320 168V184H436V178Q436 91 383.5 40.5Q331 -10 242 -10Q152 -10 98 43.5Q44 97 44 187V303Q44 392 98.5 446Q153 500 242 500Q330 500 383 450Q436 400 436 317V313H320V325Q320 358 298.5 378Q277 398 242 398Q207 398 186 374Q165 350 165 311V178Q165 139 186 115.5Q207 92 242 92Q279 92 299.5 112Q320 132 320 168Z" glyph-name="ccaron" horiz-adv-x="474" unicode="&#269;" /><glyph d="M320 168V184H436V178Q436 91 383.5 40.5Q331 -10 242 -10Q152 -10 98 43.5Q44 97 44 187V303Q44 392 98.5 446Q153 500 242 500Q330 500 383 450Q436 400 436 317V313H320V325Q320 358 298.5 378Q277 398 242 398Q207 398 186 374Q165 350 165 311V178Q165 139 186 115.5Q207 92 242 92Q279 92 299.5 112Q320 132 320 168ZM244 -97H186L165 -81L193 15H260L243 -40H255Q294 -40 315 -59Q336 -78 336 -112Q336 -147 314 -167Q292 -187 255 -187H143V-130H244Q253 -130 258 -125.5Q263 -121 263 -113Q263 -105 258 -101Q253 -97 244 -97Z" glyph-name="ccedilla" horiz-adv-x="474" unicode="&#231;" /><glyph d="M106 582 214 715H267L375 582L328 542L239 619L152 543ZM320 168V184H436V178Q436 91 383.5 40.5Q331 -10 242 -10Q152 -10 98 43.5Q44 97 44 187V303Q44 392 98.5 446Q153 500 242 500Q330 500 383 450Q436 400 436 317V313H320V325Q320 358 298.5 378Q277 398 242 398Q207 398 186 374Q165 350 165 311V178Q165 139 186 115.5Q207 92 242 92Q279 92 299.5 112Q320 132 320 168Z" glyph-name="ccircumflex" horiz-adv-x="474" unicode="&#265;" /><glyph d="M320 168V184H436V178Q436 91 383.5 40.5Q331 -10 242 -10Q152 -10 98 43.5Q44 97 44 187V303Q44 392 98.5 446Q153 500 242 500Q330 500 383 450Q436 400 436 317V313H320V325Q320 358 298.5 378Q277 398 242 398Q207 398 186 374Q165 350 165 311V178Q165 139 186 115.5Q207 92 242 92Q279 92 299.5 112Q320 132 320 168ZM238 546Q210 546 190 566Q170 586 170 614Q170 643 190 663Q210 683 238 683Q267 683 287 663Q307 643 307 614Q307 585 287 565.5Q267 546 238 546Z" glyph-name="cdotaccent" horiz-adv-x="474" unicode="&#267;" /><glyph d="M128 -97H70L49 -81L77 15H144L127 -40H139Q178 -40 199 -59Q220 -78 220 -112Q220 -147 198 -167Q176 -187 139 -187H27V-130H128Q137 -130 142 -125.5Q147 -121 147 -113Q147 -105 142 -101Q137 -97 128 -97Z" glyph-name="cedilla" horiz-adv-x="240" unicode="&#184;" /><glyph d="M198 580V667H289V579Q358 567 397.5 519Q437 471 437 400V397H321V408Q321 441 299.5 461.5Q278 482 243 482Q207 482 186.5 458.5Q166 435 166 396V262Q166 223 186.5 199.5Q207 176 243 176Q280 176 300.5 196.5Q321 217 321 253V270H437V263Q437 189 397.5 140Q358 91 289 78V-10H198V78Q127 91 86 142.5Q45 194 45 271V387Q45 464 86 515.5Q127 567 198 580Z" glyph-name="cent" horiz-adv-x="481" unicode="&#162;" /><glyph d="M106 288V333H162V288Q196 280 215.5 256Q235 232 235 196V195H156V201Q156 213 150 220Q144 227 134 227Q123 227 117.5 219Q112 211 112 196V132Q112 118 117.5 110Q123 102 134 102Q145 102 150.5 109.5Q156 117 156 131V139H235V137Q235 99 215.5 73Q196 47 162 40V-5H106V40Q71 48 51 74Q31 100 31 138V191Q31 229 51 254.5Q71 280 106 288Z" glyph-name="cent.denominator" horiz-adv-x="260" unicode="&#63017;" /><glyph d="M106 618V662H162V618Q196 610 215.5 585.5Q235 561 235 525V524H156V530Q156 542 150 549Q144 556 134 556Q123 556 117.5 548Q112 540 112 525V462Q112 447 118 439Q124 431 134 431Q145 431 150.5 438.5Q156 446 156 460V469H235V466Q235 428 215.5 402.5Q196 377 162 369V324H106V369Q71 377 51 403Q31 429 31 467V520Q31 558 51 584Q71 610 106 618Z" glyph-name="cent.numerator" horiz-adv-x="260" unicode="&#63022;" /><glyph d="M20 582 128 715H181L289 582L242 542L153 619L66 543Z" glyph-name="circumflex" horiz-adv-x="309" unicode="&#710;" /><glyph d="M20 734 128 868H181L289 734L242 694L153 772L66 695Z" glyph-name="circumflex.case" horiz-adv-x="309" /><glyph d="M128 -10Q99 -10 78 10.5Q57 31 57 60Q57 90 77.5 110.5Q98 131 128 131Q157 131 177.5 110.5Q198 90 198 60Q198 31 177.5 10.5Q157 -10 128 -10ZM128 359Q99 359 78 379.5Q57 400 57 429Q57 458 78 479Q99 500 128 500Q157 500 177.5 479Q198 458 198 429Q198 400 177.5 379.5Q157 359 128 359Z" glyph-name="colon" horiz-adv-x="256" unicode=":" /><glyph d="M25 -94 71 118H195L99 -94Z" glyph-name="comma" horiz-adv-x="241" unicode="," /><glyph d="M18 -47 43 73H120L63 -47Z" glyph-name="comma.denominator" horiz-adv-x="145" unicode="&#63071;" /><glyph d="M17 282 43 402H120L63 282Z" glyph-name="comma.numerator" horiz-adv-x="146" unicode="&#63083;" /><glyph d="M10 -235 48 -50H171L84 -235Z" glyph-name="commaaccent" horiz-adv-x="187" unicode="&#63171;" /><glyph d="M24 -228 65 -41H188L98 -228Z" glyph-name="commaaccent.salt" horiz-adv-x="218" /><glyph d="M443 276V288H540V283Q540 215 497 174.5Q454 134 381 134Q309 134 264.5 177.5Q220 221 220 293V364Q220 436 264.5 480Q309 524 381 524Q453 524 496.5 484Q540 444 540 378V376H443V385Q443 409 427 423.5Q411 438 383 438Q354 438 337 419.5Q320 401 320 371V287Q320 256 337.5 237Q355 218 383 218Q412 218 427.5 233Q443 248 443 276ZM380 -11Q239 -11 140 87.5Q41 186 41 327Q41 468 140 567.5Q239 667 380 667Q521 667 620.5 567.5Q720 468 720 327Q720 186 620.5 87.5Q521 -11 380 -11ZM380 604Q267 604 187.5 523Q108 442 108 327Q108 213 187.5 132.5Q267 52 380 52Q493 52 572.5 132.5Q652 213 652 327Q652 442 572.5 523Q493 604 380 604Z" glyph-name="copyright" horiz-adv-x="761" unicode="&#169;" /><glyph d="M305 423Q265 423 241.5 400Q218 377 218 338V329Q218 290 241.5 266.5Q265 243 305 243Q345 243 368.5 266.5Q392 290 392 329V338Q392 377 368 400Q344 423 305 423ZM305 534Q395 534 453 480Q511 426 511 339V327Q511 240 453 186Q395 132 305 132Q214 132 156.5 186Q99 240 99 327V339Q99 429 154.5 481.5Q210 534 305 534ZM163 401 44 513 120 588 229 471ZM382 471 490 588 566 513 448 401ZM229 195 120 78 44 153 163 265ZM448 265 566 153 490 78 382 195Z" glyph-name="currency" horiz-adv-x="610" unicode="&#164;" /><glyph d="M444 0H341L332 46Q312 19 281.5 4.5Q251 -10 213 -10Q135 -10 90.5 41Q46 92 46 180V310Q46 398 90.5 449Q135 500 213 500Q247 500 275.5 488Q304 476 324 453V677H444ZM243 95Q279 95 301.5 119Q324 143 324 181V308Q324 347 301.5 371Q279 395 243 395Q208 395 187.5 372Q167 349 167 310V179Q167 141 187.5 118Q208 95 243 95Z" glyph-name="d" horiz-adv-x="506" unicode="d" /><glyph d="M271 657V556L261 490H392V411H250L271 -10V-111H155V-10L175 411H34V490H164L155 556V657Z" glyph-name="dagger" horiz-adv-x="426" unicode="&#8224;" /><glyph d="M281 657V556L276 490H402V411H270L260 273L270 135H402V56H276L281 -10V-111H166V-10L170 56H45V135H177L186 273L177 411H45V490H170L166 556V657Z" glyph-name="daggerdbl" horiz-adv-x="447" unicode="&#8225;" /><glyph d="M472 523 495 677H601L536 523ZM444 0H341L332 46Q312 19 281.5 4.5Q251 -10 213 -10Q135 -10 90.5 41Q46 92 46 180V310Q46 398 90.5 449Q135 500 213 500Q247 500 275.5 488Q304 476 324 453V677H444ZM243 95Q279 95 301.5 119Q324 143 324 181V308Q324 347 301.5 371Q279 395 243 395Q208 395 187.5 372Q167 349 167 310V179Q167 141 187.5 118Q208 95 243 95Z" glyph-name="dcaron" horiz-adv-x="506" unicode="&#271;" /><glyph d="M505 613V541H228V613ZM444 0H341L332 46Q312 19 281.5 4.5Q251 -10 213 -10Q135 -10 90.5 41Q46 92 46 180V310Q46 398 90.5 449Q135 500 213 500Q247 500 275.5 488Q304 476 324 453V677H444ZM243 95Q279 95 301.5 119Q324 143 324 181V308Q324 347 301.5 371Q279 395 243 395Q208 395 187.5 372Q167 349 167 310V179Q167 141 187.5 118Q208 95 243 95Z" glyph-name="dcroat" horiz-adv-x="506" unicode="&#273;" /><glyph d="M220 301Q144 301 91 354.5Q38 408 38 484Q38 560 91 613.5Q144 667 220 667Q296 667 350 613.5Q404 560 404 484Q404 408 350.5 354.5Q297 301 220 301ZM220 578Q183 578 157 550.5Q131 523 131 484Q131 444 157 416.5Q183 389 220 389Q258 389 284 416.5Q310 444 310 484Q310 523 283.5 550.5Q257 578 220 578Z" glyph-name="degree" horiz-adv-x="442" unicode="&#176;" /><glyph d="M80 551Q55 551 37.5 569Q20 587 20 612Q20 636 37.5 653Q55 670 80 670Q105 670 121.5 653.5Q138 637 138 612Q138 587 121 569Q104 551 80 551ZM219 551Q195 551 177.5 569Q160 587 160 612Q160 637 177 653.5Q194 670 219 670Q244 670 261 653.5Q278 637 278 612Q278 587 260.5 569Q243 551 219 551Z" glyph-name="dieresis" horiz-adv-x="298" unicode="&#168;" /><glyph d="M80 705Q55 705 37.5 722.5Q20 740 20 765Q20 790 37.5 807Q55 824 80 824Q105 824 121.5 807Q138 790 138 765Q138 740 121 722.5Q104 705 80 705ZM219 705Q194 705 177 722.5Q160 740 160 765Q160 790 177 807Q194 824 219 824Q244 824 261 807Q278 790 278 765Q278 740 261 722.5Q244 705 219 705Z" glyph-name="dieresis.case" horiz-adv-x="298" /><glyph d="M452 276H47V379H452ZM249 423Q224 423 206 441Q188 459 188 484Q188 509 206 527Q224 545 249 545Q274 545 292 527Q310 509 310 484Q310 459 292 441Q274 423 249 423ZM249 110Q225 110 206.5 128.5Q188 147 188 171Q188 196 206 214.5Q224 233 249 233Q274 233 292 214.5Q310 196 310 171Q310 147 291.5 128.5Q273 110 249 110Z" glyph-name="divide" horiz-adv-x="499" unicode="&#247;" /><glyph d="M461 474V460H338V479Q338 517 315 540.5Q292 564 254 564Q217 564 195.5 544Q174 524 174 491Q174 466 187.5 447Q201 428 226 418L313 384Q404 347 439 302Q474 257 474 190Q474 110 426.5 57Q379 4 299 -7V-108H208V-5Q129 8 84 58Q39 108 39 183V205H162V178Q162 138 187 116Q212 94 257 94Q301 94 326.5 116.5Q352 139 352 177Q352 207 336.5 228Q321 249 290 262L196 299Q124 327 88.5 373Q53 419 53 482Q53 551 95 600.5Q137 650 208 663V765H299V663Q374 651 417.5 600Q461 549 461 474Z" glyph-name="dollar" horiz-adv-x="514" unicode="$" /><glyph d="M242 232V225H162V237Q162 251 154.5 259Q147 267 134 267Q122 267 115 260Q108 253 108 242Q108 232 113.5 224Q119 216 129 212L165 198Q213 179 231 156Q249 133 249 98Q249 58 225 30.5Q201 3 161 -3V-54H105V-2Q66 6 44 32Q22 58 22 96V108H102V93Q102 77 110.5 69Q119 61 136 61Q152 61 161 68.5Q170 76 170 90Q170 102 164 109Q158 116 142 123L94 143Q62 156 45.5 179Q29 202 29 234Q29 269 49.5 295.5Q70 322 105 330V382H161V330Q199 322 220.5 296Q242 270 242 232Z" glyph-name="dollar.denominator" horiz-adv-x="272" unicode="&#63018;" /><glyph d="M242 562V554H162V566Q162 580 154.5 588Q147 596 134 596Q122 596 115 589.5Q108 583 108 571Q108 561 113.5 553Q119 545 129 541L165 527Q212 510 230.5 486.5Q249 463 249 427Q249 387 225 359.5Q201 332 161 326V275H105V328Q66 335 44 360.5Q22 386 22 425V438H102V422Q102 406 110.5 398Q119 390 136 390Q152 390 161 397.5Q170 405 170 419Q170 430 165 437.5Q160 445 142 453L94 473Q62 486 45.5 509Q29 532 29 564Q29 599 49.5 625Q70 651 105 659V711H161V659Q199 652 220.5 626Q242 600 242 562Z" glyph-name="dollar.numerator" horiz-adv-x="271" unicode="&#63023;" /><glyph d="M88 546Q60 546 40 566Q20 586 20 614Q20 643 40 663Q60 683 88 683Q117 683 137 663Q157 643 157 614Q157 585 137 565.5Q117 546 88 546Z" glyph-name="dotaccent" horiz-adv-x="177" unicode="&#729;" /><glyph d="M88 706Q60 706 40 726Q20 746 20 775Q20 804 40 823.5Q60 843 88 843Q117 843 137 823.5Q157 804 157 775Q157 746 137 726Q117 706 88 706Z" glyph-name="dotaccent.case" horiz-adv-x="177" /><glyph d="M61 0V490H182V0Z" glyph-name="dotlessi" horiz-adv-x="243" unicode="&#305;" /><glyph d="M319 163V170H433V166Q433 86 380.5 38Q328 -10 242 -10Q153 -10 98.5 43.5Q44 97 44 185V303Q44 392 98.5 446Q153 500 242 500Q328 500 380.5 446Q433 392 433 303V222H162V172Q162 134 184.5 110Q207 86 243 86Q278 86 298.5 107Q319 128 319 163ZM242 404Q205 404 183.5 380Q162 356 162 317V305H319V317Q319 356 298 380Q277 404 242 404Z" glyph-name="e" horiz-adv-x="475" unicode="e" /><glyph d="M295 723 371 652 239 542 183 591ZM319 163V170H433V166Q433 86 380.5 38Q328 -10 242 -10Q153 -10 98.5 43.5Q44 97 44 185V303Q44 392 98.5 446Q153 500 242 500Q328 500 380.5 446Q433 392 433 303V222H162V172Q162 134 184.5 110Q207 86 243 86Q278 86 298.5 107Q319 128 319 163ZM242 404Q205 404 183.5 380Q162 356 162 317V305H319V317Q319 356 298 380Q277 404 242 404Z" glyph-name="eacute" horiz-adv-x="475" unicode="&#233;" /><glyph d="M319 163V170H433V166Q433 86 380.5 38Q328 -10 242 -10Q153 -10 98.5 43.5Q44 97 44 185V303Q44 392 98.5 446Q153 500 242 500Q328 500 380.5 446Q433 392 433 303V222H162V172Q162 134 184.5 110Q207 86 243 86Q278 86 298.5 107Q319 128 319 163ZM242 404Q205 404 183.5 380Q162 356 162 317V305H319V317Q319 356 298 380Q277 404 242 404ZM285 652V673H357V652Q357 605 323.5 573.5Q290 542 238 542Q186 542 153 573.5Q120 605 120 652V673H192V652Q192 631 204.5 618Q217 605 238 605Q259 605 272 618Q285 631 285 652Z" glyph-name="ebreve" horiz-adv-x="475" unicode="&#277;" /><glyph d="M374 676 266 542H213L105 676L153 716L241 639L329 715ZM319 163V170H433V166Q433 86 380.5 38Q328 -10 242 -10Q153 -10 98.5 43.5Q44 97 44 185V303Q44 392 98.5 446Q153 500 242 500Q328 500 380.5 446Q433 392 433 303V222H162V172Q162 134 184.5 110Q207 86 243 86Q278 86 298.5 107Q319 128 319 163ZM242 404Q205 404 183.5 380Q162 356 162 317V305H319V317Q319 356 298 380Q277 404 242 404Z" glyph-name="ecaron" horiz-adv-x="475" unicode="&#283;" /><glyph d="M105 582 213 715H266L374 582L327 542L238 619L151 543ZM319 163V170H433V166Q433 86 380.5 38Q328 -10 242 -10Q153 -10 98.5 43.5Q44 97 44 185V303Q44 392 98.5 446Q153 500 242 500Q328 500 380.5 446Q433 392 433 303V222H162V172Q162 134 184.5 110Q207 86 243 86Q278 86 298.5 107Q319 128 319 163ZM242 404Q205 404 183.5 380Q162 356 162 317V305H319V317Q319 356 298 380Q277 404 242 404Z" glyph-name="ecircumflex" horiz-adv-x="475" unicode="&#234;" /><glyph d="M171 551Q146 551 128.5 569Q111 587 111 612Q111 636 128.5 653Q146 670 171 670Q196 670 212.5 653.5Q229 637 229 612Q229 587 212 569Q195 551 171 551ZM310 551Q286 551 268.5 569Q251 587 251 612Q251 637 268 653.5Q285 670 310 670Q335 670 352 653.5Q369 637 369 612Q369 587 351.5 569Q334 551 310 551ZM319 163V170H433V166Q433 86 380.5 38Q328 -10 242 -10Q153 -10 98.5 43.5Q44 97 44 185V303Q44 392 98.5 446Q153 500 242 500Q328 500 380.5 446Q433 392 433 303V222H162V172Q162 134 184.5 110Q207 86 243 86Q278 86 298.5 107Q319 128 319 163ZM242 404Q205 404 183.5 380Q162 356 162 317V305H319V317Q319 356 298 380Q277 404 242 404Z" glyph-name="edieresis" horiz-adv-x="475" unicode="&#235;" /><glyph d="M319 163V170H433V166Q433 86 380.5 38Q328 -10 242 -10Q153 -10 98.5 43.5Q44 97 44 185V303Q44 392 98.5 446Q153 500 242 500Q328 500 380.5 446Q433 392 433 303V222H162V172Q162 134 184.5 110Q207 86 243 86Q278 86 298.5 107Q319 128 319 163ZM242 404Q205 404 183.5 380Q162 356 162 317V305H319V317Q319 356 298 380Q277 404 242 404ZM238 546Q210 546 190 566Q170 586 170 614Q170 643 190 663Q210 683 238 683Q267 683 287 663Q307 643 307 614Q307 585 287 565.5Q267 546 238 546Z" glyph-name="edotaccent" horiz-adv-x="475" unicode="&#279;" /><glyph d="M319 163V170H433V166Q433 86 380.5 38Q328 -10 242 -10Q153 -10 98.5 43.5Q44 97 44 185V303Q44 392 98.5 446Q153 500 242 500Q328 500 380.5 446Q433 392 433 303V222H162V172Q162 134 184.5 110Q207 86 243 86Q278 86 298.5 107Q319 128 319 163ZM242 404Q205 404 183.5 380Q162 356 162 317V305H319V317Q319 356 298 380Q277 404 242 404ZM296 591 240 542 108 652 184 723Z" glyph-name="egrave" horiz-adv-x="475" unicode="&#232;" /><glyph d="M265 667Q358 667 414 616.5Q470 566 470 484Q470 434 450.5 397.5Q431 361 394 341Q437 322 460 281.5Q483 241 483 184Q483 96 423.5 43Q364 -10 265 -10Q167 -10 107.5 43Q48 96 48 184Q48 241 70.5 281Q93 321 136 340Q98 360 78.5 397Q59 434 59 484Q59 566 115.5 616.5Q172 667 265 667ZM265 290Q220 290 197 264.5Q174 239 174 191Q174 144 197.5 118.5Q221 93 265 93Q309 93 332.5 118.5Q356 144 356 191Q356 239 332.5 264.5Q309 290 265 290ZM265 560Q225 560 203.5 538Q182 516 182 475Q182 430 203 406.5Q224 383 265 383Q306 383 326.5 406.5Q347 430 347 475Q347 515 325.5 537.5Q304 560 265 560Z" glyph-name="eight" horiz-adv-x="530" unicode="8" /><glyph d="M145 333Q193 333 222 307.5Q251 282 251 240Q251 215 242.5 197.5Q234 180 217 170Q237 161 247.5 141.5Q258 122 258 93Q258 49 227 22Q196 -5 145 -5Q94 -5 63 22Q32 49 32 93Q32 121 42 141Q52 161 72 170Q55 179 46 197Q37 215 37 240Q37 282 66.5 307.5Q96 333 145 333ZM144 138Q129 138 121.5 128Q114 118 114 98Q114 79 122 69Q130 59 145 59Q160 59 168 69Q176 79 176 98Q176 118 168 128Q160 138 144 138ZM144 266Q131 266 124.5 258Q118 250 118 233Q118 214 124.5 205Q131 196 145 196Q158 196 164.5 205Q171 214 171 233Q171 250 164.5 258Q158 266 144 266Z" glyph-name="eight.denominator" horiz-adv-x="290" unicode="&#63069;" /><glyph d="M144 181Q192 181 221 155.5Q250 130 250 88Q250 63 241.5 45.5Q233 28 216 18Q236 9 246.5 -10.5Q257 -30 257 -59Q257 -103 226 -130Q195 -157 144 -157Q93 -157 62.5 -130Q32 -103 32 -59Q32 -30 42 -10.5Q52 9 72 18Q55 27 46 44.5Q37 62 37 88Q37 130 66 155.5Q95 181 144 181ZM144 -14Q129 -14 121.5 -24Q114 -34 114 -54Q114 -74 121.5 -84Q129 -94 144 -94Q159 -94 167 -83.5Q175 -73 175 -54Q175 -34 167 -24Q159 -14 144 -14ZM144 114Q130 114 123.5 106Q117 98 117 81Q117 62 123.5 53Q130 44 144 44Q157 44 163.5 53Q170 62 170 81Q170 98 163.5 106Q157 114 144 114Z" glyph-name="eight.inferior" horiz-adv-x="289" unicode="&#8328;" /><glyph d="M144 662Q192 662 221 636.5Q250 611 250 569Q250 544 241.5 526.5Q233 509 216 499Q236 491 246.5 471Q257 451 257 422Q257 378 226 351Q195 324 144 324Q93 324 62.5 351Q32 378 32 422Q32 451 42 470.5Q52 490 72 499Q55 508 46 525.5Q37 543 37 569Q37 611 66 636.5Q95 662 144 662ZM144 467Q129 467 121.5 457Q114 447 114 427Q114 408 121.5 398Q129 388 144 388Q159 388 167 398Q175 408 175 427Q175 447 167 457Q159 467 144 467ZM144 595Q130 595 123.5 587Q117 579 117 562Q117 544 124 534.5Q131 525 144 525Q157 525 163.5 534Q170 543 170 562Q170 579 163.5 587Q157 595 144 595Z" glyph-name="eight.numerator" horiz-adv-x="289" unicode="&#63081;" /><glyph d="M143 813Q191 813 220 787.5Q249 762 249 720Q249 696 240.5 678.5Q232 661 215 650Q235 640 245.5 620.5Q256 601 256 573Q256 529 225 502Q194 475 143 475Q92 475 61 502Q30 529 30 573Q30 601 40 621Q50 641 70 650Q53 659 44 677Q35 695 35 720Q35 762 64.5 787.5Q94 813 143 813ZM142 618Q127 618 119.5 608Q112 598 112 578Q112 559 120 549Q128 539 143 539Q158 539 166 549Q174 559 174 578Q174 598 166 608Q158 618 142 618ZM142 746Q129 746 122 737.5Q115 729 115 713Q115 694 122 685Q129 676 143 676Q156 676 162.5 685Q169 694 169 713Q169 729 162 737.5Q155 746 142 746Z" glyph-name="eight.superior" horiz-adv-x="286" unicode="&#8312;" /><glyph d="M273 667Q366 667 422 616.5Q478 566 478 484Q478 434 458 397.5Q438 361 401 341Q444 322 467 282Q490 242 490 184Q490 96 430.5 43Q371 -10 273 -10Q175 -10 115 43Q55 96 55 184Q55 241 78 281Q101 321 144 340Q106 361 86 397.5Q66 434 66 484Q66 566 122.5 616.5Q179 667 273 667ZM272 290Q228 290 205 264.5Q182 239 182 191Q182 144 205.5 118.5Q229 93 273 93Q317 93 340.5 118.5Q364 144 364 191Q364 239 340.5 264.5Q317 290 272 290ZM272 560Q232 560 210.5 538Q189 516 189 475Q189 430 210.5 406.5Q232 383 273 383Q313 383 334 406.5Q355 430 355 475Q355 515 333 537.5Q311 560 272 560Z" glyph-name="eight.tab" horiz-adv-x="546" /><glyph d="M115 -10Q87 -10 67 10Q47 30 47 58Q47 87 66.5 107Q86 127 115 127Q144 127 164 107Q184 87 184 58Q184 29 164 9.5Q144 -10 115 -10ZM326 -10Q297 -10 277 10Q257 30 257 58Q257 87 277 107Q297 127 326 127Q355 127 374.5 107Q394 87 394 58Q394 30 374.5 10Q355 -10 326 -10ZM536 -10Q508 -10 488 10Q468 30 468 58Q468 87 487.5 107Q507 127 536 127Q565 127 585 107Q605 87 605 58Q605 29 585 9.5Q565 -10 536 -10Z" glyph-name="ellipsis" horiz-adv-x="652" unicode="&#8230;" /><glyph d="M319 163V170H433V166Q433 86 380.5 38Q328 -10 242 -10Q153 -10 98.5 43.5Q44 97 44 185V303Q44 392 98.5 446Q153 500 242 500Q328 500 380.5 446Q433 392 433 303V222H162V172Q162 134 184.5 110Q207 86 243 86Q278 86 298.5 107Q319 128 319 163ZM242 404Q205 404 183.5 380Q162 356 162 317V305H319V317Q319 356 298 380Q277 404 242 404ZM359 563H119V648H359Z" glyph-name="emacron" horiz-adv-x="475" unicode="&#275;" /><glyph d="M740 217H59V305H740Z" glyph-name="emdash" horiz-adv-x="799" unicode="&#8212;" /><glyph d="M472 217H59V305H472Z" glyph-name="endash" horiz-adv-x="531" unicode="&#8211;" /><glyph d="M319 163V170H433V166Q433 125 418.5 91.5Q404 58 375 33Q342 3 326.5 -24.5Q311 -52 311 -81Q311 -102 321.5 -113.5Q332 -125 352 -125H400V-193H337Q291 -193 265.5 -168.5Q240 -144 240 -102Q240 -77 247.5 -53.5Q255 -30 270 -8Q260 -9 253.5 -9.5Q247 -10 242 -10Q153 -10 98.5 43.5Q44 97 44 185V303Q44 392 98.5 446Q153 500 242 500Q328 500 380.5 446Q433 392 433 303V222H162V172Q162 134 184.5 110Q207 86 243 86Q278 86 298.5 107Q319 128 319 163ZM242 404Q205 404 183.5 380Q162 356 162 317V305H319V317Q319 356 298 380Q277 404 242 404Z" glyph-name="eogonek" horiz-adv-x="476" unicode="&#281;" /><glyph d="M459 392H61V499H459ZM459 160H61V267H459Z" glyph-name="equal" horiz-adv-x="520" unicode="=" /><glyph d="M382 52Q441 52 494 75.5Q547 99 585 142H668Q622 71 545.5 30Q469 -11 382 -11Q241 -11 142 87.5Q43 186 43 327Q43 468 142.5 567.5Q242 667 383 667Q524 667 623.5 567.5Q723 468 723 327V319H194V128Q232 91 280.5 71.5Q329 52 382 52ZM383 604Q330 604 281.5 584Q233 564 194 526V380H572V525Q533 563 484.5 583.5Q436 604 383 604Z" glyph-name="estimated" horiz-adv-x="760" unicode="&#8494;" /><glyph d="M424 675V612L377 597Q410 554 427 497.5Q444 441 444 372V187Q444 98 389.5 44Q335 -10 245 -10Q155 -10 100 43.5Q45 97 45 187V303Q45 395 91 447.5Q137 500 217 500Q251 500 278 487.5Q305 475 324 450Q318 486 307 514.5Q296 543 280 566L183 535V598L237 615L181 677H303L332 646ZM245 398Q208 398 186.5 374Q165 350 165 311V178Q165 139 186.5 115.5Q208 92 245 92Q281 92 302.5 115.5Q324 139 324 178V311Q324 350 302.5 374Q281 398 245 398Z" glyph-name="eth" horiz-adv-x="499" unicode="&#240;" /><glyph d="M189 657V490L164 187H91L65 490V657ZM127 -10Q98 -10 77.5 10.5Q57 31 57 60Q57 90 77.5 110.5Q98 131 127 131Q157 131 177.5 110.5Q198 90 198 60Q198 31 177.5 10.5Q157 -10 127 -10Z" glyph-name="exclam" horiz-adv-x="255" unicode="!" /><glyph d="M184 -167V0L159 303H86L60 0V-167ZM122 500Q93 500 72.5 479.5Q52 459 52 430Q52 400 72.5 379.5Q93 359 122 359Q152 359 172.5 379.5Q193 400 193 430Q193 459 172.5 479.5Q152 500 122 500Z" glyph-name="exclamdown" horiz-adv-x="244" unicode="&#161;" /><glyph d="M95 384H26V485H95V501Q95 587 141 632Q187 677 275 677H325V575H289Q252 575 233.5 558Q215 541 215 508V485H319V384H215V0H95Z" glyph-name="f" horiz-adv-x="341" unicode="f" /><glyph d="M387 384H215V0H95V384H26V485H95V501Q95 587 141 632Q187 677 275 677H325V575H289Q252 575 233.5 558Q215 541 215 508V485H387V501Q387 587 433 632Q479 677 568 677H617V575H581Q545 575 526.5 558Q508 541 508 508V485H612V384H508V0H387Z" glyph-name="f_f" horiz-adv-x="633" unicode="&#64256;" /><glyph d="M95 384H26V485H95V501Q95 587 141 632Q187 677 275 677H325V575H289Q252 575 233.5 558Q215 541 215 508V485H388V501Q388 588 434 632.5Q480 677 569 677H797V575H582Q545 575 526.5 558Q508 541 508 508V485H797V0H676V384H508V0H388V384H215V0H95Z" glyph-name="f_f_i" horiz-adv-x="858" unicode="&#64259;" /><glyph d="M388 384H215V0H95V384H26V485H95V501Q95 587 141 632Q187 677 275 677H325V575H289Q252 575 233.5 558Q215 541 215 508V485H388V501Q388 588 434 632.5Q480 677 569 677H797V0H676V575H582Q545 575 526.5 558Q508 541 508 508V485H610V384H508V0H388Z" glyph-name="f_f_l" horiz-adv-x="859" unicode="&#64260;" /><glyph d="M515 677V575H289Q252 575 233.5 558Q215 541 215 508V485H515V0H395V384H215V0H95V384H26V485H95V501Q95 587 141 632Q187 677 275 677Z" glyph-name="fi" horiz-adv-x="576" unicode="&#64257;" /><glyph d="M66 657H451V548H179V381Q199 398 227 406.5Q255 415 289 415Q377 415 429.5 359Q482 303 482 208Q482 108 423 49Q364 -10 264 -10Q167 -10 108 38Q49 86 49 166V182H169V167Q169 134 193 115Q217 96 259 96Q305 96 329.5 124.5Q354 153 354 205Q354 258 331 286Q308 314 264 314Q238 314 217 306.5Q196 299 173 278H66Z" glyph-name="five" horiz-adv-x="522" unicode="5" /><glyph d="M40 328H243V259H112V197Q121 204 134 208Q147 212 163 212Q207 212 233.5 183.5Q260 155 260 106Q260 55 229 25Q198 -5 146 -5Q95 -5 64 19.5Q33 44 33 85V93H111V88Q111 75 119 68.5Q127 62 143 62Q159 62 167.5 73Q176 84 176 104Q176 127 168.5 137.5Q161 148 144 148Q136 148 129 145Q122 142 110 132H40Z" glyph-name="five.denominator" horiz-adv-x="287" unicode="&#63066;" /><glyph d="M39 176H242V107H111V45Q120 52 133 56Q146 60 162 60Q206 60 232.5 31.5Q259 3 259 -46Q259 -97 228 -127Q197 -157 145 -157Q94 -157 63 -132.5Q32 -108 32 -67V-59H110V-64Q110 -77 118 -83.5Q126 -90 142 -90Q158 -90 166.5 -79Q175 -68 175 -48Q175 -25 167.5 -14.5Q160 -4 143 -4Q135 -4 128 -7Q121 -10 109 -20H39Z" glyph-name="five.inferior" horiz-adv-x="286" unicode="&#8325;" /><glyph d="M39 657H242V588H111V526Q120 534 133.5 538Q147 542 162 542Q206 542 232.5 513.5Q259 485 259 436Q259 385 228 354.5Q197 324 145 324Q94 324 63 349Q32 374 32 415V423H110V417Q110 404 118 397.5Q126 391 142 391Q158 391 166.5 402Q175 413 175 433Q175 456 167.5 466.5Q160 477 143 477Q136 477 129.5 475Q123 473 109 462H39Z" glyph-name="five.numerator" horiz-adv-x="286" unicode="&#63078;" /><glyph d="M38 808H241V739H110V677Q119 684 132 688Q145 692 162 692Q206 692 232 663.5Q258 635 258 586Q258 535 227 505Q196 475 144 475Q93 475 62 499.5Q31 524 31 565V573H109V568Q109 555 117 548.5Q125 542 141 542Q157 542 165.5 553Q174 564 174 584Q174 607 166.5 617.5Q159 628 142 628Q134 628 127 625Q120 622 108 612H38Z" glyph-name="five.superior" horiz-adv-x="284" unicode="&#8309;" /><glyph d="M77 657H462V548H190V381Q210 398 238 406.5Q266 415 300 415Q389 415 441 359.5Q493 304 493 208Q493 108 434 49Q375 -10 276 -10Q179 -10 119.5 38Q60 86 60 166V182H180V167Q180 134 204 115Q228 96 271 96Q316 96 340.5 124.5Q365 153 365 205Q365 258 342 286Q319 314 275 314Q249 314 227.5 306Q206 298 184 278H77Z" glyph-name="five.tab" horiz-adv-x="546" /><glyph d="M95 384H26V485H95V501Q95 587 141 632Q187 677 275 677H515V0H395V575H289Q252 575 233.5 558Q215 541 215 508V485H317V384H215V0H95Z" glyph-name="fl" horiz-adv-x="578" unicode="&#64258;" /><glyph d="M145 279H76V380H145V485Q145 572 190.5 616.5Q236 661 325 661H374V560H338Q302 560 283.5 543Q265 526 265 492V380H369V279H265V-11Q265 -97 219 -142Q173 -187 84 -187H35V-85H71Q108 -85 126.5 -68Q145 -51 145 -18Z" glyph-name="florin" horiz-adv-x="416" unicode="&#402;" /><glyph d="M31 259 306 657H453V245H524V140H453V0H330V140H31ZM330 513 145 245H330Z" glyph-name="four" horiz-adv-x="558" unicode="4" /><glyph d="M20 141 152 328H245V131H280V64H245V0H165V64H20ZM165 233 93 131H165Z" glyph-name="four.denominator" horiz-adv-x="306" unicode="&#63065;" /><glyph d="M20 -11 152 176H245V-21H280V-88H245V-152H165V-88H20ZM165 81 93 -21H165Z" glyph-name="four.inferior" horiz-adv-x="306" unicode="&#8324;" /><glyph d="M20 470 152 657H245V460H280V393H245V329H165V393H20ZM165 562 93 460H165Z" glyph-name="four.numerator" horiz-adv-x="306" unicode="&#63077;" /><glyph d="M20 621 152 808H245V611H279V544H245V480H164V544H20ZM164 713 92 611H164Z" glyph-name="four.superior" horiz-adv-x="305" unicode="&#8308;" /><glyph d="M24 259 299 657H446V245H517V140H446V0H323V140H24ZM323 513 138 245H323Z" glyph-name="four.tab" horiz-adv-x="546" /><glyph d="M-160 0 32 330 214 657H308L116 328L-67 0Z" glyph-name="fraction" horiz-adv-x="147" unicode="&#8260;" /><glyph d="M51 433H111V657H511V545H236V433H393V343H236V286H393V196H236V0H111V196H51V286H111V343H51Z" glyph-name="franc" horiz-adv-x="546" unicode="&#8355;" /><glyph d="M213 9Q135 9 90.5 60Q46 111 46 199V310Q46 398 90.5 449Q135 500 213 500Q250 500 281 485.5Q312 471 332 444L341 490H444V-16Q444 -99 390.5 -148Q337 -197 248 -197Q160 -197 106 -153.5Q52 -110 52 -40V-36H168V-45Q168 -71 189 -86.5Q210 -102 246 -102Q284 -102 304 -80.5Q324 -59 324 -20V55Q304 33 275.5 21Q247 9 213 9ZM243 114Q279 114 301.5 138Q324 162 324 201V308Q324 347 301.5 371Q279 395 243 395Q208 395 187.5 372Q167 349 167 310V199Q167 160 187.5 137Q208 114 243 114Z" glyph-name="g" horiz-adv-x="506" unicode="g" /><glyph d="M213 9Q135 9 90.5 60Q46 111 46 199V310Q46 398 90.5 449Q135 500 213 500Q250 500 281 485.5Q312 471 332 444L341 490H444V-16Q444 -99 390.5 -148Q337 -197 248 -197Q160 -197 106 -153.5Q52 -110 52 -40V-36H168V-45Q168 -71 189 -86.5Q210 -102 246 -102Q284 -102 304 -80.5Q324 -59 324 -20V55Q304 33 275.5 21Q247 9 213 9ZM243 114Q279 114 301.5 138Q324 162 324 201V308Q324 347 301.5 371Q279 395 243 395Q208 395 187.5 372Q167 349 167 310V199Q167 160 187.5 137Q208 114 243 114ZM293 652V673H365V652Q365 605 331.5 573.5Q298 542 246 542Q194 542 161 573.5Q128 605 128 652V673H200V652Q200 631 212.5 618Q225 605 246 605Q267 605 280 618Q293 631 293 652Z" glyph-name="gbreve" horiz-adv-x="506" unicode="&#287;" /><glyph d="M113 582 221 715H274L382 582L335 542L246 619L159 543ZM213 9Q135 9 90.5 60Q46 111 46 199V310Q46 398 90.5 449Q135 500 213 500Q250 500 281 485.5Q312 471 332 444L341 490H444V-16Q444 -99 390.5 -148Q337 -197 248 -197Q160 -197 106 -153.5Q52 -110 52 -40V-36H168V-45Q168 -71 189 -86.5Q210 -102 246 -102Q284 -102 304 -80.5Q324 -59 324 -20V55Q304 33 275.5 21Q247 9 213 9ZM243 114Q279 114 301.5 138Q324 162 324 201V308Q324 347 301.5 371Q279 395 243 395Q208 395 187.5 372Q167 349 167 310V199Q167 160 187.5 137Q208 114 243 114Z" glyph-name="gcircumflex" horiz-adv-x="506" unicode="&#285;" /><glyph d="M213 9Q135 9 90.5 60Q46 111 46 199V310Q46 398 90.5 449Q135 500 213 500Q250 500 281 485.5Q312 471 332 444L341 490H444V-16Q444 -99 390.5 -148Q337 -197 248 -197Q160 -197 106 -153.5Q52 -110 52 -40V-36H168V-45Q168 -71 189 -86.5Q210 -102 246 -102Q284 -102 304 -80.5Q324 -59 324 -20V55Q304 33 275.5 21Q247 9 213 9ZM243 114Q279 114 301.5 138Q324 162 324 201V308Q324 347 301.5 371Q279 395 243 395Q208 395 187.5 372Q167 349 167 310V199Q167 160 187.5 137Q208 114 243 114ZM246 546Q218 546 198 566Q178 586 178 614Q178 643 198 663Q218 683 246 683Q275 683 295 663Q315 643 315 614Q315 585 295 565.5Q275 546 246 546Z" glyph-name="gdotaccent" horiz-adv-x="506" unicode="&#289;" /><glyph d="M267 0H234V99H250Q297 99 323.5 126.5Q350 154 350 201Q350 248 323.5 276Q297 304 253 304H234V403H245Q287 403 311 426.5Q335 450 335 492Q335 533 315 555Q295 577 257 577Q218 577 199 555Q180 533 180 487V0H61V480Q61 575 112.5 626Q164 677 258 677Q349 677 403.5 630Q458 583 458 504Q458 452 433 414.5Q408 377 361 359V357Q415 338 444.5 295Q474 252 474 191Q474 105 417 52.5Q360 0 267 0Z" glyph-name="germandbls" horiz-adv-x="512" unicode="&#223;" /><glyph d="M208 591 152 542 20 652 96 723Z" glyph-name="grave" horiz-adv-x="228" unicode="`" /><glyph d="M208 742 152 694 20 804 96 875Z" glyph-name="grave.case" horiz-adv-x="228" /><glyph d="M60 521 452 381V268L60 128V237L313 321L60 406Z" glyph-name="greater" horiz-adv-x="492" unicode="&gt;" /><glyph d="M62 100H460V176H62ZM62 203 460 317V414L62 528V427L321 370L62 310Z" glyph-name="greaterequal" horiz-adv-x="519" unicode="&#8805;" /><glyph d="M330 398H241L183 233L241 68H330L285 233ZM195 398H106L44 233L106 68H195L146 233Z" glyph-name="guillemotleft" horiz-adv-x="381" unicode="&#171;" /><glyph d="M51 398H140L198 233L140 68H51L96 233ZM186 398H275L337 233L275 68H186L235 233Z" glyph-name="guillemotright" horiz-adv-x="381" unicode="&#187;" /><glyph d="M220 398H121L43 233L121 68H220L155 233Z" glyph-name="guilsinglleft" horiz-adv-x="269" unicode="&#8249;" /><glyph d="M49 398H148L226 233L148 68H49L114 233Z" glyph-name="guilsinglright" horiz-adv-x="269" unicode="&#8250;" /><glyph d="M182 308V0H61V677H182V451Q203 475 232.5 487.5Q262 500 297 500Q374 500 416.5 451.5Q459 403 459 317V0H339V310Q339 349 318.5 372Q298 395 263 395Q227 395 204.5 371Q182 347 182 308Z" glyph-name="h" horiz-adv-x="517" unicode="h" /><glyph d="M279 613V541H2V613ZM182 308V0H61V677H182V451Q203 475 232.5 487.5Q262 500 297 500Q374 500 416.5 451.5Q459 403 459 317V0H339V310Q339 349 318.5 372Q298 395 263 395Q227 395 204.5 371Q182 347 182 308Z" glyph-name="hbar" horiz-adv-x="517" unicode="&#295;" /><glyph d="M-13 735 95 868H148L256 735L209 695L120 772L33 696ZM182 308V0H61V677H182V451Q203 475 232.5 487.5Q262 500 297 500Q374 500 416.5 451.5Q459 403 459 317V0H339V310Q339 349 318.5 372Q298 395 263 395Q227 395 204.5 371Q182 347 182 308Z" glyph-name="hcircumflex" horiz-adv-x="517" unicode="&#293;" /><glyph d="M123 717 189 662 66 542 20 581ZM273 712 330 649 195 543 155 588Z" glyph-name="hungarumlaut" horiz-adv-x="350" unicode="&#733;" /><glyph d="M123 870 189 814 66 694 20 734ZM273 864 330 801 195 695 155 740Z" glyph-name="hungarumlaut.case" horiz-adv-x="350" /><glyph d="M298 206H58V313H298Z" glyph-name="hyphen" horiz-adv-x="356" unicode="-" /><glyph d="M163 94H41V163H163Z" glyph-name="hyphen.denominator" horiz-adv-x="204" unicode="&#63019;" /><glyph d="M163 423H41V492H163Z" glyph-name="hyphen.numerator" horiz-adv-x="204" unicode="&#63024;" /><glyph d="M122 554Q93 554 73 573.5Q53 593 53 622Q53 651 73 670.5Q93 690 122 690Q151 690 170.5 670.5Q190 651 190 622Q190 594 170.5 574Q151 554 122 554ZM61 0V490H182V0Z" glyph-name="i" horiz-adv-x="243" unicode="i" /><glyph d="M176 723 252 652 120 542 64 591ZM61 0V490H182V0Z" glyph-name="iacute" horiz-adv-x="243" unicode="&#237;" /><glyph d="M-13 582 95 715H148L256 582L209 542L120 619L33 543ZM61 0V490H182V0Z" glyph-name="icircumflex" horiz-adv-x="243" unicode="&#238;" /><glyph d="M53 551Q28 551 10.5 569Q-7 587 -7 612Q-7 636 10.5 653Q28 670 53 670Q78 670 94.5 653.5Q111 637 111 612Q111 587 94 569Q77 551 53 551ZM192 551Q168 551 150.5 569Q133 587 133 612Q133 637 150 653.5Q167 670 192 670Q217 670 234 653.5Q251 637 251 612Q251 587 233.5 569Q216 551 192 551ZM61 0V490H182V0Z" glyph-name="idieresis" horiz-adv-x="243" unicode="&#239;" /><glyph d="M61 0V490H182V0ZM177 591 121 542 -11 652 65 723Z" glyph-name="igrave" horiz-adv-x="243" unicode="&#236;" /><glyph d="M122 554Q93 554 73 573.5Q53 593 53 622Q53 651 73 670.5Q93 690 122 690Q151 690 170.5 670.5Q190 651 190 622Q190 594 170.5 574Q151 554 122 554ZM61 0V490H182V0ZM212 -197V-95H233Q271 -95 290.5 -77Q310 -59 310 -25V490H431V-18Q431 -105 384 -151Q337 -197 247 -197ZM370 554Q342 554 322 574Q302 594 302 622Q302 651 322 670.5Q342 690 370 690Q399 690 418.5 670.5Q438 651 438 622Q438 594 418.5 574Q399 554 370 554Z" glyph-name="ij" horiz-adv-x="492" unicode="&#307;" /><glyph d="M61 0V490H182V0ZM242 563H2V648H242Z" glyph-name="imacron" horiz-adv-x="243" unicode="&#299;" /><glyph d="M147 273Q147 245 164.5 226.5Q182 208 209 208H210Q233 208 260 223Q287 238 321 271Q281 310 258 323.5Q235 337 213 337Q185 337 166 318.5Q147 300 147 273ZM458 274Q368 179 313.5 145Q259 111 210 111H209Q140 111 95 156.5Q50 202 50 273Q50 339 97.5 386.5Q145 434 213 434Q246 434 277.5 420.5Q309 407 347 376Q363 363 383 345Q403 327 458 274ZM631 272Q631 300 613.5 318Q596 336 570 336H569Q546 336 520.5 322.5Q495 309 457 274Q496 235 519.5 221Q543 207 566 207Q593 207 612 226Q631 245 631 272ZM320 270Q410 365 465 399Q520 433 569 433H570Q639 433 683.5 387.5Q728 342 728 272Q728 205 681 157.5Q634 110 566 110Q533 110 501 123.5Q469 137 431 168Q415 181 395.5 199Q376 217 320 270Z" glyph-name="infinity" horiz-adv-x="778" unicode="&#8734;" /><glyph d="M132 38V566Q132 652 178 697Q224 742 313 742H362V640H326Q289 640 270.5 623Q252 606 252 573V45Q252 -41 206 -86Q160 -131 72 -131H23V-30H59Q95 -30 113.5 -12.5Q132 5 132 38Z" glyph-name="integral" horiz-adv-x="384" unicode="&#8747;" /><glyph d="M122 554Q93 554 73 573.5Q53 593 53 622Q53 651 73 670.5Q93 690 122 690Q151 690 170.5 670.5Q190 651 190 622Q190 594 170.5 574Q151 554 122 554ZM61 0V490H182V0ZM64 -92Q64 -108 75 -116.5Q86 -125 106 -125H154V-193H91Q45 -193 19 -171.5Q-7 -150 -7 -113Q-7 -75 16.5 -42Q40 -9 78 9L130 0Q98 -21 81 -45Q64 -69 64 -92Z" glyph-name="iogonek" horiz-adv-x="243" unicode="&#303;" /><glyph d="M61 0V490H182V0ZM188 627Q202 627 210.5 640.5Q219 654 219 669H281Q282 664 282 658.5Q282 653 282 644Q282 597 260 572Q238 547 198 547Q184 547 169.5 551Q155 555 140 562L97 583Q86 589 78.5 591Q71 593 65 593Q48 593 37.5 578.5Q27 564 27 550H-35Q-37 556 -38 564Q-39 572 -39 578Q-39 620 -12.5 647Q14 674 55 674Q68 674 81 670.5Q94 667 108 661L149 641Q167 632 174.5 629.5Q182 627 188 627Z" glyph-name="itilde" horiz-adv-x="243" unicode="&#297;" /><glyph d="M-37 -197V-95H-16Q22 -95 41.5 -77Q61 -59 61 -25V490H182V-18Q182 -105 135 -151Q88 -197 -2 -197ZM121 554Q93 554 73 574Q53 594 53 622Q53 651 73 670.5Q93 690 121 690Q150 690 169.5 670.5Q189 651 189 622Q189 594 169.5 574Q150 554 121 554Z" glyph-name="j" horiz-adv-x="243" unicode="j" /><glyph d="M-13 582 95 715H148L256 582L209 542L120 619L33 543ZM-37 -197V-95H-16Q22 -95 41.5 -77Q61 -59 61 -25V490H182V-18Q182 -105 135 -151Q88 -197 -2 -197Z" glyph-name="jcircumflex" horiz-adv-x="243" unicode="&#309;" /><glyph d="M61 0V677H182V298L333 490H464L315 302L472 0H339L234 208L182 142V0Z" glyph-name="k" horiz-adv-x="484" unicode="k" /><glyph d="M61 0V490H182V299L331 490H464L315 302L472 0H339L234 208L182 142V0Z" glyph-name="kgreenlandic" horiz-adv-x="484" unicode="&#312;" /><glyph d="M63 0V677H183V0Z" glyph-name="l" horiz-adv-x="246" unicode="l" /><glyph d="M177 883 253 812 121 702 65 750ZM63 0V677H183V0Z" glyph-name="lacute" horiz-adv-x="246" unicode="&#314;" /><glyph d="M224 523 247 677H353L288 523ZM63 0V677H183V0Z" glyph-name="lcaron" horiz-adv-x="246" unicode="&#318;" /><glyph d="M63 0V677H183V0ZM304 281Q275 281 254.5 301.5Q234 322 234 351Q234 381 254.5 401.5Q275 422 304 422Q334 422 354.5 401.5Q375 381 375 351Q375 322 354 301.5Q333 281 304 281Z" glyph-name="ldot" horiz-adv-x="368" unicode="&#320;" /><glyph d="M432 129 40 269V382L432 522V413L179 329L432 244Z" glyph-name="less" horiz-adv-x="492" unicode="&lt;" /><glyph d="M457 100H59V176H457ZM457 203 59 317V414L457 528V427L198 370L457 310Z" glyph-name="lessequal" horiz-adv-x="519" unicode="&#8804;" /><glyph d="M361 190H234V109H520V0H50V109H110V190H50V264H110V321H50V395H110V462Q110 555 166.5 611Q223 667 315 667Q406 667 461 612Q516 557 516 465V441H396V464Q396 506 374.5 531Q353 556 316 556Q278 556 256 530Q234 504 234 460V395H361V321H234V264H361Z" glyph-name="lira" horiz-adv-x="567" unicode="&#8356;" /><glyph d="M340 273H54V381H459V130H340Z" glyph-name="logicalnot" horiz-adv-x="524" unicode="&#172;" /><glyph d="M291 677V575H255Q219 575 200.5 558Q182 541 182 508V0H61V501Q61 587 107 632Q153 677 242 677Z" glyph-name="longs" horiz-adv-x="263" unicode="&#383;" /><glyph d="M291 677V575H255Q219 575 200.5 558Q182 541 182 508V0H61V501Q61 587 107 632Q153 677 242 677ZM358 384H278V485H358V619H478V485H561V384H478V0H358Z" glyph-name="longs_t" horiz-adv-x="585" unicode="&#64261;" /><glyph d="M346 384H278V485H346V619H466V485H571V384H466V168Q466 137 485.5 119.5Q505 102 540 102H571V0H527Q439 0 392.5 45Q346 90 346 175ZM291 677V575H255Q219 575 200.5 558Q182 541 182 508V0H61V501Q61 587 107 632Q153 677 242 677Z" glyph-name="longs_t.alt" horiz-adv-x="599" /><glyph d="M226 675H314L511 329L314 -18H226L29 329ZM380 329 269 532 158 329 269 125Z" glyph-name="lozenge" horiz-adv-x="540" unicode="&#9674;" /><glyph d="M20 320 267 464V355L20 211ZM83 0V677H203V0Z" glyph-name="lslash" horiz-adv-x="285" unicode="&#322;" /><glyph d="M182 309V0H61V490H165L173 442Q194 470 225 485Q256 500 295 500Q343 500 378 479.5Q413 459 432 420Q451 458 486 479Q521 500 567 500Q643 500 685 451.5Q727 403 727 317V0H606V310Q606 349 586.5 372Q567 395 533 395Q499 395 477.5 372.5Q456 350 454 314V0H334V310Q334 349 314 372Q294 395 260 395Q225 395 203.5 371Q182 347 182 309Z" glyph-name="m" horiz-adv-x="784" unicode="m" /><glyph d="M260 563H20V648H260Z" glyph-name="macron" horiz-adv-x="280" unicode="&#175;" /><glyph d="M260 721H20V806H260Z" glyph-name="macron.case" horiz-adv-x="280" /><glyph d="M467 276H61V383H467Z" glyph-name="minus" horiz-adv-x="528" unicode="&#8722;" /><glyph d="M186 -187H66V490H186V171Q186 136 205 115.5Q224 95 258 95Q293 95 314.5 117.5Q336 140 338 177V490H459V0H355L346 47Q325 19 293.5 4.5Q262 -10 223 -10Q212 -10 201.5 -7.5Q191 -5 181 1L186 -143Z" glyph-name="mu" horiz-adv-x="512" unicode="&#181;" /><glyph d="M123 144 44 223 149 327 45 432 124 511 228 406 334 512 412 433 306 327 414 221 335 142 227 248Z" glyph-name="multiply" horiz-adv-x="457" unicode="&#215;" /><glyph d="M182 308V0H61V490H165L173 442Q195 470 226.5 485Q258 500 297 500Q374 500 416.5 451.5Q459 403 459 317V0H339V310Q339 349 318.5 372Q298 395 263 395Q227 395 204.5 371Q182 347 182 308Z" glyph-name="n" horiz-adv-x="517" unicode="n" /><glyph d="M317 723 393 652 261 542 205 591ZM182 308V0H61V490H165L173 442Q195 470 226.5 485Q258 500 297 500Q374 500 416.5 451.5Q459 403 459 317V0H339V310Q339 349 318.5 372Q298 395 263 395Q227 395 204.5 371Q182 347 182 308Z" glyph-name="nacute" horiz-adv-x="517" unicode="&#324;" /><glyph d="M-7 492 31 677H154L67 492ZM219 308V0H98V490H202L210 442Q232 470 263.5 485Q295 500 334 500Q411 500 453.5 451.5Q496 403 496 317V0H376V310Q376 349 355.5 372Q335 395 300 395Q264 395 241.5 371Q219 347 219 308Z" glyph-name="napostrophe" horiz-adv-x="554" unicode="&#329;" /><glyph d="M396 676 288 542H235L127 676L175 716L263 639L351 715ZM182 308V0H61V490H165L173 442Q195 470 226.5 485Q258 500 297 500Q374 500 416.5 451.5Q459 403 459 317V0H339V310Q339 349 318.5 372Q298 395 263 395Q227 395 204.5 371Q182 347 182 308Z" glyph-name="ncaron" horiz-adv-x="517" unicode="&#328;" /><glyph d="M239 259Q150 259 97.5 313.5Q45 368 45 461Q45 556 104 611.5Q163 667 264 667Q365 667 422 607Q479 547 479 440V206Q479 105 421 47.5Q363 -10 261 -10Q166 -10 109.5 40Q53 90 53 175V185H173V177Q173 141 196.5 119.5Q220 98 260 98Q305 98 330 123.5Q355 149 355 196V296Q331 278 301.5 268.5Q272 259 239 259ZM173 465Q173 415 196 388Q219 361 262 361Q289 361 311.5 370.5Q334 380 355 401V438Q355 497 331.5 529.5Q308 562 265 562Q221 562 197 536.5Q173 511 173 465Z" glyph-name="nine" horiz-adv-x="536" unicode="9" /><glyph d="M126 127Q81 127 55.5 154Q30 181 30 229Q30 277 60.5 305Q91 333 143 333Q197 333 226.5 303Q256 273 256 218V109Q256 55 226 25Q196 -5 142 -5Q92 -5 63 20.5Q34 46 34 90V94H112V92Q112 79 119.5 71.5Q127 64 140 64Q158 64 166.5 73.5Q175 83 175 102V140Q166 134 153 130.5Q140 127 126 127ZM112 231Q112 211 120 201Q128 191 144 191Q153 191 161 194Q169 197 175 203V216Q175 242 168 254Q161 266 145 266Q129 266 120.5 257Q112 248 112 231Z" glyph-name="nine.denominator" horiz-adv-x="292" unicode="&#63070;" /><glyph d="M126 -25Q81 -25 55 2Q29 29 29 77Q29 125 59.5 153Q90 181 142 181Q196 181 226 151Q256 121 256 66V-43Q256 -97 226 -127Q196 -157 141 -157Q91 -157 62 -131.5Q33 -106 33 -62V-58H111V-60Q111 -73 119 -80.5Q127 -88 140 -88Q157 -88 166 -78.5Q175 -69 175 -50V-12Q164 -19 152 -22Q140 -25 126 -25ZM112 79Q112 59 120 49Q128 39 143 39Q153 39 160.5 42Q168 45 175 51V64Q175 90 167.5 102Q160 114 144 114Q128 114 120 105Q112 96 112 79Z" glyph-name="nine.inferior" horiz-adv-x="292" unicode="&#8329;" /><glyph d="M125 456Q80 456 54.5 483Q29 510 29 558Q29 606 59.5 634Q90 662 142 662Q196 662 225.5 632Q255 602 255 547V438Q255 384 225 354Q195 324 141 324Q92 324 62.5 349.5Q33 375 33 419V423H111V421Q111 408 118.5 400.5Q126 393 139 393Q157 393 165.5 402.5Q174 412 174 432V469Q165 463 152 459.5Q139 456 125 456ZM111 560Q111 541 119.5 530.5Q128 520 143 520Q152 520 159.5 523Q167 526 174 532V545Q174 571 167 583Q160 595 144 595Q128 595 119.5 586Q111 577 111 560Z" glyph-name="nine.numerator" horiz-adv-x="291" unicode="&#63082;" /><glyph d="M125 607Q80 607 54 634Q28 661 28 709Q28 758 58.5 785.5Q89 813 142 813Q196 813 225.5 783Q255 753 255 698V589Q255 535 225 505Q195 475 141 475Q91 475 61.5 500.5Q32 526 32 570V574H110V572Q110 559 118 551.5Q126 544 139 544Q156 544 165 553.5Q174 563 174 582V620Q163 613 151 610Q139 607 125 607ZM111 711Q111 691 119 681Q127 671 142 671Q152 671 159.5 674Q167 677 174 683V696Q174 722 166.5 734Q159 746 143 746Q127 746 119 737Q111 728 111 711Z" glyph-name="nine.superior" horiz-adv-x="289" unicode="&#8313;" /><glyph d="M242 259Q153 259 101 313.5Q49 368 49 461Q49 556 108 611.5Q167 667 268 667Q369 667 426 607Q483 547 483 440V206Q483 105 425 47.5Q367 -10 265 -10Q170 -10 113.5 40Q57 90 57 175V185H177V177Q177 141 200.5 119.5Q224 98 263 98Q309 98 334 123.5Q359 149 359 196V296Q333 277 304 268Q275 259 242 259ZM177 465Q177 415 200 388Q223 361 266 361Q293 361 315.5 370.5Q338 380 359 401V438Q359 497 335.5 529.5Q312 562 269 562Q225 562 201 536.5Q177 511 177 465Z" glyph-name="nine.tab" horiz-adv-x="546" /><glyph d="M245 376H64V476H291L332 562H413L372 476H462V376H327L283 283H462V183H237L196 97H115L156 183H64V283H201Z" glyph-name="notequal" horiz-adv-x="527" unicode="&#8800;" /><glyph d="M182 308V0H61V490H165L173 442Q195 470 226.5 485Q258 500 297 500Q374 500 416.5 451.5Q459 403 459 317V0H339V310Q339 349 318.5 372Q298 395 263 395Q227 395 204.5 371Q182 347 182 308ZM328 627Q342 627 350.5 640.5Q359 654 359 669H421Q422 664 422 658.5Q422 653 422 644Q422 597 400 572Q378 547 338 547Q324 547 309.5 551Q295 555 280 562L237 583Q226 589 218.5 591Q211 593 205 593Q188 593 177.5 578.5Q167 564 167 550H105Q103 556 102 564Q101 572 101 578Q101 620 127.5 647Q154 674 195 674Q208 674 221 670.5Q234 667 248 661L289 641Q307 632 314.5 629.5Q322 627 328 627Z" glyph-name="ntilde" horiz-adv-x="517" unicode="&#241;" /><glyph d="M453 657H542L511 490H620V413H496L465 244H590V167H451L420 0H331L362 167H238L207 0H118L149 167H40V244H164L195 413H70V490H209L240 657H329L298 490H422ZM408 413H283L252 244H377Z" glyph-name="numbersign" horiz-adv-x="660" unicode="#" /><glyph d="M244 398Q208 398 186.5 374Q165 350 165 311V178Q165 139 186.5 115.5Q208 92 244 92Q280 92 301.5 115.5Q323 139 323 178V311Q323 350 301.5 374Q280 398 244 398ZM244 500Q334 500 388.5 446Q443 392 443 303V187Q443 97 388.5 43.5Q334 -10 244 -10Q154 -10 99 43.5Q44 97 44 187V303Q44 392 99 446Q154 500 244 500Z" glyph-name="o" horiz-adv-x="488" unicode="o" /><glyph d="M299 723 375 652 243 542 187 591ZM244 398Q208 398 186.5 374Q165 350 165 311V178Q165 139 186.5 115.5Q208 92 244 92Q280 92 301.5 115.5Q323 139 323 178V311Q323 350 301.5 374Q280 398 244 398ZM244 500Q334 500 388.5 446Q443 392 443 303V187Q443 97 388.5 43.5Q334 -10 244 -10Q154 -10 99 43.5Q44 97 44 187V303Q44 392 99 446Q154 500 244 500Z" glyph-name="oacute" horiz-adv-x="488" unicode="&#243;" /><glyph d="M244 398Q208 398 186.5 374Q165 350 165 311V178Q165 139 186.5 115.5Q208 92 244 92Q280 92 301.5 115.5Q323 139 323 178V311Q323 350 301.5 374Q280 398 244 398ZM244 500Q334 500 388.5 446Q443 392 443 303V187Q443 97 388.5 43.5Q334 -10 244 -10Q154 -10 99 43.5Q44 97 44 187V303Q44 392 99 446Q154 500 244 500ZM290 652V673H362V652Q362 605 328.5 573.5Q295 542 243 542Q191 542 158 573.5Q125 605 125 652V673H197V652Q197 631 209.5 618Q222 605 243 605Q264 605 277 618Q290 631 290 652Z" glyph-name="obreve" horiz-adv-x="488" unicode="&#335;" /><glyph d="M109 582 217 715H270L378 582L331 542L242 619L155 543ZM244 398Q208 398 186.5 374Q165 350 165 311V178Q165 139 186.5 115.5Q208 92 244 92Q280 92 301.5 115.5Q323 139 323 178V311Q323 350 301.5 374Q280 398 244 398ZM244 500Q334 500 388.5 446Q443 392 443 303V187Q443 97 388.5 43.5Q334 -10 244 -10Q154 -10 99 43.5Q44 97 44 187V303Q44 392 99 446Q154 500 244 500Z" glyph-name="ocircumflex" horiz-adv-x="488" unicode="&#244;" /><glyph d="M175 551Q150 551 132.5 569Q115 587 115 612Q115 636 132.5 653Q150 670 175 670Q200 670 216.5 653.5Q233 637 233 612Q233 587 216 569Q199 551 175 551ZM314 551Q290 551 272.5 569Q255 587 255 612Q255 637 272 653.5Q289 670 314 670Q339 670 356 653.5Q373 637 373 612Q373 587 355.5 569Q338 551 314 551ZM244 398Q208 398 186.5 374Q165 350 165 311V178Q165 139 186.5 115.5Q208 92 244 92Q280 92 301.5 115.5Q323 139 323 178V311Q323 350 301.5 374Q280 398 244 398ZM244 500Q334 500 388.5 446Q443 392 443 303V187Q443 97 388.5 43.5Q334 -10 244 -10Q154 -10 99 43.5Q44 97 44 187V303Q44 392 99 446Q154 500 244 500Z" glyph-name="odieresis" horiz-adv-x="488" unicode="&#246;" /><glyph d="M598 163V170H712V166Q712 86 659.5 38Q607 -10 520 -10Q477 -10 441.5 6.5Q406 23 382 54Q359 23 323 6.5Q287 -10 244 -10Q154 -10 99 43.5Q44 97 44 187V303Q44 392 99 446Q154 500 244 500Q288 500 323.5 483Q359 466 383 434Q407 466 442 483Q477 500 520 500Q606 500 659 446Q712 392 712 303V222H441V172Q441 134 463.5 110Q486 86 522 86Q557 86 577.5 107Q598 128 598 163ZM244 398Q208 398 186.5 374Q165 350 165 311V178Q165 139 186.5 115.5Q208 92 244 92Q280 92 301.5 115.5Q323 139 323 178V311Q323 350 301.5 374Q280 398 244 398ZM520 404Q484 404 462.5 380Q441 356 441 317V305H598V317Q598 356 576.5 380Q555 404 520 404Z" glyph-name="oe" horiz-adv-x="754" unicode="&#339;" /><glyph d="M118 -92Q118 -108 129 -116.5Q140 -125 160 -125H208V-193H145Q99 -193 73 -171.5Q47 -150 47 -113Q47 -75 70.5 -42Q94 -9 132 9L184 0Q152 -21 135 -45Q118 -69 118 -92Z" glyph-name="ogonek" horiz-adv-x="265" unicode="&#731;" /><glyph d="M244 398Q208 398 186.5 374Q165 350 165 311V178Q165 139 186.5 115.5Q208 92 244 92Q280 92 301.5 115.5Q323 139 323 178V311Q323 350 301.5 374Q280 398 244 398ZM244 500Q334 500 388.5 446Q443 392 443 303V187Q443 97 388.5 43.5Q334 -10 244 -10Q154 -10 99 43.5Q44 97 44 187V303Q44 392 99 446Q154 500 244 500ZM299 591 243 542 111 652 187 723Z" glyph-name="ograve" horiz-adv-x="488" unicode="&#242;" /><glyph d="M226 717 292 662 169 542 123 581ZM376 712 433 649 298 543 258 588ZM244 398Q208 398 186.5 374Q165 350 165 311V178Q165 139 186.5 115.5Q208 92 244 92Q280 92 301.5 115.5Q323 139 323 178V311Q323 350 301.5 374Q280 398 244 398ZM244 500Q334 500 388.5 446Q443 392 443 303V187Q443 97 388.5 43.5Q334 -10 244 -10Q154 -10 99 43.5Q44 97 44 187V303Q44 392 99 446Q154 500 244 500Z" glyph-name="ohungarumlaut" horiz-adv-x="488" unicode="&#337;" /><glyph d="M364 563H124V648H364ZM244 398Q208 398 186.5 374Q165 350 165 311V178Q165 139 186.5 115.5Q208 92 244 92Q280 92 301.5 115.5Q323 139 323 178V311Q323 350 301.5 374Q280 398 244 398ZM244 500Q334 500 388.5 446Q443 392 443 303V187Q443 97 388.5 43.5Q334 -10 244 -10Q154 -10 99 43.5Q44 97 44 187V303Q44 392 99 446Q154 500 244 500Z" glyph-name="omacron" horiz-adv-x="488" unicode="&#333;" /><glyph d="M161 546H47V657H285V109H401V0H47V109H161Z" glyph-name="one" horiz-adv-x="429" unicode="1" /><glyph d="M87 257H32V328H168V69H225V0H32V69H87Z" glyph-name="one.denominator" horiz-adv-x="243" unicode="&#63062;" /><glyph d="M86 105H31V176H167V-83H224V-152H31V-83H86Z" glyph-name="one.inferior" horiz-adv-x="241" unicode="&#8321;" /><glyph d="M86 586H31V657H167V398H224V329H31V398H86Z" glyph-name="one.numerator" horiz-adv-x="241" unicode="&#63074;" /><glyph d="M222 546H87V657H347V109H477V0H87V109H222Z" glyph-name="one.tab" horiz-adv-x="546" /><glyph d="M108 0 300 330 482 657H576L384 328L201 0ZM100 586H45V657H181V398H238V329H45V398H100ZM623 0H395V40Q395 73 406.5 98Q418 123 441 138L504 179Q522 190 530.5 203Q539 216 539 232Q539 246 531.5 253.5Q524 261 510 261Q494 261 485.5 252.5Q477 244 477 229V221H399V231Q399 276 431 304.5Q463 333 513 333Q563 333 593 306.5Q623 280 623 236Q623 201 608 175Q593 149 558 126L507 94Q500 90 495 83.5Q490 77 489 73H623Z" glyph-name="onehalf" horiz-adv-x="667" unicode="&#189;" /><glyph d="M366 141 498 328H592V131H626V64H592V0H511V64H366ZM511 233 439 131H511ZM109 0 302 330 484 657H577L385 328L203 0ZM102 586H47V657H183V398H239V329H47V398H102Z" glyph-name="onequarter" horiz-adv-x="665" unicode="&#188;" /><glyph d="M86 739H31V810H167V552H223V482H31V552H86Z" glyph-name="onesuperior" horiz-adv-x="241" unicode="&#185;" /><glyph d="M130 407Q91 407 69.5 433Q48 459 48 505V564Q48 610 69.5 636Q91 662 130 662Q148 662 162 655.5Q176 649 185 637L188 657H258V412H188L185 431Q174 419 160 413Q146 407 130 407ZM152 474Q165 474 172.5 482.5Q180 491 180 505V564Q180 578 172.5 586.5Q165 595 152 595Q140 595 133.5 586.5Q127 578 127 563V506Q127 491 133.5 482.5Q140 474 152 474Z" glyph-name="ordfeminine" horiz-adv-x="316" unicode="&#170;" /><glyph d="M151 596Q139 596 132 588Q125 580 125 566V502Q125 488 132 480Q139 472 151 472Q163 472 170.5 480.5Q178 489 178 502V566Q178 579 170.5 587.5Q163 596 151 596ZM151 661Q198 661 227 633.5Q256 606 256 560V507Q256 462 227 434Q198 406 151 406Q104 406 75 433.5Q46 461 46 507V560Q46 606 74.5 633.5Q103 661 151 661Z" glyph-name="ordmasculine" horiz-adv-x="302" unicode="&#186;" /><glyph d="M319 452 365 540H435L371 419L356 396L173 50L164 30L123 -49H53L113 63L129 88L310 431ZM244 400Q206 400 184 376.5Q162 353 162 314V176Q162 137 184.5 113Q207 89 244 89Q281 89 303.5 113Q326 137 326 176V314Q326 353 304 376.5Q282 400 244 400ZM244 500Q334 500 388.5 446Q443 392 443 303V187Q443 97 388.5 43.5Q334 -10 244 -10Q154 -10 99 43.5Q44 97 44 187V303Q44 392 99 446Q154 500 244 500Z" glyph-name="oslash" horiz-adv-x="488" unicode="&#248;" /><glyph d="M244 398Q208 398 186.5 374Q165 350 165 311V178Q165 139 186.5 115.5Q208 92 244 92Q280 92 301.5 115.5Q323 139 323 178V311Q323 350 301.5 374Q280 398 244 398ZM244 500Q334 500 388.5 446Q443 392 443 303V187Q443 97 388.5 43.5Q334 -10 244 -10Q154 -10 99 43.5Q44 97 44 187V303Q44 392 99 446Q154 500 244 500ZM310 627Q324 627 332.5 640.5Q341 654 341 669H403Q404 664 404 658.5Q404 653 404 644Q404 597 382 572Q360 547 320 547Q306 547 291.5 551Q277 555 262 562L219 583Q208 589 200.5 591Q193 593 187 593Q170 593 159.5 578.5Q149 564 149 550H87Q85 556 84 564Q83 572 83 578Q83 620 109.5 647Q136 674 177 674Q190 674 203 670.5Q216 667 230 661L271 641Q289 632 296.5 629.5Q304 627 310 627Z" glyph-name="otilde" horiz-adv-x="488" unicode="&#245;" /><glyph d="M61 490H165L173 443Q194 471 225 485.5Q256 500 293 500Q371 500 415 449Q459 398 459 310V180Q459 92 415 41Q371 -10 293 -10Q259 -10 230.5 2Q202 14 182 37V-187H61ZM263 395Q227 395 204.5 371Q182 347 182 308V181Q182 143 204.5 119Q227 95 263 95Q298 95 318.5 118Q339 141 339 179V310Q339 349 318.5 372Q298 395 263 395Z" glyph-name="p" horiz-adv-x="506" unicode="p" /><glyph d="M350 548H279V192H265Q160 192 97.5 255Q35 318 35 425Q35 529 102.5 593Q170 657 280 657H474V-111H350Z" glyph-name="paragraph" horiz-adv-x="551" unicode="&#182;" /><glyph d="M270 0H280V-111H271Q170 -111 114.5 -56.5Q59 -2 59 98V556Q59 656 114.5 710.5Q170 765 271 765H280V654H270Q229 654 206 629.5Q183 605 183 562V92Q183 49 206 24.5Q229 0 270 0Z" glyph-name="parenleft" horiz-adv-x="318" unicode="(" /><glyph d="M158 16H163V-56H158Q101 -56 69.5 -25Q38 6 38 61V266Q38 321 69.5 351.5Q101 382 158 382H163V310H158Q140 310 129.5 299Q119 288 119 269V57Q119 38 129.5 27Q140 16 158 16Z" glyph-name="parenleft.denominator" horiz-adv-x="190" unicode="&#63020;" /><glyph d="M157 -136H162V-208H157Q100 -208 68.5 -177Q37 -146 37 -91V114Q37 169 68.5 199.5Q100 230 157 230H162V158H157Q139 158 128.5 147Q118 136 118 117V-95Q118 -114 128.5 -125Q139 -136 157 -136Z" glyph-name="parenleft.inferior" horiz-adv-x="189" unicode="&#8333;" /><glyph d="M157 345H162V273H157Q100 273 68.5 304Q37 335 37 390V595Q37 650 68.5 680.5Q100 711 157 711H162V639H157Q139 639 128.5 628Q118 617 118 599V387Q118 368 128.5 356.5Q139 345 157 345Z" glyph-name="parenleft.numerator" horiz-adv-x="188" unicode="&#63025;" /><glyph d="M155 496H160V424H155Q98 424 66.5 455Q35 486 35 541V746Q35 801 66.5 831.5Q98 862 155 862H160V790H155Q137 790 126.5 779Q116 768 116 749V537Q116 518 126.5 507Q137 496 155 496Z" glyph-name="parenleft.superior" horiz-adv-x="186" unicode="&#8317;" /><glyph d="M48 0H38V-111H47Q148 -111 203.5 -56.5Q259 -2 259 98V556Q259 656 203.5 710.5Q148 765 47 765H38V654H48Q89 654 112 629.5Q135 605 135 562V92Q135 49 112 24.5Q89 0 48 0Z" glyph-name="parenright" horiz-adv-x="318" unicode=")" /><glyph d="M32 16H27V-56H32Q89 -56 120.5 -25Q152 6 152 61V266Q152 321 120.5 351.5Q89 382 32 382H27V310H32Q50 310 60.5 299Q71 288 71 269V57Q71 38 60.5 27Q50 16 32 16Z" glyph-name="parenright.denominator" horiz-adv-x="190" unicode="&#63021;" /><glyph d="M32 -136H27V-208H32Q89 -208 120.5 -177Q152 -146 152 -91V114Q152 169 120.5 199.5Q89 230 32 230H27V158H32Q50 158 60.5 147Q71 136 71 117V-95Q71 -114 60.5 -125Q50 -136 32 -136Z" glyph-name="parenright.inferior" horiz-adv-x="189" unicode="&#8334;" /><glyph d="M27 273V345H32Q50 345 60.5 356.5Q71 368 71 387V599Q71 617 60.5 628Q50 639 32 639H27V711H32Q89 711 120.5 680.5Q152 650 152 595V390Q152 335 120.5 304Q89 273 32 273Z" glyph-name="parenright.numerator" horiz-adv-x="188" unicode="&#63026;" /><glyph d="M31 496H26V424H31Q88 424 119.5 455Q151 486 151 541V746Q151 801 119.5 831.5Q88 862 31 862H26V790H31Q49 790 59.5 779Q70 768 70 749V537Q70 518 59.5 507Q49 496 31 496Z" glyph-name="parenright.superior" horiz-adv-x="186" unicode="&#8318;" /><glyph d="M202 687Q322 687 382.5 596.5Q443 506 443 327V187Q443 97 388 43.5Q333 -10 243 -10Q153 -10 98.5 44Q44 98 44 187V267Q44 359 89.5 411.5Q135 464 216 464Q251 464 279 450.5Q307 437 325 412Q316 501 279.5 547.5Q243 594 182 594Q160 594 141 591Q122 588 107 581L85 666Q112 677 141 682Q170 687 202 687ZM243 363Q207 363 185.5 339Q164 315 164 276V178Q164 139 185.5 115.5Q207 92 243 92Q279 92 301 115.5Q323 139 323 178V276Q323 315 301 339Q279 363 243 363Z" glyph-name="partialdiff" horiz-adv-x="496" unicode="&#8706;" /><glyph d="M165 594Q146 594 135 581.5Q124 569 124 548V447Q124 426 135 413.5Q146 401 165 401Q184 401 195 413.5Q206 426 206 447V548Q206 569 195 581.5Q184 594 165 594ZM165 667Q221 667 254.5 635Q288 603 288 550V445Q288 392 254.5 360Q221 328 165 328Q109 328 75.5 360Q42 392 42 445V550Q42 603 75.5 635Q109 667 165 667ZM87 0 280 330 462 657H555L363 328L180 0ZM477 256Q458 256 446.5 243.5Q435 231 435 210V109Q435 88 446.5 75.5Q458 63 477 63Q496 63 507 75.5Q518 88 518 109V210Q518 231 507 243.5Q496 256 477 256ZM477 329Q533 329 566.5 297Q600 265 600 212V107Q600 54 566.5 22Q533 -10 477 -10Q421 -10 387.5 22Q354 54 354 107V212Q354 265 387.5 297Q421 329 477 329Z" glyph-name="percent" horiz-adv-x="642" unicode="%" /><glyph d="M117 -10Q88 -10 67.5 10.5Q47 31 47 60Q47 90 67.5 110.5Q88 131 117 131Q147 131 167.5 110.5Q188 90 188 60Q188 31 167 10.5Q146 -10 117 -10Z" glyph-name="period" horiz-adv-x="234" unicode="." /><glyph d="M70 -7Q52 -7 39.5 5.5Q27 18 27 37Q27 55 39.5 67.5Q52 80 70 80Q89 80 101.5 67.5Q114 55 114 37Q114 18 101.5 5.5Q89 -7 70 -7Z" glyph-name="period.denominator" horiz-adv-x="140" unicode="&#63072;" /><glyph d="M70 322Q52 322 39.5 334.5Q27 347 27 366Q27 384 39.5 396.5Q52 409 70 409Q89 409 101.5 396.5Q114 384 114 366Q114 347 101.5 334.5Q89 322 70 322Z" glyph-name="period.numerator" horiz-adv-x="141" unicode="&#63084;" /><glyph d="M120 208Q91 208 70.5 228.5Q50 249 50 278Q50 308 70.5 328.5Q91 349 120 349Q150 349 170.5 328.5Q191 308 191 278Q191 249 170 228.5Q149 208 120 208Z" glyph-name="periodcentered" horiz-adv-x="240" unicode="&#183;" /><glyph d="M167 594Q148 594 136.5 581.5Q125 569 125 548V447Q125 426 136.5 413.5Q148 401 167 401Q186 401 197 413.5Q208 426 208 447V548Q208 569 197 581.5Q186 594 167 594ZM167 667Q223 667 256.5 635Q290 603 290 550V445Q290 392 256.5 360Q223 328 167 328Q111 328 77.5 360Q44 392 44 445V550Q44 603 77.5 635Q111 667 167 667ZM89 0 281 330 463 657H557L365 328L182 0ZM478 256Q459 256 448 243.5Q437 231 437 210V109Q437 88 448 75.5Q459 63 478 63Q497 63 508 75.5Q519 88 519 109V210Q519 231 508 243.5Q497 256 478 256ZM478 329Q534 329 567.5 297Q601 265 601 212V107Q601 54 567.5 22Q534 -10 478 -10Q422 -10 388.5 22Q355 54 355 107V212Q355 265 388.5 297Q422 329 478 329ZM768 256Q749 256 738 243.5Q727 231 727 210V109Q727 88 738 75.5Q749 63 768 63Q787 63 798 75.5Q809 88 809 109V210Q809 231 798 243.5Q787 256 768 256ZM768 329Q824 329 857.5 297Q891 265 891 212V107Q891 54 857.5 22Q824 -10 768 -10Q712 -10 678.5 22Q645 54 645 107V212Q645 265 678.5 297Q712 329 768 329Z" glyph-name="perthousand" horiz-adv-x="930" unicode="&#8240;" /><glyph d="M199 0H75V657H303Q404 657 467.5 597.5Q531 538 531 444Q531 345 468 284.5Q405 224 303 224H199ZM404 441Q404 490 374 519Q344 548 293 548H199V333H293Q344 333 374 362Q404 391 404 441ZM645 384H565V485H645V619H765V485H848V384H765V0H645ZM854 141V156H966V137Q966 110 986.5 95Q1007 80 1044 80Q1081 80 1100 94Q1119 108 1119 134Q1119 154 1107 166Q1095 178 1068 186L982 213Q925 231 895 266.5Q865 302 865 354Q865 416 914.5 458Q964 500 1041 500Q1126 500 1176.5 460.5Q1227 421 1227 353V342H1115V356Q1115 381 1095.5 396Q1076 411 1042 411Q1014 411 995.5 397.5Q977 384 977 363Q977 345 988 334.5Q999 324 1024 316L1095 295Q1170 271 1201 236Q1232 201 1232 146Q1232 75 1181.5 32Q1131 -11 1046 -11Q960 -11 907 30.5Q854 72 854 141Z" glyph-name="peseta" horiz-adv-x="1276" unicode="&#8359;" /><glyph d="M405 0V451H526V0ZM100 0V451H221V0ZM602 385H24V490H602Z" glyph-name="pi" horiz-adv-x="625" unicode="&#960;" /><glyph d="M184 523H303V381H446V273H303V130H184V273H41V381H184Z" glyph-name="plus" horiz-adv-x="487" unicode="+" /><glyph d="M206 529H319V413H465V329H319V212H206V329H60V413H206ZM457 100H60V176H457Z" glyph-name="plusminus" horiz-adv-x="521" unicode="&#177;" /><glyph d="M73 657H526V0H401V545H198V0H73Z" glyph-name="product" horiz-adv-x="599" unicode="&#8719;" /><glyph d="M444 490H341L332 443Q312 470 281 485Q250 500 213 500Q135 500 90.5 449Q46 398 46 310V180Q46 92 90.5 41Q135 -10 213 -10Q247 -10 275.5 2Q304 14 324 37V-187H444ZM243 395Q279 395 301.5 371Q324 347 324 308V181Q324 143 301.5 119Q279 95 243 95Q208 95 187.5 118Q167 141 167 179V310Q167 349 187.5 372Q208 395 243 395Z" glyph-name="q" horiz-adv-x="506" unicode="q" /><glyph d="M294 216 290 187H190L186 224Q183 251 188.5 274Q194 297 210 319Q216 328 233 346.5Q250 365 279 393Q309 422 319.5 441Q330 460 330 480Q330 515 307.5 535Q285 555 245 555Q203 555 179.5 532Q156 509 156 470V443H36V472Q36 559 94.5 613Q153 667 248 667Q343 667 400.5 617.5Q458 568 458 485Q458 444 439.5 407.5Q421 371 381 334Q377 330 357 311.5Q337 293 327 282Q312 265 304 249Q296 233 294 216ZM240 -10Q211 -10 191.5 10Q172 30 172 59Q172 88 192 108Q212 128 240 128Q269 128 289 108Q309 88 309 59Q309 30 289 10Q269 -10 240 -10Z" glyph-name="question" horiz-adv-x="494" unicode="?" /><glyph d="M197 274 201 303H301L305 266Q308 239 302.5 216Q297 193 281 171Q275 162 258 143.5Q241 125 212 97Q182 68 171.5 49Q161 30 161 10Q161 -25 183.5 -45Q206 -65 246 -65Q288 -65 311.5 -42Q335 -19 335 20V47H455V18Q455 -69 396.5 -123Q338 -177 243 -177Q148 -177 90.5 -127.5Q33 -78 33 5Q33 46 51.5 82.5Q70 119 110 156Q114 160 134 178.5Q154 197 164 208Q179 225 187 241Q195 257 197 274ZM251 500Q280 500 299.5 480Q319 460 319 431Q319 402 299 382Q279 362 251 362Q222 362 202 382Q182 402 182 431Q182 460 202 480Q222 500 251 500Z" glyph-name="questiondown" horiz-adv-x="489" unicode="&#191;" /><glyph d="M52 586V657H167V586Q167 568 163 532Q159 496 154 469L148 427H71L65 469Q60 496 56 532Q52 568 52 586ZM217 586V657H331V586Q331 568 327 532Q323 496 318 469L312 427H235L229 469Q225 492 221 529.5Q217 567 217 586Z" glyph-name="quotedbl" horiz-adv-x="383" unicode="&quot;" /><glyph d="M25 -94 71 118H194L98 -94ZM169 -94 230 118H352L241 -94Z" glyph-name="quotedblbase" horiz-adv-x="398" unicode="&#8222;" /><glyph d="M362 657 315 445H193L289 657ZM218 657 157 445H35L146 657Z" glyph-name="quotedblleft" horiz-adv-x="399" unicode="&#8220;" /><glyph d="M43 445 89 657H211L115 445ZM186 445 248 657H370L258 445Z" glyph-name="quotedblright" horiz-adv-x="393" unicode="&#8221;" /><glyph d="M205 657 159 445H35L131 657Z" glyph-name="quoteleft" horiz-adv-x="243" unicode="&#8216;" /><glyph d="M43 445 89 657H212L117 445Z" glyph-name="quoteright" horiz-adv-x="238" unicode="&#8217;" /><glyph d="M25 -94 71 118H195L99 -94Z" glyph-name="quotesinglbase" horiz-adv-x="241" unicode="&#8218;" /><glyph d="M52 586V657H171V586Q171 568 167 532Q163 496 158 469L152 427H71L65 469Q60 496 56 532Q52 568 52 586Z" glyph-name="quotesingle" horiz-adv-x="223" unicode="'" /><glyph d="M182 299V0H61V490H165L175 434Q194 465 223.5 482.5Q253 500 288 500Q296 500 303 499Q310 498 317 496V383Q306 385 295 386Q284 387 276 387Q233 387 207.5 364Q182 341 182 299Z" glyph-name="r" horiz-adv-x="336" unicode="r" /><glyph d="M233 723 309 652 177 542 121 591ZM182 299V0H61V490H165L175 434Q194 465 223.5 482.5Q253 500 288 500Q296 500 303 499Q310 498 317 496V383Q306 385 295 386Q284 387 276 387Q233 387 207.5 364Q182 341 182 299Z" glyph-name="racute" horiz-adv-x="336" unicode="&#341;" /><glyph d="M111 381H26V479H207L318 83L480 687H586L366 -92H253Z" glyph-name="radical" horiz-adv-x="598" unicode="&#8730;" /><glyph d="M303 676 195 542H142L34 676L82 716L170 639L258 715ZM182 299V0H61V490H165L175 434Q194 465 223.5 482.5Q253 500 288 500Q296 500 303 499Q310 498 317 496V383Q306 385 295 386Q284 387 276 387Q233 387 207.5 364Q182 341 182 299Z" glyph-name="rcaron" horiz-adv-x="336" unicode="&#345;" /><glyph d="M265 235Q175 235 112.5 297.5Q50 360 50 450Q50 540 112.5 603.5Q175 667 265 667Q355 667 418.5 603.5Q482 540 482 450Q482 361 418.5 298Q355 235 265 235ZM265 616Q198 616 151 567.5Q104 519 104 450Q104 381 150.5 333.5Q197 286 265 286Q333 286 380 333.5Q427 381 427 450Q427 519 379.5 567.5Q332 616 265 616ZM326 430 361 339H298L270 419H237V339H181V560H278Q314 560 337 541Q360 522 360 491Q360 472 351 456.5Q342 441 326 430ZM301 489Q301 502 293.5 509Q286 516 271 516H237V461H271Q285 461 293 469Q301 477 301 489Z" glyph-name="registered" horiz-adv-x="532" unicode="&#174;" /><glyph d="M85 630Q85 610 96.5 597Q108 584 127 584Q146 584 158 597Q170 610 170 630Q170 650 158.5 662.5Q147 675 127 675Q108 675 96.5 662.5Q85 650 85 630ZM236 630Q236 586 205 556.5Q174 527 127 527Q80 527 50 556.5Q20 586 20 630Q20 674 50 703.5Q80 733 127 733Q174 733 205 703.5Q236 674 236 630Z" glyph-name="ring" horiz-adv-x="256" unicode="&#730;" /><glyph d="M85 794Q85 773 96.5 760Q108 747 127 747Q147 747 158.5 760Q170 773 170 794Q170 814 158.5 826.5Q147 839 127 839Q108 839 96.5 826.5Q85 814 85 794ZM236 794Q236 749 205.5 720Q175 691 127 691Q80 691 50 720Q20 749 20 794Q20 838 50 867.5Q80 897 127 897Q174 897 205 867.5Q236 838 236 794Z" glyph-name="ring.case" horiz-adv-x="256" /><glyph d="M35 141V156H146V137Q146 110 167 95Q188 80 224 80Q261 80 280.5 94Q300 108 300 134Q300 153 288 165.5Q276 178 249 186L162 213Q105 231 75.5 266.5Q46 302 46 354Q46 415 95.5 457.5Q145 500 221 500Q306 500 356.5 460.5Q407 421 407 353V342H295V356Q295 381 275.5 396Q256 411 223 411Q194 411 175.5 398Q157 385 157 363Q157 345 168.5 334.5Q180 324 205 316L275 295Q350 271 381.5 236Q413 201 413 146Q413 75 362 32Q311 -11 226 -11Q140 -11 87.5 30.5Q35 72 35 141Z" glyph-name="s" horiz-adv-x="451" unicode="s" /><glyph d="M278 723 354 652 222 542 166 591ZM35 141V156H146V137Q146 110 167 95Q188 80 224 80Q261 80 280.5 94Q300 108 300 134Q300 153 288 165.5Q276 178 249 186L162 213Q105 231 75.5 266.5Q46 302 46 354Q46 415 95.5 457.5Q145 500 221 500Q306 500 356.5 460.5Q407 421 407 353V342H295V356Q295 381 275.5 396Q256 411 223 411Q194 411 175.5 398Q157 385 157 363Q157 345 168.5 334.5Q180 324 205 316L275 295Q350 271 381.5 236Q413 201 413 146Q413 75 362 32Q311 -11 226 -11Q140 -11 87.5 30.5Q35 72 35 141Z" glyph-name="sacute" horiz-adv-x="451" unicode="&#347;" /><glyph d="M357 676 249 542H196L88 676L136 716L224 639L312 715ZM35 141V156H146V137Q146 110 167 95Q188 80 224 80Q261 80 280.5 94Q300 108 300 134Q300 153 288 165.5Q276 178 249 186L162 213Q105 231 75.5 266.5Q46 302 46 354Q46 415 95.5 457.5Q145 500 221 500Q306 500 356.5 460.5Q407 421 407 353V342H295V356Q295 381 275.5 396Q256 411 223 411Q194 411 175.5 398Q157 385 157 363Q157 345 168.5 334.5Q180 324 205 316L275 295Q350 271 381.5 236Q413 201 413 146Q413 75 362 32Q311 -11 226 -11Q140 -11 87.5 30.5Q35 72 35 141Z" glyph-name="scaron" horiz-adv-x="451" unicode="&#353;" /><glyph d="M36 141V156H147V137Q147 110 168 95Q189 80 225 80Q262 80 281.5 94Q301 108 301 134Q301 153 289 165.5Q277 178 250 186L163 213Q106 231 76.5 266.5Q47 302 47 354Q47 415 96.5 457.5Q146 500 222 500Q307 500 357.5 460.5Q408 421 408 353V342H296V356Q296 381 276.5 396Q257 411 224 411Q195 411 176.5 398Q158 385 158 363Q158 345 169.5 334.5Q181 324 206 316L276 295Q351 271 382.5 236Q414 201 414 146Q414 75 363 32Q312 -11 227 -11Q141 -11 88.5 30.5Q36 72 36 141ZM231 -97H173L152 -81L180 15H247L230 -40H242Q281 -40 302 -59Q323 -78 323 -112Q323 -147 301 -167Q279 -187 242 -187H130V-130H231Q240 -130 245 -125.5Q250 -121 250 -113Q250 -105 245 -101Q240 -97 231 -97Z" glyph-name="scedilla" horiz-adv-x="452" unicode="&#351;" /><glyph d="M89 582 197 715H250L358 582L311 542L222 619L135 543ZM35 141V156H146V137Q146 110 167 95Q188 80 224 80Q261 80 280.5 94Q300 108 300 134Q300 153 288 165.5Q276 178 249 186L162 213Q105 231 75.5 266.5Q46 302 46 354Q46 415 95.5 457.5Q145 500 221 500Q306 500 356.5 460.5Q407 421 407 353V342H295V356Q295 381 275.5 396Q256 411 223 411Q194 411 175.5 398Q157 385 157 363Q157 345 168.5 334.5Q180 324 205 316L275 295Q350 271 381.5 236Q413 201 413 146Q413 75 362 32Q311 -11 226 -11Q140 -11 87.5 30.5Q35 72 35 141Z" glyph-name="scircumflex" horiz-adv-x="451" unicode="&#349;" /><glyph d="M464 219V198L190 302Q119 329 84.5 373.5Q50 418 50 481Q50 562 106 614.5Q162 667 252 667Q346 667 403 615Q460 563 460 476V461H344V484Q344 523 319.5 545Q295 567 252 567Q211 567 188 547Q165 527 165 493Q165 465 180.5 443.5Q196 422 226 411L345 364Q414 336 439 303.5Q464 271 464 219ZM50 251V271L324 167Q395 140 429.5 96Q464 52 464 -12Q464 -93 408 -145.5Q352 -198 262 -198Q168 -198 110.5 -145.5Q53 -93 53 -6V8H169V-15Q169 -53 193.5 -75.5Q218 -98 261 -98Q302 -98 325.5 -78Q349 -58 349 -24Q349 4 333 25.5Q317 47 287 58L169 106Q100 132 75 164.5Q50 197 50 251Z" glyph-name="section" horiz-adv-x="513" unicode="&#167;" /><glyph d="M32 -94 79 118H202L106 -94ZM139 359Q109 359 88.5 379.5Q68 400 68 429Q68 459 88.5 479.5Q109 500 139 500Q168 500 188.5 479Q209 458 209 429Q209 400 188.5 379.5Q168 359 139 359Z" glyph-name="semicolon" horiz-adv-x="266" unicode=";" /><glyph d="M299 548H31V657H436V563L217 0H84Z" glyph-name="seven" horiz-adv-x="463" unicode="7" /><glyph d="M142 259H21V328H231V267L128 0H41Z" glyph-name="seven.denominator" horiz-adv-x="249" unicode="&#63068;" /><glyph d="M142 107H21V176H231V115L128 -152H41Z" glyph-name="seven.inferior" horiz-adv-x="249" unicode="&#8327;" /><glyph d="M142 588H20V657H231V596L128 329H41Z" glyph-name="seven.numerator" horiz-adv-x="249" unicode="&#63080;" /><glyph d="M142 739H20V808H230V747L127 480H40Z" glyph-name="seven.superior" horiz-adv-x="248" unicode="&#8311;" /><glyph d="M351 548H59V657H489V563L258 0H125Z" glyph-name="seven.tab" horiz-adv-x="546" /><glyph d="M298 398Q388 398 440 343.5Q492 289 492 196Q492 100 433.5 45Q375 -10 274 -10Q174 -10 115.5 46.5Q57 103 57 202V451Q57 552 115 609.5Q173 667 275 667Q370 667 427 617Q484 567 484 482V472H363V480Q363 516 339.5 537.5Q316 559 277 559Q232 559 207 533.5Q182 508 182 462V360Q206 379 235.5 388.5Q265 398 298 398ZM364 192Q364 241 341 268.5Q318 296 275 296Q247 296 224.5 286.5Q202 277 182 256V203Q182 151 205.5 123Q229 95 273 95Q316 95 340 120.5Q364 146 364 192Z" glyph-name="six" horiz-adv-x="537" unicode="6" /><glyph d="M167 201Q212 201 238 174Q264 147 264 99Q264 50 234 22.5Q204 -5 151 -5Q97 -5 67 22Q37 49 37 98V219Q37 273 67 303Q97 333 151 333Q201 333 230.5 307.5Q260 282 260 238V234H181V236Q181 249 173.5 256.5Q166 264 153 264Q135 264 126.5 254.5Q118 245 118 226V188Q127 194 140 197.5Q153 201 167 201ZM181 97Q181 117 173 127Q165 137 149 137Q141 137 133.5 134.5Q126 132 118 126V100Q118 80 125.5 71Q133 62 149 62Q164 62 172.5 71Q181 80 181 97Z" glyph-name="six.denominator" horiz-adv-x="293" unicode="&#63067;" /><glyph d="M167 49Q212 49 238 22Q264 -5 264 -53Q264 -102 234 -129.5Q204 -157 151 -157Q97 -157 67 -130Q37 -103 37 -54V67Q37 121 67 151Q97 181 151 181Q201 181 230.5 155.5Q260 130 260 86V82H181V84Q181 97 173.5 104.5Q166 112 153 112Q135 112 126.5 102.5Q118 93 118 74V36Q127 42 140 45.5Q153 49 167 49ZM181 -55Q181 -35 173 -25Q165 -15 149 -15Q141 -15 133.5 -17.5Q126 -20 118 -26V-52Q118 -72 125.5 -81Q133 -90 149 -90Q164 -90 172.5 -81Q181 -72 181 -55Z" glyph-name="six.inferior" horiz-adv-x="293" unicode="&#8326;" /><glyph d="M167 531Q212 531 238 503.5Q264 476 264 428Q264 379 234 351.5Q204 324 151 324Q97 324 67 351.5Q37 379 37 428V549Q37 603 67 632.5Q97 662 151 662Q201 662 230.5 636.5Q260 611 260 568V563H181V565Q181 578 173.5 586Q166 594 153 594Q136 594 127 584Q118 574 118 555V517Q128 524 140.5 527.5Q153 531 167 531ZM181 426Q181 446 173 456Q165 466 149 466Q141 466 133.5 463.5Q126 461 118 455V430Q118 410 125.5 400.5Q133 391 149 391Q164 391 172.5 400Q181 409 181 426Z" glyph-name="six.numerator" horiz-adv-x="293" unicode="&#63079;" /><glyph d="M165 681Q210 681 236 654Q262 627 262 579Q262 530 232 502.5Q202 475 149 475Q96 475 65.5 502.5Q35 530 35 578V699Q35 753 65 783Q95 813 149 813Q199 813 228.5 787.5Q258 762 258 718V714H180V716Q180 729 172 736.5Q164 744 151 744Q134 744 125 734.5Q116 725 116 706V668Q127 675 139 678Q151 681 165 681ZM179 577Q179 597 171 607Q163 617 148 617Q140 617 132 614.5Q124 612 116 606V580Q116 561 124 551.5Q132 542 148 542Q163 542 171 551Q179 560 179 577Z" glyph-name="six.superior" horiz-adv-x="291" unicode="&#8310;" /><glyph d="M303 398Q393 398 445 343.5Q497 289 497 196Q497 100 438.5 45Q380 -10 279 -10Q179 -10 121 46.5Q63 103 63 202V451Q63 552 121 609.5Q179 667 281 667Q376 667 432.5 617Q489 567 489 482V472H369V480Q369 515 345 537Q321 559 282 559Q237 559 212 533.5Q187 508 187 462V360Q211 379 240.5 388.5Q270 398 303 398ZM369 192Q369 241 346 268.5Q323 296 280 296Q252 296 229.5 286.5Q207 277 187 256V203Q187 151 210.5 123Q234 95 278 95Q321 95 345 120.5Q369 146 369 192Z" glyph-name="six.tab" horiz-adv-x="546" /><glyph d="M26 -111 321 765H437L142 -111Z" glyph-name="slash" horiz-adv-x="463" unicode="/" /><glyph glyph-name="space" horiz-adv-x="197" unicode=" " /><glyph d="M106 238H45V336H106V462Q106 555 162 611Q218 667 310 667Q401 667 456.5 611.5Q512 556 512 465V435H392V464Q392 507 370.5 531.5Q349 556 311 556Q273 556 251.5 530.5Q230 505 230 460V336H391V238H230V109H515V0H45V109H106Z" glyph-name="sterling" horiz-adv-x="563" unicode="&#163;" /><glyph d="M484 657V544H206L367 335L187 113H500V0H42V108L226 336L53 549V657Z" glyph-name="summation" horiz-adv-x="542" unicode="&#8721;" /><glyph d="M105 384H24V485H105V619H225V485H307V384H225V0H105Z" glyph-name="t" horiz-adv-x="331" unicode="t" /><glyph d="M94 384H26V485H94V619H214V485H319V384H214V168Q214 137 233.5 119.5Q253 102 288 102H319V0H275Q187 0 140.5 45Q94 90 94 175Z" glyph-name="t.alt" horiz-adv-x="347" /><glyph d="M305 310V232H31V310ZM108 384H27V485H108V619H228V485H310V384H228V0H108Z" glyph-name="tbar" horiz-adv-x="336" unicode="&#359;" /><glyph d="M324 309V232H37V309ZM114 383H46V484H114V618H234V484H339V383H234V167Q234 136 253.5 118.5Q273 101 308 101H339V-1H295Q207 -1 160.5 44Q114 89 114 174Z" glyph-name="tbar.alt" horiz-adv-x="377" /><glyph d="M268 523 291 677H397L332 523ZM105 384H24V485H105V619H225V485H307V384H225V0H105Z" glyph-name="tcaron" horiz-adv-x="331" unicode="&#357;" /><glyph d="M94 384H26V485H94V619H214V485H319V384H214V168Q214 137 233.5 119.5Q253 102 288 102H319V0H275Q187 0 140.5 45Q94 90 94 175ZM256 523 279 677H385L320 523Z" glyph-name="tcaron.alt" horiz-adv-x="347" /><glyph d="M61 677H182V453Q201 475 230 487.5Q259 500 293 500Q371 500 415 449Q459 398 459 310V180Q459 92 415 41Q371 -10 293 -10Q259 -10 230 2Q201 14 182 36V-187H61ZM263 395Q227 395 204.5 371Q182 347 182 308V181Q182 143 204.5 119Q227 95 263 95Q298 95 318.5 118Q339 141 339 179V310Q339 349 318.5 372Q298 395 263 395Z" glyph-name="thorn" horiz-adv-x="506" unicode="&#254;" /><glyph d="M248 289H203V386H248Q296 386 319 407Q342 428 342 472Q342 511 319 533Q296 555 256 555Q215 555 191.5 532.5Q168 510 168 471V457H48V473Q48 558 107 612.5Q166 667 259 667Q353 667 409.5 617Q466 567 466 486Q466 437 447 400.5Q428 364 392 342Q434 321 456 280.5Q478 240 478 183Q478 95 418 42.5Q358 -10 258 -10Q161 -10 102.5 43Q44 96 44 184V199H164V186Q164 145 188.5 121.5Q213 98 256 98Q301 98 325.5 123.5Q350 149 350 196Q350 242 324.5 265.5Q299 289 248 289Z" glyph-name="three" horiz-adv-x="526" unicode="3" /><glyph d="M132 136H111V197H132Q152 197 160 204.5Q168 212 168 229Q168 245 160.5 253Q153 261 138 261Q124 261 116 252Q108 243 108 228V223H30V230Q30 275 61 304Q92 333 141 333Q190 333 219.5 307.5Q249 282 249 240Q249 216 240 198Q231 180 215 170Q234 160 244 140.5Q254 121 254 94Q254 49 222.5 22Q191 -5 139 -5Q88 -5 58 23Q28 51 28 98V106H106V100Q106 83 114.5 73.5Q123 64 138 64Q154 64 162.5 74Q171 84 171 102Q171 120 161.5 128Q152 136 132 136Z" glyph-name="three.denominator" horiz-adv-x="285" unicode="&#63064;" /><glyph d="M132 -16H112V45H132Q152 45 160 52Q168 59 168 77Q168 93 160.5 101Q153 109 139 109Q125 109 117 100Q109 91 109 76V71H30V78Q30 122 61.5 151.5Q93 181 142 181Q191 181 220 155.5Q249 130 249 88Q249 64 240 46Q231 28 215 18Q234 8 244 -11.5Q254 -31 254 -58Q254 -103 223 -130Q192 -157 140 -157Q89 -157 58.5 -129Q28 -101 28 -54V-46H107V-52Q107 -69 115 -78.5Q123 -88 138 -88Q155 -88 163.5 -78.5Q172 -69 172 -50Q172 -32 162.5 -24Q153 -16 132 -16Z" glyph-name="three.inferior" horiz-adv-x="286" unicode="&#8323;" /><glyph d="M132 466H112V527H132Q152 527 160 534Q168 541 168 559Q168 574 160.5 582Q153 590 139 590Q125 590 117 581Q109 572 109 557V552H30V560Q30 604 61.5 633Q93 662 142 662Q191 662 220 636.5Q249 611 249 569Q249 546 240.5 528Q232 510 215 499Q234 489 244 469.5Q254 450 254 423Q254 378 223 351Q192 324 140 324Q89 324 58.5 352Q28 380 28 427V435H107V429Q107 412 115 402.5Q123 393 138 393Q154 393 163 403Q172 413 172 431Q172 449 162.5 457.5Q153 466 132 466Z" glyph-name="three.numerator" horiz-adv-x="286" unicode="&#63076;" /><glyph d="M258 289H213V386H258Q306 386 329 407Q352 428 352 472Q352 511 329 533Q306 555 266 555Q225 555 201.5 532.5Q178 510 178 471V457H58V473Q58 558 117 612.5Q176 667 269 667Q363 667 419.5 617Q476 567 476 486Q476 437 457 400.5Q438 364 402 342Q444 321 466 280.5Q488 240 488 183Q488 95 428 42.5Q368 -10 268 -10Q171 -10 112.5 43Q54 96 54 184V199H174V186Q174 145 198.5 121.5Q223 98 266 98Q311 98 335 123.5Q359 149 359 196Q359 242 333.5 265.5Q308 289 258 289Z" glyph-name="three.tab" horiz-adv-x="546" /><glyph d="M358 141 490 328H583V131H618V64H583V0H502V64H358ZM502 233 430 131H502ZM101 0 293 330 476 657H569L377 328L194 0ZM146 470H126V531H146Q166 531 174 538Q182 545 182 563Q182 579 174.5 587Q167 595 153 595Q139 595 130.5 586Q122 577 122 562V557H44V564Q44 608 75 637.5Q106 667 155 667Q204 667 233.5 641.5Q263 616 263 574Q263 550 254 532Q245 514 229 504Q248 494 258 474.5Q268 455 268 428Q268 383 237 356Q206 329 154 329Q103 329 72.5 357Q42 385 42 432V440H120V434Q120 417 128.5 407.5Q137 398 152 398Q168 398 177 408Q186 418 186 436Q186 454 176.5 462Q167 470 146 470Z" glyph-name="threequarters" horiz-adv-x="657" unicode="&#190;" /><glyph d="M131 619H110V680H131Q151 680 159 687.5Q167 695 167 712Q167 727 159 735Q151 743 137 743Q123 743 115 734.5Q107 726 107 710V705H29V713Q29 757 60 786Q91 815 140 815Q189 815 218 789.5Q247 764 247 722Q247 699 238.5 681Q230 663 214 653Q233 642 243 622Q253 602 253 576Q253 531 221.5 504Q190 477 138 477Q87 477 57 505Q27 533 27 580V588H105V582Q105 565 113.5 555.5Q122 546 137 546Q153 546 161.5 556Q170 566 170 584Q170 602 160.5 610.5Q151 619 131 619Z" glyph-name="threesuperior" horiz-adv-x="283" unicode="&#179;" /><glyph d="M247 627Q261 627 269.5 640.5Q278 654 278 669H340Q341 664 341 658.5Q341 653 341 644Q341 597 319 572Q297 547 257 547Q243 547 228.5 551Q214 555 199 562L156 583Q145 589 137.5 591Q130 593 124 593Q107 593 96.5 578.5Q86 564 86 550H24Q22 556 21 564Q20 572 20 578Q20 620 46.5 647Q73 674 114 674Q127 674 140 670.5Q153 667 167 661L208 641Q226 632 233.5 629.5Q241 627 247 627Z" glyph-name="tilde" horiz-adv-x="361" unicode="&#732;" /><glyph d="M247 776Q261 776 269.5 789.5Q278 803 278 818H340Q341 813 341 808Q341 803 341 793Q341 746 319 721Q297 696 257 696Q243 696 228.5 700Q214 704 199 711L156 732Q145 738 137.5 740Q130 742 124 742Q107 742 96.5 727.5Q86 713 86 699H24Q21 713 20.5 718Q20 723 20 727Q20 769 46.5 796Q73 823 114 823Q127 823 140 819.5Q153 816 167 810L208 790Q226 781 233.5 778.5Q241 776 247 776Z" glyph-name="tilde.case" horiz-adv-x="361" /><glyph d="M646 492 576 376H526L461 486V289H381V657H456L556 482L654 657H729V289H646ZM155 578H59V657H343V578H248V289H155Z" glyph-name="trademark" horiz-adv-x="797" unicode="&#8482;" /><glyph d="M479 0H46V49Q46 137 72.5 189Q99 241 158 280L274 357Q313 382 331.5 412Q350 442 350 478Q350 514 327 534.5Q304 555 263 555Q221 555 196.5 532Q172 509 172 470V452H52V472Q52 558 111.5 612.5Q171 667 267 667Q364 667 421.5 617.5Q479 568 479 484Q479 418 449.5 368Q420 318 356 276L239 198Q215 182 201 161.5Q187 141 184 114H479Z" glyph-name="two" horiz-adv-x="529" unicode="2" /><glyph d="M258 0H30V40Q30 73 41.5 98Q53 123 76 138L139 179Q157 190 165.5 203Q174 216 174 232Q174 246 166.5 253.5Q159 261 145 261Q129 261 120.5 252.5Q112 244 112 229V221H34V231Q34 276 66 304.5Q98 333 148 333Q198 333 228 306.5Q258 280 258 236Q258 201 243 175Q228 149 193 126L142 94Q135 90 130 83.5Q125 77 124 73H258Z" glyph-name="two.denominator" horiz-adv-x="291" unicode="&#63063;" /><glyph d="M257 -152H30V-113Q30 -78 41.5 -53.5Q53 -29 75 -14L139 27Q156 38 164.5 51Q173 64 173 80Q173 94 165.5 101.5Q158 109 144 109Q129 109 120.5 100.5Q112 92 112 77V69H33V79Q33 124 65 152.5Q97 181 147 181Q197 181 227 154.5Q257 128 257 84Q257 49 242 23Q227 -3 192 -26L141 -58Q134 -63 129 -69Q124 -75 124 -79H257Z" glyph-name="two.inferior" horiz-adv-x="290" unicode="&#8322;" /><glyph d="M257 329H29V369Q29 403 40.5 427.5Q52 452 75 467L138 508Q156 519 164.5 532Q173 545 173 562Q173 576 165.5 583Q158 590 144 590Q128 590 119.5 581.5Q111 573 111 558V550H33V560Q33 605 65 633.5Q97 662 147 662Q197 662 227 636Q257 610 257 566Q257 530 242 504Q227 478 192 456L141 423Q134 419 129 412.5Q124 406 123 402H257Z" glyph-name="two.numerator" horiz-adv-x="290" unicode="&#63075;" /><glyph d="M487 0H54V49Q54 137 80.5 189Q107 241 166 280L282 357Q320 382 338.5 411.5Q357 441 357 478Q357 515 334.5 535Q312 555 271 555Q229 555 204.5 532Q180 509 180 470V452H60V472Q60 558 119.5 612.5Q179 667 275 667Q372 667 429.5 617.5Q487 568 487 484Q487 418 457.5 368Q428 318 364 276L247 198Q223 182 209 161.5Q195 141 192 114H487Z" glyph-name="two.tab" horiz-adv-x="546" /><glyph d="M256 480H29V520Q29 554 40.5 578.5Q52 603 74 618L137 659Q155 670 163.5 683Q172 696 172 712Q172 726 164.5 733.5Q157 741 143 741Q127 741 118.5 732.5Q110 724 110 709V701H32V711Q32 756 64 784.5Q96 813 146 813Q196 813 226 786.5Q256 760 256 716Q256 681 241 655Q226 629 191 606L140 574Q133 569 128 563Q123 557 123 553H256Z" glyph-name="twosuperior" horiz-adv-x="288" unicode="&#178;" /><glyph d="M215 -10Q140 -10 98.5 36Q57 82 57 164V490H178V171Q178 136 197 115.5Q216 95 249 95Q285 95 307.5 119Q330 143 330 181V490H450V0H347L337 47Q317 20 285 5Q253 -10 215 -10Z" glyph-name="u" horiz-adv-x="511" unicode="u" /><glyph d="M310 723 386 652 254 542 198 591ZM215 -10Q140 -10 98.5 36Q57 82 57 164V490H178V171Q178 136 197 115.5Q216 95 249 95Q285 95 307.5 119Q330 143 330 181V490H450V0H347L337 47Q317 20 285 5Q253 -10 215 -10Z" glyph-name="uacute" horiz-adv-x="511" unicode="&#250;" /><glyph d="M215 -10Q140 -10 98.5 36Q57 82 57 164V490H178V171Q178 136 197 115.5Q216 95 249 95Q285 95 307.5 119Q330 143 330 181V490H450V0H347L337 47Q317 20 285 5Q253 -10 215 -10ZM300 652V673H372V652Q372 605 338.5 573.5Q305 542 253 542Q201 542 168 573.5Q135 605 135 652V673H207V652Q207 631 219.5 618Q232 605 253 605Q274 605 287 618Q300 631 300 652Z" glyph-name="ubreve" horiz-adv-x="511" unicode="&#365;" /><glyph d="M119 582 227 715H280L388 582L341 542L252 619L165 543ZM215 -10Q140 -10 98.5 36Q57 82 57 164V490H178V171Q178 136 197 115.5Q216 95 249 95Q285 95 307.5 119Q330 143 330 181V490H450V0H347L337 47Q317 20 285 5Q253 -10 215 -10Z" glyph-name="ucircumflex" horiz-adv-x="511" unicode="&#251;" /><glyph d="M185 551Q160 551 142.5 569Q125 587 125 612Q125 636 142.5 653Q160 670 185 670Q210 670 226.5 653.5Q243 637 243 612Q243 587 226 569Q209 551 185 551ZM324 551Q300 551 282.5 569Q265 587 265 612Q265 637 282 653.5Q299 670 324 670Q349 670 366 653.5Q383 637 383 612Q383 587 365.5 569Q348 551 324 551ZM215 -10Q140 -10 98.5 36Q57 82 57 164V490H178V171Q178 136 197 115.5Q216 95 249 95Q285 95 307.5 119Q330 143 330 181V490H450V0H347L337 47Q317 20 285 5Q253 -10 215 -10Z" glyph-name="udieresis" horiz-adv-x="511" unicode="&#252;" /><glyph d="M215 -10Q140 -10 98.5 36Q57 82 57 164V490H178V171Q178 136 197 115.5Q216 95 249 95Q285 95 307.5 119Q330 143 330 181V490H450V0H347L337 47Q317 20 285 5Q253 -10 215 -10ZM309 591 253 542 121 652 197 723Z" glyph-name="ugrave" horiz-adv-x="511" unicode="&#249;" /><glyph d="M215 -10Q140 -10 98.5 36Q57 82 57 164V490H178V171Q178 136 197 115.5Q216 95 249 95Q285 95 307.5 119Q330 143 330 181V490H450V0H347L337 47Q317 20 285 5Q253 -10 215 -10ZM245 717 311 662 188 542 142 581ZM395 712 452 649 317 543 277 588Z" glyph-name="uhungarumlaut" horiz-adv-x="511" unicode="&#369;" /><glyph d="M215 -10Q140 -10 98.5 36Q57 82 57 164V490H178V171Q178 136 197 115.5Q216 95 249 95Q285 95 307.5 119Q330 143 330 181V490H450V0H347L337 47Q317 20 285 5Q253 -10 215 -10ZM374 563H134V648H374Z" glyph-name="umacron" horiz-adv-x="511" unicode="&#363;" /><glyph d="M631 -118H59V-30H631Z" glyph-name="underscore" horiz-adv-x="690" unicode="_" /><glyph glyph-name="uni00A0" horiz-adv-x="197" unicode="&#160;" /><glyph d="M298 206H58V313H298Z" glyph-name="uni00AD" horiz-adv-x="356" unicode="&#173;" /><glyph d="M198 -235 236 -50H359L272 -235ZM393 236H297V334H509V206Q509 108 448 49Q387 -10 285 -10Q181 -10 118 50Q55 110 55 209V448Q55 550 117 608.5Q179 667 287 667Q388 667 448.5 611Q509 555 509 461V445H389V460Q389 504 361.5 529.5Q334 555 286 555Q237 555 208.5 525.5Q180 496 180 446V211Q180 161 208 131.5Q236 102 284 102Q335 102 364 130Q393 158 393 207Z" glyph-name="uni0122" horiz-adv-x="558" unicode="&#290;" /><glyph d="M333 733 295 548H172L259 733ZM213 9Q135 9 90.5 60Q46 111 46 199V310Q46 398 90.5 449Q135 500 213 500Q250 500 281 485.5Q312 471 332 444L341 490H444V-16Q444 -99 390.5 -148Q337 -197 248 -197Q160 -197 106 -153.5Q52 -110 52 -40V-36H168V-45Q168 -71 189 -86.5Q210 -102 246 -102Q284 -102 304 -80.5Q324 -59 324 -20V55Q304 33 275.5 21Q247 9 213 9ZM243 114Q279 114 301.5 138Q324 162 324 201V308Q324 347 301.5 371Q279 395 243 395Q208 395 187.5 372Q167 349 167 310V199Q167 160 187.5 137Q208 114 243 114Z" glyph-name="uni0123" horiz-adv-x="506" unicode="&#291;" /><glyph d="M195 -235 233 -50H356L269 -235ZM73 657H198V343L399 657H538L366 384L544 0H404L278 280L198 155V0H73Z" glyph-name="uni0136" horiz-adv-x="556" unicode="&#310;" /><glyph d="M155 -235 193 -50H316L229 -235ZM61 0V677H182V298L333 490H464L315 302L472 0H339L234 208L182 142V0Z" glyph-name="uni0137" horiz-adv-x="484" unicode="&#311;" /><glyph d="M156 -235 194 -50H317L230 -235ZM73 657H198V112H455V0H73Z" glyph-name="uni013B" horiz-adv-x="469" unicode="&#315;" /><glyph d="M22 -235 60 -50H183L96 -235ZM63 0V677H183V0Z" glyph-name="uni013C" horiz-adv-x="246" unicode="&#316;" /><glyph d="M212 -235 250 -50H373L286 -235ZM408 657H522V0H420L187 415V0H73V657H180L408 252Z" glyph-name="uni0145" horiz-adv-x="595" unicode="&#325;" /><glyph d="M161 -235 199 -50H322L235 -235ZM182 308V0H61V490H165L173 442Q195 470 226.5 485Q258 500 297 500Q374 500 416.5 451.5Q459 403 459 317V0H339V310Q339 349 318.5 372Q298 395 263 395Q227 395 204.5 371Q182 347 182 308Z" glyph-name="uni0146" horiz-adv-x="517" unicode="&#326;" /><glyph d="M190 -235 228 -50H351L264 -235ZM425 270 533 0H397L302 241Q300 241 298 241Q296 241 294 241H198V0H73V657H304Q403 657 466 600.5Q529 544 529 453Q529 392 502 344Q475 296 425 270ZM402 450Q402 495 372 521.5Q342 548 291 548H198V350H291Q342 350 372 377Q402 404 402 450Z" glyph-name="uni0156" horiz-adv-x="574" unicode="&#342;" /><glyph d="M25 -235 63 -50H186L99 -235ZM182 299V0H61V490H165L175 434Q194 465 223.5 482.5Q253 500 288 500Q296 500 303 499Q310 498 317 496V383Q306 385 295 386Q284 387 276 387Q233 387 207.5 364Q182 341 182 299Z" glyph-name="uni0157" horiz-adv-x="336" unicode="&#343;" /><glyph d="M176 545H18V657H457V545H300V0H176ZM261 -97H203L182 -81L210 15H277L260 -40H272Q311 -40 332 -59Q353 -78 353 -112Q353 -147 331 -167Q309 -187 272 -187H160V-130H261Q270 -130 275 -125.5Q280 -121 280 -113Q280 -105 275 -101Q270 -97 261 -97Z" glyph-name="uni0162" horiz-adv-x="476" unicode="&#354;" /><glyph d="M105 384H24V485H105V619H225V485H307V384H225V0H105ZM187 -97H129L108 -81L136 15H203L186 -40H198Q237 -40 258 -59Q279 -78 279 -112Q279 -147 257 -167Q235 -187 198 -187H86V-130H187Q196 -130 201 -125.5Q206 -121 206 -113Q206 -105 201 -101Q196 -97 187 -97Z" glyph-name="uni0163" horiz-adv-x="331" unicode="&#355;" /><glyph d="M226 -97H168L148 -81L183 38L244 20L225 -40H237Q276 -40 297 -59Q318 -78 318 -112Q318 -147 296 -167Q274 -187 237 -187H125V-130H226Q235 -130 240 -125.5Q245 -121 245 -113Q245 -105 240 -101Q235 -97 226 -97ZM94 384H26V485H94V619H214V485H319V384H214V168Q214 137 233.5 119.5Q253 102 288 102H319V0H275Q187 0 140.5 45Q94 90 94 175Z" glyph-name="uni0163.alt" horiz-adv-x="347" /><glyph d="M180 -235 218 -50H341L254 -235ZM479 473V459H357V478Q357 517 331 540.5Q305 564 262 564Q221 564 197 544Q173 524 173 491Q173 466 189 447Q205 428 235 417L328 383Q421 349 457 304Q493 259 493 191Q493 101 431 45.5Q369 -10 268 -10Q164 -10 101 43Q38 96 38 184V206H161V179Q161 139 188.5 116.5Q216 94 265 94Q314 94 342.5 116.5Q371 139 371 177Q371 208 353 229Q335 250 299 263L199 301Q124 329 88 373Q52 417 52 482Q52 562 110.5 614.5Q169 667 262 667Q361 667 420 614.5Q479 562 479 473Z" glyph-name="uni0218" horiz-adv-x="533" unicode="&#536;" /><glyph d="M138 -235 176 -50H299L212 -235ZM35 141V156H146V137Q146 110 167 95Q188 80 224 80Q261 80 280.5 94Q300 108 300 134Q300 153 288 165.5Q276 178 249 186L162 213Q105 231 75.5 266.5Q46 302 46 354Q46 415 95.5 457.5Q145 500 221 500Q306 500 356.5 460.5Q407 421 407 353V342H295V356Q295 381 275.5 396Q256 411 223 411Q194 411 175.5 398Q157 385 157 363Q157 345 168.5 334.5Q180 324 205 316L275 295Q350 271 381.5 236Q413 201 413 146Q413 75 362 32Q311 -11 226 -11Q140 -11 87.5 30.5Q35 72 35 141Z" glyph-name="uni0219" horiz-adv-x="451" unicode="&#537;" /><glyph d="M136 -235 174 -50H297L210 -235ZM176 545H18V657H457V545H300V0H176Z" glyph-name="uni021A" horiz-adv-x="476" unicode="&#538;" /><glyph d="M64 -235 102 -50H225L138 -235ZM105 384H24V485H105V619H225V485H307V384H225V0H105Z" glyph-name="uni021B" horiz-adv-x="331" unicode="&#539;" /><glyph d="M82 -235 120 -50H243L156 -235ZM94 384H26V485H94V619H214V485H319V384H214V168Q214 137 233.5 119.5Q253 102 288 102H319V0H275Q187 0 140.5 45Q94 90 94 175Z" glyph-name="uni021B.alt" horiz-adv-x="360" /><glyph d="M-37 -197V-95H-16Q22 -95 41.5 -77Q61 -59 61 -25V490H182V-18Q182 -105 135 -151Q88 -197 -2 -197Z" glyph-name="uni0237" horiz-adv-x="243" unicode="&#567;" /><glyph d="M260 563H20V649H260Z" glyph-name="uni02C9" horiz-adv-x="280" unicode="&#713;" /><glyph d="M470 0H72V109H470ZM268 480 144 0H18L205 657H338L525 0H392Z" glyph-name="uni0394" horiz-adv-x="542" unicode="&#916;" /><glyph d="M558 0H347V107Q376 113 392 136.5Q408 160 408 197V446Q408 496 379.5 525.5Q351 555 301 555Q251 555 222.5 525.5Q194 496 194 446V197Q194 160 210 136.5Q226 113 255 107V0H45V82H139Q105 104 87.5 142Q70 180 70 235V448Q70 551 131 609Q192 667 301 667Q411 667 472 609Q533 551 533 448V235Q533 182 515.5 143Q498 104 463 82H558Z" glyph-name="uni03A9" horiz-adv-x="602" unicode="&#937;" /><glyph d="M181 -187H61V490H181V171Q181 136 200 115.5Q219 95 253 95Q288 95 309.5 117.5Q331 140 333 177V490H454V0H350L341 47Q320 19 288.5 4.5Q257 -10 218 -10Q207 -10 196.5 -7.5Q186 -5 176 1L181 -143Z" glyph-name="uni03BC" horiz-adv-x="515" unicode="&#956;" /><glyph d="M354 352 80 159 22 249 287 435Q318 456 330.5 475.5Q343 495 343 521Q343 544 328.5 559Q314 574 291 574Q264 574 249.5 554.5Q235 535 235 499V458H115V499Q115 581 160.5 627.5Q206 674 285 674Q362 674 408 631Q454 588 454 522Q454 472 429.5 430Q405 388 354 352ZM312 102H434V0H299Q209 0 162 45.5Q115 91 115 179V467H235V172Q235 138 254.5 120Q274 102 312 102Z" glyph-name="uni2113" horiz-adv-x="486" unicode="&#8467;" /><glyph d="M108 0 301 330 483 657H576L385 328L202 0ZM101 586H46V657H182V398H239V329H46V398H101ZM503 136H483V197H503Q523 197 531 204Q539 211 539 229Q539 245 531.5 253Q524 261 510 261Q496 261 487.5 252Q479 243 479 228V223H401V230Q401 275 432 304Q463 333 512 333Q561 333 590.5 307.5Q620 282 620 240Q620 216 611 198Q602 180 586 170Q605 160 615 140.5Q625 121 625 94Q625 49 594 22Q563 -5 511 -5Q460 -5 429.5 23Q399 51 399 98V106H477V100Q477 83 485.5 73.5Q494 64 509 64Q525 64 533.5 74Q542 84 542 102Q542 120 533 128Q524 136 503 136Z" glyph-name="uni2153" horiz-adv-x="666" unicode="&#8531;" /><glyph d="M137 0 330 330 512 657H605L414 328L231 0ZM532 136H512V197H532Q552 197 560 204Q568 211 568 229Q568 245 560.5 253Q553 261 539 261Q525 261 516.5 252Q508 243 508 228V223H430V230Q430 275 461 304Q492 333 541 333Q590 333 619.5 307.5Q649 282 649 240Q649 216 640 198Q631 180 615 170Q634 160 644 140.5Q654 121 654 94Q654 49 623 22Q592 -5 540 -5Q489 -5 458.5 23Q428 51 428 98V106H506V100Q506 83 514.5 73.5Q523 64 538 64Q554 64 562.5 74Q571 84 571 102Q571 120 561.5 128Q552 136 532 136ZM270 329H43V369Q43 403 54.5 427.5Q66 452 88 467L151 508Q169 519 177.5 532Q186 545 186 561Q186 575 178.5 582.5Q171 590 157 590Q141 590 132.5 581.5Q124 573 124 558V550H46V560Q46 605 78 633.5Q110 662 160 662Q210 662 240 635.5Q270 609 270 565Q270 530 255 504Q240 478 205 455L154 423Q147 418 142 412Q137 406 137 402H270Z" glyph-name="uni2154" horiz-adv-x="695" unicode="&#8532;" /><glyph d="M108 0 301 330 483 657H576L385 328L202 0ZM101 586H46V657H182V398H239V329H46V398H101ZM425 328H628V259H497V197Q506 204 519 208Q532 212 548 212Q592 212 618.5 183.5Q645 155 645 106Q645 55 614 25Q583 -5 531 -5Q480 -5 449 19.5Q418 44 418 85V93H496V88Q496 75 504 68.5Q512 62 528 62Q544 62 552.5 73Q561 84 561 104Q561 126 553 137Q545 148 529 148Q521 148 514 145Q507 142 495 132H425Z" glyph-name="uni2155" horiz-adv-x="686" unicode="&#8533;" /><glyph d="M130 0 323 330 505 657H598L407 328L224 0ZM447 328H650V259H519V197Q528 204 541 208Q554 212 570 212Q614 212 640.5 183.5Q667 155 667 106Q667 55 636 25Q605 -5 553 -5Q502 -5 471 19.5Q440 44 440 85V93H518V88Q518 75 526 68.5Q534 62 550 62Q566 62 574.5 73Q583 84 583 104Q583 126 575 137Q567 148 551 148Q543 148 536 145Q529 142 517 132H447ZM271 329H43V369Q43 402 54.5 427Q66 452 89 467L152 508Q170 519 178.5 532Q187 545 187 561Q187 575 179.5 582.5Q172 590 158 590Q142 590 133.5 582Q125 574 125 558V550H47V560Q47 605 79 633.5Q111 662 161 662Q211 662 241 635.5Q271 609 271 565Q271 530 256 504Q241 478 206 455L155 423Q148 419 143 412.5Q138 406 137 402H271Z" glyph-name="uni2156" horiz-adv-x="708" unicode="&#8534;" /><glyph d="M101 0 294 330 476 657H569L378 328L195 0ZM418 328H621V259H490V197Q499 204 512 208Q525 212 541 212Q585 212 611.5 183.5Q638 155 638 106Q638 55 607 25Q576 -5 524 -5Q473 -5 442 19.5Q411 44 411 85V93H489V88Q489 75 497 68.5Q505 62 521 62Q537 62 545.5 73Q554 84 554 104Q554 126 546 137Q538 148 522 148Q514 148 507 145Q500 142 488 132H418ZM146 470H125V531H146Q166 531 174 538.5Q182 546 182 563Q182 578 174 586Q166 594 152 594Q138 594 130 585.5Q122 577 122 561V556H44V564Q44 608 75 637Q106 666 155 666Q204 666 233 640.5Q262 615 262 573Q262 549 253 531.5Q244 514 228 504Q247 493 257.5 473.5Q268 454 268 427Q268 382 236.5 355Q205 328 153 328Q102 328 72 356Q42 384 42 431V439H120V433Q120 416 128.5 406.5Q137 397 152 397Q168 397 176.5 407Q185 417 185 435Q185 453 175.5 461.5Q166 470 146 470Z" glyph-name="uni2157" horiz-adv-x="679" unicode="&#8535;" /><glyph d="M134 0 327 330 509 657H602L411 328L228 0ZM451 328H654V259H522V197Q532 204 545 208Q558 212 574 212Q618 212 644 183.5Q670 155 670 106Q670 55 639.5 25Q609 -5 557 -5Q506 -5 475 19.5Q444 44 444 85V93H522V88Q522 75 530 68.5Q538 62 554 62Q570 62 578.5 73Q587 84 587 104Q587 126 579 137Q571 148 555 148Q547 148 540.5 145.5Q534 143 521 132H451ZM36 470 168 657H261V460H296V393H261V329H180V393H36ZM180 562 108 460H180Z" glyph-name="uni2158" horiz-adv-x="713" unicode="&#8536;" /><glyph d="M108 0 301 330 483 657H576L385 328L202 0ZM101 586H46V657H182V398H239V329H46V398H101ZM543 201Q588 201 614 174Q640 147 640 99Q640 50 610 22.5Q580 -5 527 -5Q474 -5 443.5 22.5Q413 50 413 98V219Q413 273 443 303Q473 333 527 333Q577 333 606.5 307.5Q636 282 636 238V234H558V236Q558 249 550 256.5Q542 264 529 264Q512 264 503 254.5Q494 245 494 226V188Q505 195 517 198Q529 201 543 201ZM557 97Q557 117 549 127Q541 137 526 137Q518 137 510 134.5Q502 132 494 126V100Q494 81 502 71.5Q510 62 526 62Q541 62 549 71Q557 80 557 97Z" glyph-name="uni2159" horiz-adv-x="682" unicode="&#8537;" /><glyph d="M111 0 304 330 486 657H579L387 328L205 0ZM546 201Q591 201 617 174Q643 147 643 99Q643 50 613 22.5Q583 -5 530 -5Q477 -5 446.5 22.5Q416 50 416 98V219Q416 273 446 303Q476 333 530 333Q580 333 609.5 307.5Q639 282 639 238V234H560V236Q560 249 552.5 256.5Q545 264 532 264Q514 264 505.5 254.5Q497 245 497 226V188Q508 195 520 198Q532 201 546 201ZM560 97Q560 116 552 126.5Q544 137 529 137Q521 137 513 134.5Q505 132 497 126V100Q497 80 504.5 71Q512 62 528 62Q543 62 551.5 71Q560 80 560 97ZM49 657H252V588H121V526Q130 533 143 537Q156 541 173 541Q217 541 243 512.5Q269 484 269 435Q269 384 238 354Q207 324 156 324Q104 324 73 348.5Q42 373 42 414V422H120V417Q120 404 128 397.5Q136 391 152 391Q168 391 177 402Q186 413 186 433Q186 455 178 466Q170 477 153 477Q145 477 138 474Q131 471 119 461H49Z" glyph-name="uni215A" horiz-adv-x="684" unicode="&#8538;" /><glyph d="M108 0 301 330 483 657H576L385 328L202 0ZM101 586H46V657H182V398H239V329H46V398H101ZM523 333Q571 333 600 307.5Q629 282 629 240Q629 216 620.5 198.5Q612 181 595 170Q615 160 625.5 140.5Q636 121 636 93Q636 49 605 22Q574 -5 523 -5Q472 -5 441 22Q410 49 410 93Q410 121 420 141Q430 161 450 170Q433 179 424 197Q415 215 415 240Q415 282 444.5 307.5Q474 333 523 333ZM522 138Q507 138 499.5 128Q492 118 492 98Q492 79 500 69Q508 59 523 59Q538 59 546 69Q554 79 554 98Q554 117 546 127.5Q538 138 522 138ZM522 266Q509 266 502 257.5Q495 249 495 233Q495 214 502 205Q509 196 523 196Q536 196 542.5 205Q549 214 549 233Q549 249 542 257.5Q535 266 522 266Z" glyph-name="uni215B" horiz-adv-x="676" unicode="&#8539;" /><glyph d="M106 0 298 330 481 657H574L382 328L199 0ZM521 333Q569 333 598 307.5Q627 282 627 240Q627 216 618 198Q609 180 592 170Q612 161 622.5 141.5Q633 122 633 93Q633 49 602.5 22Q572 -5 521 -5Q470 -5 439 22Q408 49 408 93Q408 122 418 141.5Q428 161 448 170Q431 179 422 196.5Q413 214 413 240Q413 282 442.5 307.5Q472 333 521 333ZM520 138Q505 138 497.5 128Q490 118 490 98Q490 78 497.5 68.5Q505 59 521 59Q536 59 543.5 69Q551 79 551 98Q551 118 543 128Q535 138 520 138ZM520 266Q506 266 499.5 258Q493 250 493 233Q493 214 500 205Q507 196 521 196Q534 196 540 205Q546 214 546 233Q546 250 539.5 258Q533 266 520 266ZM146 470H125V531H146Q166 531 174 538.5Q182 546 182 563Q182 578 174 586Q166 594 152 594Q138 594 130 585.5Q122 577 122 561V556H44V564Q44 608 75 637Q106 666 155 666Q204 666 233 640.5Q262 615 262 573Q262 549 253 531.5Q244 514 228 504Q247 493 257.5 473.5Q268 454 268 427Q268 382 236.5 355Q205 328 153 328Q102 328 72 356Q42 384 42 431V439H120V433Q120 416 128.5 406.5Q137 397 152 397Q168 397 176.5 407Q185 417 185 435Q185 453 175.5 461.5Q166 470 146 470Z" glyph-name="uni215C" horiz-adv-x="674" unicode="&#8540;" /><glyph d="M110 0 303 330 485 657H578L387 328L204 0ZM525 333Q573 333 602 307.5Q631 282 631 240Q631 216 622.5 198.5Q614 181 597 170Q617 160 627.5 140.5Q638 121 638 93Q638 49 607 22Q576 -5 525 -5Q474 -5 443 22Q412 49 412 93Q412 121 422 141Q432 161 452 170Q435 179 426 197Q417 215 417 240Q417 282 446.5 307.5Q476 333 525 333ZM524 138Q509 138 501.5 128Q494 118 494 98Q494 79 502 69Q510 59 525 59Q540 59 548 69Q556 79 556 98Q556 117 548 127.5Q540 138 524 138ZM524 266Q511 266 504 257.5Q497 249 497 233Q497 214 504 205Q511 196 525 196Q538 196 544.5 205Q551 214 551 233Q551 249 544 257.5Q537 266 524 266ZM49 657H252V588H121V526Q130 533 143 537Q156 541 173 541Q217 541 243 512.5Q269 484 269 435Q269 384 238 354Q207 324 156 324Q104 324 73 348.5Q42 373 42 414V422H120V417Q120 404 128 397.5Q136 391 152 391Q168 391 177 402Q186 413 186 433Q186 455 178 466Q170 477 153 477Q145 477 138 474Q131 471 119 461H49Z" glyph-name="uni215D" horiz-adv-x="678" unicode="&#8541;" /><glyph d="M85 0 277 330 459 657H553L361 328L178 0ZM502 333Q550 333 579 307.5Q608 282 608 240Q608 216 599 198Q590 180 573 170Q593 161 603.5 141.5Q614 122 614 93Q614 49 583.5 22Q553 -5 502 -5Q451 -5 420 22Q389 49 389 93Q389 122 399 141.5Q409 161 429 170Q412 179 403 196.5Q394 214 394 240Q394 282 423.5 307.5Q453 333 502 333ZM501 138Q486 138 478.5 128Q471 118 471 98Q471 79 479 69Q487 59 502 59Q517 59 525 69Q533 79 533 98Q533 117 525 127.5Q517 138 501 138ZM501 266Q488 266 481 257.5Q474 249 474 233Q474 214 481 205Q488 196 502 196Q515 196 521.5 205.5Q528 215 528 233Q528 249 521 257.5Q514 266 501 266ZM177 588H39V657H266V596L154 329H67Z" glyph-name="uni215E" horiz-adv-x="656" unicode="&#8542;" /><glyph d="M189 0 381 330 564 657H657L465 328L282 0ZM181 586H127V657H262V398H319V329H127V398H181Z" glyph-name="uni215F" horiz-adv-x="496" unicode="&#8543;" /><glyph d="M4 0 196 330 378 657H472L280 328L97 0Z" glyph-name="uni2215" horiz-adv-x="474" unicode="&#8725;" /><glyph d="M156 164Q111 164 78.5 196.5Q46 229 46 274Q46 320 78.5 353Q111 386 156 386Q203 386 235.5 353.5Q268 321 268 274Q268 229 235 196.5Q202 164 156 164Z" glyph-name="uni2219" horiz-adv-x="314" unicode="&#8729;" /><glyph d="M296 388V431Q296 462 275.5 477Q255 492 214 492Q172 492 150.5 476.5Q129 461 129 431V352Q129 322 151 306Q173 290 214 290Q254 290 274 305.5Q294 321 294 352V355Q294 361 291 363.5Q288 366 282 366H250Q244 366 241.5 363.5Q239 361 239 355V354Q239 345 232.5 340.5Q226 336 214 336Q202 336 196.5 340.5Q191 345 191 354V377H284Q290 377 293 379.5Q296 382 296 388ZM239 417H191V428Q191 437 196.5 441.5Q202 446 214 446Q226 446 232.5 441.5Q239 437 239 428ZM378 488H340Q334 488 331.5 485.5Q329 483 329 477V306Q329 300 331.5 297.5Q334 295 340 295H381Q387 295 389 297.5Q391 300 391 306V423Q399 429 409 433.5Q419 438 428 438Q437 438 440 435Q443 432 443 422V306Q443 300 445.5 297.5Q448 295 455 295H493Q499 295 501.5 297.5Q504 300 504 306V423Q513 430 523 434Q533 438 542 438Q550 438 553 435Q556 432 556 422V306Q556 300 559 297.5Q562 295 569 295H607Q614 295 616.5 297.5Q619 300 619 306V438Q619 462 603.5 477Q588 492 562 492Q544 492 529 486Q514 480 498 466Q490 479 476.5 485.5Q463 492 447 492Q432 492 418.5 487.5Q405 483 389 471V477Q389 483 386.5 485.5Q384 488 378 488ZM762 487H731V523Q731 530 728.5 532.5Q726 535 719 535H680Q674 535 671 532Q668 529 668 523V487H667L651 486Q644 484 642 481.5Q640 479 640 475V450Q640 444 642.5 441.5Q645 439 651 439H668V355Q668 322 686 308.5Q704 295 746 295H765Q771 295 774 297.5Q777 300 777 306V333Q777 339 774 341.5Q771 344 765 344H755Q743 344 737 348.5Q731 353 731 362V439H762Q768 439 770.5 441.5Q773 444 773 450V477Q773 483 770.5 485Q768 487 762 487ZM879 370Q879 373 877 384.5Q875 396 872 407L850 477Q848 484 845.5 486Q843 488 838 488H798Q790 488 787.5 485Q785 482 787 477L852 287L836 228Q835 223 837.5 220Q840 217 847 217H875Q880 217 883.5 220Q887 223 889 228L973 477Q974 482 971.5 485Q969 488 962 488H925Q920 488 917.5 486Q915 484 913 477L889 405Q886 394 883 382.5Q880 371 879 370ZM1043 488H1007Q1001 488 998.5 485.5Q996 483 996 477V228Q996 222 998.5 219.5Q1001 217 1007 217H1047Q1053 217 1055.5 219.5Q1058 222 1058 228V311Q1072 300 1086 295Q1100 290 1116 290Q1144 290 1158.5 306Q1173 322 1173 352V432Q1173 461 1158.5 476.5Q1144 492 1116 492Q1099 492 1085 487Q1071 482 1056 470L1055 477Q1055 483 1052.5 485.5Q1050 488 1043 488ZM1095 438Q1104 438 1108 434.5Q1112 431 1112 423V361Q1112 352 1108 348Q1104 344 1095 344Q1089 344 1082.5 346.5Q1076 349 1058 360V423Q1073 432 1080.5 435Q1088 438 1095 438ZM1370 388V431Q1370 462 1349.5 477Q1329 492 1288 492Q1246 492 1225 476.5Q1204 461 1204 431V352Q1204 322 1225.5 306Q1247 290 1288 290Q1328 290 1347.5 305.5Q1367 321 1367 352V355Q1367 361 1364.5 363.5Q1362 366 1356 366H1324Q1318 366 1315 363.5Q1312 361 1312 355V354Q1312 345 1306 340.5Q1300 336 1288 336Q1276 336 1270.5 340.5Q1265 345 1265 354V377H1359Q1365 377 1367.5 379.5Q1370 382 1370 388ZM1312 417H1265V428Q1265 437 1270.5 441.5Q1276 446 1288 446Q1300 446 1306 441.5Q1312 437 1312 428ZM70 5V35Q70 38 69 39Q68 40 65 40H54Q52 40 51 39Q50 38 50 35V5Q50 2 51 1Q52 0 54 0H65Q68 0 69 1Q70 2 70 5ZM154 171V188Q154 190 153 191Q152 192 149 192H140Q137 192 136 191Q135 190 135 188V5Q135 2 136 1Q137 0 140 0H151Q153 0 154 1.5Q155 3 155 5V153Q165 163 182 169.5Q199 176 217 176Q236 176 246 168Q256 160 256 145V5Q256 1 257 0.5Q258 0 260 0H271Q273 0 274 1.5Q275 3 275 5V149Q275 170 261 182.5Q247 195 221 195Q204 195 187.5 189Q171 183 154 171ZM472 98V147Q472 171 455 183Q438 195 404 195Q369 195 351.5 183Q334 171 334 147V45Q334 21 351 9Q368 -3 403 -3Q438 -3 455 8.5Q472 20 472 45V54Q472 56 471 57Q470 58 467 58H458Q454 58 453 57Q452 56 452 54V46Q452 29 440 21Q428 13 404 13Q379 13 366.5 21Q354 29 354 46V94H468Q470 94 471 95.5Q472 97 472 98ZM452 110H354V146Q354 162 366.5 170Q379 178 404 178Q428 178 440 170Q452 162 452 146ZM603 191H556V232Q555 233 554 234.5Q553 236 552 237H541Q538 237 537.5 236Q537 235 537 232V191H533H512Q510 190 509 189Q508 188 508 186V179Q508 176 509 175Q510 174 512 174H537V48Q537 22 552.5 11Q568 0 603 0H612Q614 0 615.5 1.5Q617 3 617 5V12Q617 14 615.5 15.5Q614 17 612 17H606Q581 17 568.5 25.5Q556 34 556 50V174H603Q605 174 606 175Q607 176 607 179V187Q607 189 606.5 190Q606 191 603 191Z" glyph-name="uniF8FF" horiz-adv-x="1420" unicode="&#63743;" /><glyph d="M346 -92Q346 -108 357 -116.5Q368 -125 388 -125H436V-193H373Q327 -193 301 -171.5Q275 -150 275 -113Q275 -75 298.5 -42Q322 -9 360 9L412 0Q380 -21 363 -45Q346 -69 346 -92ZM215 -10Q140 -10 98.5 36Q57 82 57 164V490H178V171Q178 136 197 115.5Q216 95 249 95Q285 95 307.5 119Q330 143 330 181V490H450V0H347L337 47Q317 20 285 5Q253 -10 215 -10Z" glyph-name="uogonek" horiz-adv-x="511" unicode="&#371;" /><glyph d="M210 630Q210 610 221.5 597Q233 584 252 584Q271 584 283 597Q295 610 295 630Q295 650 283.5 662.5Q272 675 252 675Q233 675 221.5 662.5Q210 650 210 630ZM361 630Q361 586 330 556.5Q299 527 252 527Q205 527 175 556.5Q145 586 145 630Q145 674 175 703.5Q205 733 252 733Q299 733 330 703.5Q361 674 361 630ZM215 -10Q140 -10 98.5 36Q57 82 57 164V490H178V171Q178 136 197 115.5Q216 95 249 95Q285 95 307.5 119Q330 143 330 181V490H450V0H347L337 47Q317 20 285 5Q253 -10 215 -10Z" glyph-name="uring" horiz-adv-x="511" unicode="&#367;" /><glyph d="M215 -10Q140 -10 98.5 36Q57 82 57 164V490H178V171Q178 136 197 115.5Q216 95 249 95Q285 95 307.5 119Q330 143 330 181V490H450V0H347L337 47Q317 20 285 5Q253 -10 215 -10ZM320 627Q334 627 342.5 640.5Q351 654 351 669H413Q414 664 414 658.5Q414 653 414 644Q414 597 392 572Q370 547 330 547Q316 547 301.5 551Q287 555 272 562L229 583Q218 589 210.5 591Q203 593 197 593Q180 593 169.5 578.5Q159 564 159 550H97Q95 556 94 564Q93 572 93 578Q93 620 119.5 647Q146 674 187 674Q200 674 213 670.5Q226 667 240 661L281 641Q299 632 306.5 629.5Q314 627 320 627Z" glyph-name="utilde" horiz-adv-x="511" unicode="&#361;" /><glyph d="M449 490 295 0H170L16 490H145L236 155L326 490Z" glyph-name="v" horiz-adv-x="465" unicode="v" /><glyph d="M19 490H147L216 167L293 490H393L470 167L539 490H663L527 0H417L341 296L265 0H156Z" glyph-name="w" horiz-adv-x="682" unicode="w" /><glyph d="M397 723 473 652 341 542 285 591ZM19 490H147L216 167L293 490H393L470 167L539 490H663L527 0H417L341 296L265 0H156Z" glyph-name="wacute" horiz-adv-x="682" unicode="&#7811;" /><glyph d="M207 582 315 715H368L476 582L429 542L340 619L253 543ZM19 490H147L216 167L293 490H393L470 167L539 490H663L527 0H417L341 296L265 0H156Z" glyph-name="wcircumflex" horiz-adv-x="682" unicode="&#373;" /><glyph d="M272 551Q247 551 229.5 569Q212 587 212 612Q212 636 229.5 653Q247 670 272 670Q297 670 313.5 653.5Q330 637 330 612Q330 587 313 569Q296 551 272 551ZM411 551Q387 551 369.5 569Q352 587 352 612Q352 637 369 653.5Q386 670 411 670Q436 670 453 653.5Q470 637 470 612Q470 587 452.5 569Q435 551 411 551ZM19 490H147L216 167L293 490H393L470 167L539 490H663L527 0H417L341 296L265 0H156Z" glyph-name="wdieresis" horiz-adv-x="682" unicode="&#7813;" /><glyph d="M19 490H147L216 167L293 490H393L470 167L539 490H663L527 0H417L341 296L265 0H156ZM396 591 340 542 208 652 284 723Z" glyph-name="wgrave" horiz-adv-x="682" unicode="&#7809;" /><glyph d="M165 243 18 490H149L233 342L316 490H443L292 254L447 0H316L225 156L140 0H13Z" glyph-name="x" horiz-adv-x="459" unicode="x" /><glyph d="M449 490 231 -187H118L178 -14L16 490H145L235 162L326 490Z" glyph-name="y" horiz-adv-x="464" unicode="y" /><glyph d="M449 490 231 -187H118L178 -14L16 490H145L235 162L326 490ZM289 723 365 652 233 542 177 591Z" glyph-name="yacute" horiz-adv-x="464" unicode="&#253;" /><glyph d="M449 490 231 -187H118L178 -14L16 490H145L235 162L326 490ZM98 582 206 715H259L367 582L320 542L231 619L144 543Z" glyph-name="ycircumflex" horiz-adv-x="464" unicode="&#375;" /><glyph d="M449 490 231 -187H118L178 -14L16 490H145L235 162L326 490ZM164 551Q139 551 121.5 569Q104 587 104 612Q104 636 121.5 653Q139 670 164 670Q189 670 205.5 653.5Q222 637 222 612Q222 587 205 569Q188 551 164 551ZM303 551Q279 551 261.5 569Q244 587 244 612Q244 637 261 653.5Q278 670 303 670Q328 670 345 653.5Q362 637 362 612Q362 587 344.5 569Q327 551 303 551Z" glyph-name="ydieresis" horiz-adv-x="464" unicode="&#255;" /><glyph d="M481 314H75V388H481ZM481 183H75V257H481ZM281 389 398 657H520L336 272V0H219V270L36 657H163Z" glyph-name="yen" horiz-adv-x="556" unicode="&#165;" /><glyph d="M246 391H43V490H395V420L185 98H400V0H35V70Z" glyph-name="z" horiz-adv-x="437" unicode="z" /><glyph d="M273 723 349 652 217 542 161 591ZM246 391H43V490H395V420L185 98H400V0H35V70Z" glyph-name="zacute" horiz-adv-x="437" unicode="&#378;" /><glyph d="M353 676 245 542H192L84 676L132 716L220 639L308 715ZM246 391H43V490H395V420L185 98H400V0H35V70Z" glyph-name="zcaron" horiz-adv-x="437" unicode="&#382;" /><glyph d="M246 391H43V490H395V420L185 98H400V0H35V70ZM218 546Q190 546 170 566Q150 586 150 614Q150 643 170 663Q190 683 218 683Q247 683 267 663Q287 643 287 614Q287 585 267 565.5Q247 546 218 546Z" glyph-name="zdotaccent" horiz-adv-x="437" unicode="&#380;" /><glyph d="M275 555Q232 555 207 528Q182 501 182 455V202Q182 156 207 129Q232 102 275 102Q318 102 343 129Q368 156 368 202V455Q368 501 343 528Q318 555 275 555ZM275 667Q374 667 433.5 609.5Q493 552 493 457V200Q493 105 433.5 47.5Q374 -10 275 -10Q177 -10 117.5 47.5Q58 105 58 200V457Q58 556 115.5 611.5Q173 667 275 667Z" glyph-name="zero" horiz-adv-x="550" unicode="0" /><glyph d="M150 261Q135 261 126.5 251.5Q118 242 118 224V104Q118 87 126.5 77Q135 67 150 67Q166 67 175 77Q184 87 184 104V224Q184 242 175 251.5Q166 261 150 261ZM150 333Q203 333 234 304Q265 275 265 225V103Q265 53 234 24Q203 -5 150 -5Q99 -5 68 24.5Q37 54 37 103V225Q37 277 66 305Q95 333 150 333Z" glyph-name="zero.denominator" horiz-adv-x="302" unicode="&#63061;" /><glyph d="M150 109Q135 109 126.5 99Q118 89 118 72V-48Q118 -66 126.5 -75.5Q135 -85 150 -85Q166 -85 174.5 -75.5Q183 -66 183 -48V72Q183 89 174.5 99Q166 109 150 109ZM150 181Q202 181 233 151.5Q264 122 264 73V-49Q264 -98 233 -127.5Q202 -157 150 -157Q99 -157 68 -127.5Q37 -98 37 -49V73Q37 125 66 153Q95 181 150 181Z" glyph-name="zero.inferior" horiz-adv-x="300" unicode="&#8320;" /><glyph d="M150 590Q135 590 126.5 580.5Q118 571 118 553V433Q118 416 126.5 406Q135 396 150 396Q166 396 174.5 406Q183 416 183 433V553Q183 571 174.5 580.5Q166 590 150 590ZM150 662Q202 662 233 633Q264 604 264 555V432Q264 383 233 353.5Q202 324 150 324Q99 324 68 353.5Q37 383 37 432V555Q37 607 66 634.5Q95 662 150 662Z" glyph-name="zero.numerator" horiz-adv-x="300" unicode="&#63073;" /><glyph d="M149 741Q134 741 125 731Q116 721 116 704V584Q116 567 125 557Q134 547 149 547Q165 547 173.5 557Q182 567 182 584V704Q182 722 173.5 731.5Q165 741 149 741ZM149 813Q201 813 232 783.5Q263 754 263 705V583Q263 534 232 504.5Q201 475 149 475Q97 475 66 504.5Q35 534 35 583V705Q35 757 64.5 785Q94 813 149 813Z" glyph-name="zero.superior" horiz-adv-x="297" unicode="&#8304;" /><glyph d="M273 555Q230 555 205 528Q180 501 180 455V202Q180 156 205 129Q230 102 273 102Q316 102 341 129Q366 156 366 202V455Q366 501 341 528Q316 555 273 555ZM273 667Q371 667 430.5 609.5Q490 552 490 457V200Q490 105 430.5 47.5Q371 -10 273 -10Q174 -10 114.5 47.5Q55 105 55 200V457Q55 556 112.5 611.5Q170 667 273 667Z" glyph-name="zero.tab" horiz-adv-x="546" /></font>
</defs>
</svg>
